<svg xmlns="http://www.w3.org/2000/svg" xmlns:xlink="http://www.w3.org/1999/xlink" viewBox="0 0 1077.18 1421.06"><defs><style>.cls-1{mask:url(#mask);}.cls-10,.cls-12,.cls-18,.cls-2,.cls-30,.cls-4,.cls-43,.cls-45,.cls-47,.cls-48,.cls-50,.cls-51,.cls-6,.cls-62,.cls-65,.cls-67,.cls-69,.cls-71,.cls-73,.cls-75,.cls-8,.cls-93,.cls-96,.cls-98,.cls-99{mix-blend-mode:multiply;}.cls-2{fill:url(#linear-gradient);}.cls-3{mask:url(#mask-2);}.cls-4{fill:url(#linear-gradient-2);}.cls-5{mask:url(#mask-3);}.cls-6{fill:url(#linear-gradient-3);}.cls-7{mask:url(#mask-4);}.cls-8{fill:url(#linear-gradient-4);}.cls-9{mask:url(#mask-5);}.cls-10{fill:url(#linear-gradient-5);}.cls-11{mask:url(#mask-6);}.cls-12{fill:url(#linear-gradient-6);}.cls-13{fill:none;}.cls-14{isolation:isolate;}.cls-15{fill:#0e263a;}.cls-16{fill:url(#linear-gradient-7);}.cls-17{fill:url(#linear-gradient-8);}.cls-18{fill:#e2d3c5;}.cls-19{fill:url(#linear-gradient-9);}.cls-20{fill:url(#linear-gradient-10);}.cls-21{fill:#442917;}.cls-22{fill:url(#linear-gradient-11);}.cls-23{fill:url(#linear-gradient-12);}.cls-24{fill:url(#linear-gradient-13);}.cls-25{fill:url(#linear-gradient-14);}.cls-26{fill:url(#linear-gradient-15);}.cls-27{fill:url(#linear-gradient-16);}.cls-28{fill:#7c3f1d;}.cls-29{fill:#775530;}.cls-30{fill:#c7cfd1;}.cls-31{fill:url(#linear-gradient-17);}.cls-32{fill:url(#linear-gradient-18);}.cls-104,.cls-106,.cls-108,.cls-110,.cls-111,.cls-33,.cls-34,.cls-37,.cls-39,.cls-55,.cls-57,.cls-60,.cls-77,.cls-79,.cls-81,.cls-83,.cls-85,.cls-86{mix-blend-mode:overlay;}.cls-33{fill:url(#linear-gradient-19);}.cls-34{fill:url(#linear-gradient-20);}.cls-35{fill:#f2c2a0;}.cls-36{fill:#ffe8d2;}.cls-37{fill:url(#linear-gradient-21);}.cls-38{fill:url(#linear-gradient-22);}.cls-39{opacity:0.45;}.cls-40{clip-path:url(#clip-path);}.cls-41{fill:#48494e;}.cls-42{fill:#f2c9a0;}.cls-43{fill:url(#linear-gradient-23);}.cls-44{fill:url(#linear-gradient-24);}.cls-45{fill:#a37657;}.cls-45,.cls-52{opacity:0.24;}.cls-46{fill:#fff;opacity:0.31;mix-blend-mode:soft-light;}.cls-47{fill:#d3bca9;opacity:0.5;}.cls-48{fill:#b28d6f;}.cls-49{fill:url(#linear-gradient-25);}.cls-50{fill:#bdc4c6;}.cls-51{fill:#93a5aa;}.cls-53{fill:#7f3009;}.cls-54{fill:url(#linear-gradient-26);}.cls-104,.cls-106,.cls-111,.cls-55,.cls-77,.cls-81{opacity:0.37;}.cls-55{fill:url(#linear-gradient-27);}.cls-56{fill:url(#linear-gradient-28);}.cls-57,.cls-79,.cls-83,.cls-86{opacity:0.41;}.cls-57{fill:url(#linear-gradient-29);}.cls-58{fill:url(#linear-gradient-30);}.cls-59{mask:url(#mask-7);}.cls-60{opacity:0.29;fill:url(#linear-gradient-31);}.cls-61{fill:#00318c;}.cls-62{fill:#90e4f8;}.cls-63{fill:url(#linear-gradient-32);}.cls-64{fill:url(#linear-gradient-33);}.cls-65,.cls-67,.cls-69,.cls-71,.cls-73,.cls-75{opacity:0.39;}.cls-65{fill:url(#linear-gradient-34);}.cls-66{fill:url(#linear-gradient-35);}.cls-67{fill:url(#linear-gradient-36);}.cls-68{fill:url(#linear-gradient-37);}.cls-69{fill:url(#linear-gradient-38);}.cls-70{fill:url(#linear-gradient-39);}.cls-71{fill:url(#linear-gradient-40);}.cls-72{fill:url(#linear-gradient-41);}.cls-73{fill:url(#linear-gradient-42);}.cls-74{fill:url(#linear-gradient-43);}.cls-75{fill:url(#linear-gradient-44);}.cls-76{fill:url(#linear-gradient-45);}.cls-77{fill:url(#linear-gradient-46);}.cls-78{fill:url(#linear-gradient-47);}.cls-79{fill:url(#linear-gradient-48);}.cls-80{fill:url(#linear-gradient-49);}.cls-81{fill:url(#linear-gradient-50);}.cls-82{fill:url(#linear-gradient-51);}.cls-83{fill:url(#linear-gradient-52);}.cls-84{fill:url(#linear-gradient-53);}.cls-85{opacity:0.57;fill:url(#linear-gradient-54);}.cls-86{fill:url(#linear-gradient-55);}.cls-87{fill:url(#linear-gradient-56);}.cls-88{fill:url(#linear-gradient-57);}.cls-89{fill:url(#linear-gradient-58);}.cls-90{fill:url(#linear-gradient-59);}.cls-91{fill:url(#linear-gradient-60);}.cls-92{fill:url(#linear-gradient-61);}.cls-93{fill:#ffd6ae;}.cls-94{fill:url(#linear-gradient-62);}.cls-95{fill:url(#linear-gradient-63);}.cls-96{fill:#f1b792;}.cls-97{fill:url(#radial-gradient);}.cls-98{fill:#f6c8c8;}.cls-99{fill:#9bcfd3;}.cls-100{fill:url(#radial-gradient-2);}.cls-101{mask:url(#mask-8);}.cls-102{fill:url(#linear-gradient-64);}.cls-103{mask:url(#mask-9);}.cls-104{fill:url(#linear-gradient-65);}.cls-105{mask:url(#mask-10);}.cls-106{fill:url(#linear-gradient-66);}.cls-107{mask:url(#mask-11);}.cls-108{fill:url(#linear-gradient-67);}.cls-109{mask:url(#mask-12);}.cls-110{fill:url(#linear-gradient-68);}.cls-111{fill:url(#linear-gradient-69);}.cls-112{filter:url(#luminosity-noclip-12);}.cls-113{filter:url(#luminosity-noclip-11);}.cls-114{filter:url(#luminosity-noclip-10);}.cls-115{filter:url(#luminosity-noclip-9);}.cls-116{filter:url(#luminosity-noclip-8);}.cls-117{filter:url(#luminosity-noclip-7);}.cls-118{filter:url(#luminosity-noclip-6);}.cls-119{filter:url(#luminosity-noclip-5);}.cls-120{filter:url(#luminosity-noclip-4);}.cls-121{filter:url(#luminosity-noclip-3);}.cls-122{filter:url(#luminosity-noclip-2);}.cls-123{filter:url(#luminosity-noclip);}</style><filter id="luminosity-noclip" x="706.15" y="-8902.53" width="236.34" height="32766" filterUnits="userSpaceOnUse" color-interpolation-filters="sRGB"><feFlood flood-color="#fff" result="bg"/><feBlend in="SourceGraphic" in2="bg"/></filter><mask id="mask" x="706.15" y="-8902.53" width="236.34" height="32766" maskUnits="userSpaceOnUse"><g class="cls-123"/></mask><linearGradient id="linear-gradient" x1="2280.07" y1="869.07" x2="1838.61" y2="1008.16" gradientTransform="matrix(-1, -0.03, -0.03, 1, 2868.35, 64.03)" gradientUnits="userSpaceOnUse"><stop offset="0" stop-color="#fff"/><stop offset="0.13" stop-color="#e5e5e5"/><stop offset="0.4" stop-color="#a2a2a2"/><stop offset="0.8" stop-color="#383838"/><stop offset="1"/></linearGradient><filter id="luminosity-noclip-2" x="757.46" y="-8902.53" width="52.26" height="32766" filterUnits="userSpaceOnUse" color-interpolation-filters="sRGB"><feFlood flood-color="#fff" result="bg"/><feBlend in="SourceGraphic" in2="bg"/></filter><mask id="mask-2" x="757.46" y="-8902.53" width="52.26" height="32766" maskUnits="userSpaceOnUse"><g class="cls-122"/></mask><linearGradient id="linear-gradient-2" x1="1968.99" y1="213.55" x2="2172.59" y2="768.83" gradientTransform="matrix(-1, -0.03, -0.03, 1, 2868.35, 64.03)" gradientUnits="userSpaceOnUse"><stop offset="0" stop-color="#fff"/><stop offset="0.07" stop-color="#e5e5e5"/><stop offset="0.23" stop-color="#a2a2a2"/><stop offset="0.46" stop-color="#383838"/><stop offset="0.58"/></linearGradient><filter id="luminosity-noclip-3" x="926.16" y="-8902.53" width="23.07" height="32766" filterUnits="userSpaceOnUse" color-interpolation-filters="sRGB"><feFlood flood-color="#fff" result="bg"/><feBlend in="SourceGraphic" in2="bg"/></filter><mask id="mask-3" x="926.16" y="-8902.53" width="23.07" height="32766" maskUnits="userSpaceOnUse"><g class="cls-121"/></mask><linearGradient id="linear-gradient-3" x1="1681.09" y1="851.45" x2="1724.18" y2="895.05" gradientTransform="matrix(-1.44, -0.04, -0.02, 0.66, 3392.5, 392.03)" gradientUnits="userSpaceOnUse"><stop offset="0" stop-color="#fff"/><stop offset="0.6"/></linearGradient><filter id="luminosity-noclip-4" x="756.97" y="-8902.53" width="45.31" height="32766" filterUnits="userSpaceOnUse" color-interpolation-filters="sRGB"><feFlood flood-color="#fff" result="bg"/><feBlend in="SourceGraphic" in2="bg"/></filter><mask id="mask-4" x="756.97" y="-8902.53" width="45.31" height="32766" maskUnits="userSpaceOnUse"><g class="cls-120"/></mask><linearGradient id="linear-gradient-4" x1="2026.5" y1="694.58" x2="2116.77" y2="784.85" xlink:href="#linear-gradient"/><filter id="luminosity-noclip-5" x="751.53" y="-8902.53" width="40.72" height="32766" filterUnits="userSpaceOnUse" color-interpolation-filters="sRGB"><feFlood flood-color="#fff" result="bg"/><feBlend in="SourceGraphic" in2="bg"/></filter><mask id="mask-5" x="751.53" y="-8902.53" width="40.72" height="32766" maskUnits="userSpaceOnUse"><g class="cls-119"/></mask><linearGradient id="linear-gradient-5" x1="2017.2" y1="986.47" x2="2126.89" y2="1096.16" xlink:href="#linear-gradient"/><filter id="luminosity-noclip-6" x="861.88" y="-8902.53" width="35.44" height="32766" filterUnits="userSpaceOnUse" color-interpolation-filters="sRGB"><feFlood flood-color="#fff" result="bg"/><feBlend in="SourceGraphic" in2="bg"/></filter><mask id="mask-6" x="861.88" y="-8902.53" width="35.44" height="32766" maskUnits="userSpaceOnUse"><g class="cls-118"/></mask><linearGradient id="linear-gradient-6" x1="1870.43" y1="707.5" x2="2002.02" y2="1249.36" gradientTransform="matrix(-1, -0.03, -0.03, 1, 2868.35, 64.03)" gradientUnits="userSpaceOnUse"><stop offset="0" stop-color="#fff"/><stop offset="0.11" stop-color="#e5e5e5"/><stop offset="0.36" stop-color="#a2a2a2"/><stop offset="0.71" stop-color="#383838"/><stop offset="0.89"/></linearGradient><linearGradient id="linear-gradient-7" x1="100.63" y1="276.66" x2="946.99" y2="1441.29" gradientUnits="userSpaceOnUse"><stop offset="0" stop-color="#fcd2c2"/><stop offset="1" stop-color="#d18a4d"/></linearGradient><linearGradient id="linear-gradient-8" x1="640.22" y1="1286.09" x2="378.54" y2="264.05" gradientUnits="userSpaceOnUse"><stop offset="0" stop-color="#997e6f"/><stop offset="1" stop-color="#954f38"/></linearGradient><linearGradient id="linear-gradient-9" x1="540.29" y1="1225.73" x2="540.29" y2="1329.43" gradientUnits="userSpaceOnUse"><stop offset="0" stop-color="#d17949"/><stop offset="1" stop-color="#fcb17e"/></linearGradient><linearGradient id="linear-gradient-10" x1="519.07" y1="1178.76" x2="556.07" y2="1394.03" gradientUnits="userSpaceOnUse"><stop offset="0.25" stop-color="#d17949"/><stop offset="0.92" stop-color="#973500"/></linearGradient><linearGradient id="linear-gradient-11" x1="489.77" y1="-27.6" x2="787.79" y2="469.1" gradientUnits="userSpaceOnUse"><stop offset="0" stop-color="#fcd2c2"/><stop offset="1" stop-color="#d1925c"/></linearGradient><linearGradient id="linear-gradient-12" x1="542.87" y1="999.8" x2="542.87" y2="240.49" xlink:href="#linear-gradient-8"/><linearGradient id="linear-gradient-13" x1="29.53" y1="368.22" x2="289.64" y2="839.52" xlink:href="#linear-gradient-11"/><linearGradient id="linear-gradient-14" x1="227.44" y1="950.51" x2="227.44" y2="248.96" xlink:href="#linear-gradient-8"/><linearGradient id="linear-gradient-15" x1="904.39" y1="406.38" x2="1067.46" y2="671.38" xlink:href="#linear-gradient-11"/><linearGradient id="linear-gradient-16" x1="854.59" y1="946.81" x2="854.59" y2="242.25" xlink:href="#linear-gradient-8"/><linearGradient id="linear-gradient-17" x1="697.36" y1="848.84" x2="1379.54" y2="426.37" gradientUnits="userSpaceOnUse"><stop offset="0.13" stop-color="#d1925c"/><stop offset="1" stop-color="#fcd2c2"/></linearGradient><linearGradient id="linear-gradient-18" x1="-80.08" y1="1081.2" x2="576.15" y2="674.8" gradientUnits="userSpaceOnUse"><stop offset="0.08" stop-color="#fcd2c2"/><stop offset="0.23" stop-color="#eebea2"/><stop offset="0.4" stop-color="#e2ab83"/><stop offset="0.56" stop-color="#d89d6e"/><stop offset="0.72" stop-color="#d39560"/><stop offset="0.87" stop-color="#d1925c"/></linearGradient><linearGradient id="linear-gradient-19" x1="868.83" y1="498.76" x2="1041.72" y2="498.76" gradientUnits="userSpaceOnUse"><stop offset="0" stop-color="#fff3cf"/><stop offset="0.18" stop-color="#e5e4c8"/><stop offset="0.57" stop-color="#a2bdb7"/><stop offset="1" stop-color="#528ea2"/></linearGradient><linearGradient id="linear-gradient-20" x1="26.73" y1="506.67" x2="213.71" y2="506.67" xlink:href="#linear-gradient-19"/><linearGradient id="linear-gradient-21" x1="869.74" y1="638.72" x2="1005.68" y2="638.72" xlink:href="#linear-gradient-19"/><linearGradient id="linear-gradient-22" x1="238.33" y1="1297.74" x2="840.35" y2="1297.74" gradientUnits="userSpaceOnUse"><stop offset="0" stop-color="#ffcea1"/><stop offset="1" stop-color="#e09e6c"/></linearGradient><clipPath id="clip-path" transform="translate(26.73 0)"><path class="cls-13" d="M930,1291.92l.2-2.47,17.85-216.76h-.33v-.09l0,.09h0L829.38,1069l0-.1,118.33,3.67L922,1048.88l28,.86,19.29-234.38h-.35l-51-23.59,53.35-.31h0l15.72-190.9h-.38L920,587.23l111.34-8.94-.28-2.76L1015,417.86,978.86,429.4h0A501,501,0,0,0,963,372.94a492.64,492.64,0,0,0-39.83-87l-101.9,71-.19-.35L923.13,286,881,298l29.49-32h0a500.5,500.5,0,0,0-52.2-67A463.83,463.83,0,0,0,707.32,91.48a453.87,453.87,0,0,0-80.21-27l-.63,2.58h0l-19,9.71L624,0,409.53,2.81l16.08,76.44L402.83,68.13h0a464.6,464.6,0,0,0-76.68,28A479.23,479.23,0,0,0,176,206.65a498.62,498.62,0,0,0-52.26,67.71l0,0,28.89,31.16-42.11-9.43,68.24,45-68.25-45a504.92,504.92,0,0,0-38.79,85.42,512.58,512.58,0,0,0-16.2,57.27h0L17,427.06,0,586.28l112.39,7.15L46.86,607.64h0l14.3,189.07L181.6,796l1.53,23.72h0L181.6,796l-68.3.4-50.37,24h0L80.48,1052.6l27.31-1L82.2,1075.36,199.26,1071l-.68-10.54.68,10.53v0h0l-117,4.41L98.65,1292.9h0l15.29,128.16,804.92-3.84L930,1291.92ZM428.78,175.65l-.24.07h0Zm-204.59,165a0,0,0,0,0,0,0l-.14-.13Zm-.23-.14-2.61,4.89,2.6-4.9ZM169.44,606.72v0Zm32.91-7.93h0l-1.26-19.63,16.28-3.52L226.84,497l-20-9.1a350.54,350.54,0,0,1,41-109.42l7.35-12.06.11-.19c44.69-70,113.43-121.91,194.2-141.2l13.06-2.83,0,0a1.75,1.75,0,0,0,.33-.06l4.35,10,99.61-1.1,3.78-9.85,2.7.48,4.16.8c64.84,12.89,122.23,46.92,166,95,40.61,44.58,69.34,101,81.48,163.67l-23.34,11,9.06,79,19.76,4-33.17,471.2H797l-.17,6.63-13.59,193.07-539.48.87L232,1062.6h0l-.27-14.49h-.67L215.92,811l-1.06-16.58Zm-4.55,449.44v-.09h0l0,.09Z"/></clipPath><linearGradient id="linear-gradient-23" x1="538.91" y1="1246.08" x2="538.91" y2="1365.32" gradientUnits="userSpaceOnUse"><stop offset="0.32" stop-color="#bdd2d6"/><stop offset="1" stop-color="#b37f62"/></linearGradient><linearGradient id="linear-gradient-24" x1="757.1" y1="1247.5" x2="704.83" y2="1297.3" gradientUnits="userSpaceOnUse"><stop offset="0" stop-color="#d18249"/><stop offset="1" stop-color="#fcb97e"/></linearGradient><linearGradient id="linear-gradient-25" x1="694.81" y1="1289.6" x2="553.51" y2="1308.18" gradientUnits="userSpaceOnUse"><stop offset="0.54" stop-color="#e8a066"/><stop offset="1" stop-color="#fcb97e"/></linearGradient><linearGradient id="linear-gradient-26" x1="1794.9" y1="788.11" x2="2077.01" y2="795.16" gradientTransform="matrix(-1, -0.05, -0.05, 1, 2888.76, 65.21)" gradientUnits="userSpaceOnUse"><stop offset="0" stop-color="#1d3772"/><stop offset="0.53" stop-color="#0f305e"/><stop offset="1" stop-color="#072c52"/></linearGradient><linearGradient id="linear-gradient-27" x1="953.19" y1="214.5" x2="1002.18" y2="879.1" xlink:href="#linear-gradient-19"/><linearGradient id="linear-gradient-28" x1="1103" y1="287.38" x2="602.28" y2="1376.06" gradientTransform="translate(22.47 -40.94) rotate(1.5)" gradientUnits="userSpaceOnUse"><stop offset="0" stop-color="#344b88"/><stop offset="0.15" stop-color="#2e458f"/><stop offset="0.52" stop-color="#233a9b"/><stop offset="1" stop-color="#301d54"/></linearGradient><linearGradient id="linear-gradient-29" x1="1840.62" y1="791.54" x2="2165.88" y2="791.54" gradientTransform="matrix(-1, -0.05, -0.05, 1, 2888.76, 65.21)" xlink:href="#linear-gradient-19"/><linearGradient id="linear-gradient-30" x1="1243.15" y1="677.39" x2="276.26" y2="1000.4" gradientTransform="translate(22.47 -40.94) rotate(1.5)" gradientUnits="userSpaceOnUse"><stop offset="0" stop-color="#525fd6"/><stop offset="0.32" stop-color="#344cbf"/><stop offset="0.52" stop-color="#2844b6"/><stop offset="1" stop-color="#573599"/></linearGradient><filter id="luminosity-noclip-7" x="706.15" y="604.27" width="236.34" height="708.89" filterUnits="userSpaceOnUse" color-interpolation-filters="sRGB"><feFlood flood-color="#fff" result="bg"/><feBlend in="SourceGraphic" in2="bg"/></filter><mask id="mask-7" x="732.88" y="604.27" width="236.34" height="708.89" maskUnits="userSpaceOnUse"><g class="cls-117"><g transform="translate(26.73 0)"><g class="cls-1"><path class="cls-2" d="M706.15,1242.23l236.34,70.92c-110.61-240.54-192.8-471.77-232.18-708.88Z"/></g></g></g></mask><linearGradient id="linear-gradient-31" x1="2280.07" y1="869.07" x2="1838.61" y2="1008.16" gradientTransform="matrix(-1, -0.03, -0.03, 1, 2868.35, 64.03)" xlink:href="#linear-gradient-19"/><linearGradient id="linear-gradient-32" x1="1924.48" y1="1203.67" x2="2146.22" y2="1296.22" gradientTransform="matrix(-1, -0.03, -0.03, 1, 2895.08, 64.03)" xlink:href="#linear-gradient-30"/><linearGradient id="linear-gradient-33" x1="1890.19" y1="1211.84" x2="2136.96" y2="1211.84" gradientTransform="matrix(-1, -0.03, -0.03, 1, 2895.08, 64.03)" gradientUnits="userSpaceOnUse"><stop offset="0" stop-color="#465ec5"/><stop offset="0.46" stop-color="#5f76d3"/><stop offset="1" stop-color="#8398e7"/></linearGradient><linearGradient id="linear-gradient-34" x1="1812.27" y1="198.74" x2="2277.03" y2="707.6" gradientTransform="matrix(-1, -0.03, -0.03, 1, 2868.35, 64.03)" xlink:href="#linear-gradient-30"/><linearGradient id="linear-gradient-35" x1="2214.27" y1="1233.66" x2="2000.33" y2="150.62" gradientTransform="matrix(-1, -0.03, -0.03, 1, 2868.35, 64.03)" gradientUnits="userSpaceOnUse"><stop offset="0.13" stop-color="#4a82e4"/><stop offset="1" stop-color="#2760c5"/></linearGradient><linearGradient id="linear-gradient-36" x1="2038.41" y1="414.26" x2="2120.19" y2="1175.95" gradientTransform="matrix(-1, -0.03, -0.03, 1, 2895.08, 64.03)" xlink:href="#linear-gradient-30"/><linearGradient id="linear-gradient-37" x1="1824.74" y1="1039.09" x2="2282.6" y2="479.72" gradientTransform="matrix(-1, -0.03, -0.03, 1, 2895.08, 64.03)" xlink:href="#linear-gradient-35"/><linearGradient id="linear-gradient-38" x1="1986.07" y1="225.38" x2="2098.17" y2="1269.59" gradientTransform="matrix(-1, -0.03, -0.03, 1, 2895.08, 64.03)" xlink:href="#linear-gradient-30"/><linearGradient id="linear-gradient-39" x1="1900.55" y1="1248.19" x2="2526.39" y2="483.59" gradientTransform="matrix(-1, -0.03, -0.03, 1, 2895.08, 64.03)" xlink:href="#linear-gradient-35"/><linearGradient id="linear-gradient-40" x1="1768.28" y1="260.31" x2="2299.06" y2="841.47" gradientTransform="matrix(-1, -0.03, -0.03, 1, 2868.35, 64.03)" xlink:href="#linear-gradient-30"/><linearGradient id="linear-gradient-41" x1="2113.82" y1="1357.33" x2="1878.07" y2="163.81" xlink:href="#linear-gradient-35"/><linearGradient id="linear-gradient-42" x1="1912.11" y1="433.3" x2="1997.6" y2="1229.57" gradientTransform="matrix(-1, -0.03, -0.03, 1, 2895.08, 64.03)" xlink:href="#linear-gradient-30"/><linearGradient id="linear-gradient-43" x1="1763.05" y1="967.92" x2="2255.72" y2="366.01" gradientTransform="matrix(-1, -0.03, -0.03, 1, 2895.08, 64.03)" xlink:href="#linear-gradient-35"/><linearGradient id="linear-gradient-44" x1="1867.1" y1="250.08" x2="1983.31" y2="1332.5" gradientTransform="matrix(-1, -0.03, -0.03, 1, 2895.08, 64.03)" xlink:href="#linear-gradient-30"/><linearGradient id="linear-gradient-45" x1="1877.48" y1="1154.75" x2="2556.44" y2="325.25" gradientTransform="matrix(-1, -0.03, -0.03, 1, 2895.08, 64.03)" xlink:href="#linear-gradient-35"/><linearGradient id="linear-gradient-46" x1="2007.18" y1="976.21" x2="2117.34" y2="1086.37" gradientTransform="matrix(-1, -0.03, -0.03, 1, 2895.08, 64.03)" xlink:href="#linear-gradient-19"/><linearGradient id="linear-gradient-47" x1="2116.72" y1="1264.18" x2="1837.26" y2="-150.6" gradientTransform="matrix(-1, -0.03, -0.03, 1, 2895.08, 64.03)" xlink:href="#linear-gradient-30"/><linearGradient id="linear-gradient-48" x1="1881.45" y1="994.26" x2="1999.04" y2="1111.85" gradientTransform="matrix(-1, -0.03, -0.03, 1, 2895.08, 64.03)" xlink:href="#linear-gradient-19"/><linearGradient id="linear-gradient-49" x1="2008.77" y1="1351.27" x2="1726.78" y2="-76.32" gradientTransform="matrix(-1, -0.03, -0.03, 1, 2895.08, 64.03)" xlink:href="#linear-gradient-30"/><linearGradient id="linear-gradient-50" x1="2013.4" y1="681.4" x2="2103.9" y2="771.9" gradientTransform="matrix(-1, -0.03, -0.03, 1, 2895.08, 64.03)" xlink:href="#linear-gradient-19"/><linearGradient id="linear-gradient-51" x1="2150.44" y1="1135.86" x2="1971.77" y2="231.35" gradientTransform="matrix(-1, -0.03, -0.03, 1, 2895.08, 64.03)" xlink:href="#linear-gradient-30"/><linearGradient id="linear-gradient-52" x1="1881.85" y1="684.4" x2="1980.93" y2="783.47" gradientTransform="matrix(-1, -0.03, -0.03, 1, 2895.08, 64.03)" xlink:href="#linear-gradient-19"/><linearGradient id="linear-gradient-53" x1="2036.13" y1="1205.31" x2="1848.86" y2="257.26" gradientTransform="matrix(-1, -0.03, -0.03, 1, 2895.08, 64.03)" xlink:href="#linear-gradient-30"/><linearGradient id="linear-gradient-54" x1="1990.42" y1="396.35" x2="2090.23" y2="496.17" gradientTransform="matrix(-1, -0.03, -0.03, 1, 2895.08, 64.03)" xlink:href="#linear-gradient-19"/><linearGradient id="linear-gradient-55" x1="1896.7" y1="407.14" x2="1967.23" y2="477.67" gradientTransform="matrix(-1, -0.03, -0.03, 1, 2868.35, 64.03)" xlink:href="#linear-gradient-19"/><linearGradient id="linear-gradient-56" x1="2052.92" y1="544.66" x2="2094.4" y2="586.14" gradientTransform="matrix(-1, -0.03, -0.03, 1, 2895.08, 64.03)" gradientUnits="userSpaceOnUse"><stop offset="0" stop-color="#8398e7"/><stop offset="0.54" stop-color="#5f76d3"/><stop offset="1" stop-color="#465ec5"/></linearGradient><linearGradient id="linear-gradient-57" x1="2055.12" y1="832.45" x2="2086.76" y2="864.1" xlink:href="#linear-gradient-56"/><linearGradient id="linear-gradient-58" x1="2057.27" y1="1154.25" x2="2083.25" y2="1180.23" xlink:href="#linear-gradient-56"/><linearGradient id="linear-gradient-59" x1="1941.53" y1="1180.32" x2="1970.86" y2="1209.65" xlink:href="#linear-gradient-56"/><linearGradient id="linear-gradient-60" x1="1928.81" y1="842.77" x2="1965.96" y2="879.92" xlink:href="#linear-gradient-56"/><linearGradient id="linear-gradient-61" x1="1912.5" y1="542.67" x2="1959.44" y2="589.62" xlink:href="#linear-gradient-56"/><linearGradient id="linear-gradient-62" x1="2008.52" y1="407.12" x2="2227.21" y2="625.81" gradientTransform="matrix(-1, -0.03, -0.03, 1, 2868.35, 64.03)" xlink:href="#linear-gradient-30"/><linearGradient id="linear-gradient-63" x1="1908.37" y1="417.57" x2="2070.08" y2="579.29" gradientTransform="matrix(-1, -0.03, -0.03, 1, 2868.35, 64.03)" xlink:href="#linear-gradient-30"/><radialGradient id="radial-gradient" cx="5009.7" cy="596.31" r="25.48" gradientTransform="matrix(-0.52, -0.01, -0.03, 0.99, 3452.47, 70.71)" gradientUnits="userSpaceOnUse"><stop offset="0.11" stop-color="#3877f2"/><stop offset="0.8" stop-color="#162da3"/><stop offset="0.94" stop-color="#1f3ee1"/></radialGradient><radialGradient id="radial-gradient-2" cx="4409.56" cy="860.43" r="42.24" gradientTransform="matrix(-0.74, -0.02, -0.02, 0.61, 4223.78, 443.59)" gradientUnits="userSpaceOnUse"><stop offset="0.11" stop-color="#c47128"/><stop offset="0.8" stop-color="#75460a"/><stop offset="0.94" stop-color="#b36b0f"/></radialGradient><filter id="luminosity-noclip-8" x="926.16" y="897.82" width="23.07" height="18.23" filterUnits="userSpaceOnUse" color-interpolation-filters="sRGB"><feFlood flood-color="#fff" result="bg"/><feBlend in="SourceGraphic" in2="bg"/></filter><mask id="mask-8" x="952.89" y="897.82" width="23.07" height="18.23" maskUnits="userSpaceOnUse"><g class="cls-116"><g transform="translate(26.73 0)"><g class="cls-5"><path class="cls-6" d="M926.18,906c-.41,5,4.38,9.45,10.72,10s11.87-3.12,12.3-8.14-4.39-9.51-10.77-10S926.59,901,926.18,906Z"/></g></g></g></mask><linearGradient id="linear-gradient-64" x1="1681.09" y1="851.45" x2="1724.18" y2="895.05" gradientTransform="matrix(-1.44, -0.04, -0.02, 0.66, 3392.5, 392.03)" gradientUnits="userSpaceOnUse"><stop offset="0" stop-color="#fff"/><stop offset="0.6" stop-color="#c99757"/></linearGradient><filter id="luminosity-noclip-9" x="756.97" y="675.86" width="45.31" height="151.03" filterUnits="userSpaceOnUse" color-interpolation-filters="sRGB"><feFlood flood-color="#fff" result="bg"/><feBlend in="SourceGraphic" in2="bg"/></filter><mask id="mask-9" x="783.7" y="675.86" width="45.31" height="151.03" maskUnits="userSpaceOnUse"><g class="cls-115"><g transform="translate(26.73 0)"><g class="cls-7"><polygon class="cls-8" points="802.28 683.08 798.55 826.88 758.3 822.13 756.97 675.86 802.28 683.08"/></g></g></g></mask><linearGradient id="linear-gradient-65" x1="2026.5" y1="694.58" x2="2116.77" y2="784.85" gradientTransform="matrix(-1, -0.03, -0.03, 1, 2895.08, 64.03)" xlink:href="#linear-gradient-19"/><filter id="luminosity-noclip-10" x="751.53" y="952.4" width="40.72" height="201.19" filterUnits="userSpaceOnUse" color-interpolation-filters="sRGB"><feFlood flood-color="#fff" result="bg"/><feBlend in="SourceGraphic" in2="bg"/></filter><mask id="mask-10" x="778.26" y="952.4" width="40.72" height="201.19" maskUnits="userSpaceOnUse"><g class="cls-114"><g transform="translate(26.73 0)"><g class="cls-9"><polygon class="cls-10" points="792.25 962.63 786.64 1153.59 751.53 1144.97 752.42 952.4 792.25 962.63"/></g></g></g></mask><linearGradient id="linear-gradient-66" x1="2017.2" y1="986.47" x2="2126.89" y2="1096.16" gradientTransform="matrix(-1, -0.03, -0.03, 1, 2895.08, 64.03)" xlink:href="#linear-gradient-19"/><filter id="luminosity-noclip-11" x="861.88" y="974.19" width="35.44" height="208.06" filterUnits="userSpaceOnUse" color-interpolation-filters="sRGB"><feFlood flood-color="#fff" result="bg"/><feBlend in="SourceGraphic" in2="bg"/></filter><mask id="mask-11" x="888.61" y="974.19" width="35.44" height="208.06" maskUnits="userSpaceOnUse"><g class="cls-113"><g transform="translate(26.73 0)"><g class="cls-11"><polygon class="cls-12" points="872.06 974.19 882 977.2 897.32 1182.26 861.88 1173.33 872.06 974.19"/></g></g></g></mask><linearGradient id="linear-gradient-67" x1="1870.43" y1="707.5" x2="2002.02" y2="1249.36" gradientTransform="matrix(-1, -0.03, -0.03, 1, 2895.08, 64.03)" gradientUnits="userSpaceOnUse"><stop offset="0" stop-color="#fff3cf"/><stop offset="0.16" stop-color="#e5e4c8"/><stop offset="0.51" stop-color="#a2bdb7"/><stop offset="0.89" stop-color="#528ea2"/></linearGradient><filter id="luminosity-noclip-12" x="757.46" y="392.29" width="52.26" height="146.49" filterUnits="userSpaceOnUse" color-interpolation-filters="sRGB"><feFlood flood-color="#fff" result="bg"/><feBlend in="SourceGraphic" in2="bg"/></filter><mask id="mask-12" x="784.19" y="392.29" width="52.26" height="146.49" maskUnits="userSpaceOnUse"><g class="cls-112"><g transform="translate(26.73 0)"><g class="cls-3"><path class="cls-4" d="M809.72,420.34l-3.36,118.43-48.9-1s3.07-93.95,42.21-145.45Z"/></g></g></g></mask><linearGradient id="linear-gradient-68" x1="1968.99" y1="213.55" x2="2172.59" y2="768.83" gradientTransform="matrix(-1, -0.03, -0.03, 1, 2868.35, 64.03)" gradientUnits="userSpaceOnUse"><stop offset="0" stop-color="#fff3cf"/><stop offset="0.11" stop-color="#e5e4c8"/><stop offset="0.33" stop-color="#a2bdb7"/><stop offset="0.58" stop-color="#528ea2"/></linearGradient><linearGradient id="linear-gradient-69" x1="1071.33" y1="395.2" x2="597.92" y2="1339.17" gradientTransform="translate(22.47 -40.94) rotate(1.5)" xlink:href="#linear-gradient-19"/></defs><title>Asset 2</title><g class="cls-14"><g id="Layer_2" data-name="Layer 2"><g id="Layer_1-2" data-name="Layer 1"><path class="cls-15" d="M281.4,210,128,549.07l9.72,348.66,32.32,431.2,675.48-23.23,54.92-651.48L890.29,401.87s-87.79-155.81-99-169.74-223.21-96.22-223.21-96.22Z" transform="translate(26.73 0)"/><path class="cls-16" d="M930,1291.92l18.06-219.23h-.34L829.38,1069l-20.09-.62.3-4.48,1.15-17.81,0-.67,19.54.6H831l.36,0,90.61,2.8,28,.86,19.29-234.38L821,816.19l.63-23.87,149.58-.87,15.72-190.9-146.8,1.11.68-24.65L854,579.66l134.7-1c.07-.9.14-1.83.2-2.75a504.63,504.63,0,0,0-7.66-134.81c-.75-3.9-1.56-7.77-2.41-11.64v0A501,501,0,0,0,963,372.94a492.64,492.64,0,0,0-39.83-87l-101.9,71-.19-.35h0l-5.14-9.09c0-.11-.12-.22-.18-.34l-2.13-3.76-4.75-8.4h0l-.23-.4L910.45,266a500.5,500.5,0,0,0-52.2-67A463.83,463.83,0,0,0,707.32,91.48a453.87,453.87,0,0,0-80.21-27l-.63,2.58L600.69,172.81v0l-.05.15L595,196.05,592.36,207l-1.71-.4-13.19-3-1.65-.37-8.61-2L570.39,188l5-20.71,26.12-108c-1.93-.34-3.86-.67-5.79-1a463.28,463.28,0,0,0-156.32,1.62q-5.6,1-11.14,2.17l25.43,107.24,3.69,15.59,1,4.36,3.11,13.15-5.12,1.27-1.3.34-13.55,3.39-5.16,1.28-7.88-33L402.83,68.13a464.6,464.6,0,0,0-76.68,28A479.23,479.23,0,0,0,176,206.65a498.62,498.62,0,0,0-52.26,67.71L224,340.56l.07,0,.16.1,21.49,14.2-1.46,2.22-10.31,15.61L231.73,376,212,363h0l-101.45-66.9a504.92,504.92,0,0,0-38.79,85.42,512.58,512.58,0,0,0-16.2,57.27q-1.76,8-3.28,16.09A507.56,507.56,0,0,0,45,583.19l142.65-1.1.53,24.49L46.83,607.64l14.3,189.08,144.22-.83.48,23.72-142.91.8L80.48,1052.6l117.31-4.46,16.8-.64,0,.67,1.09,18.58.21,3.58-16.67.63-117,4.41L98.65,1292.9h0l15.29,128.16,804.92-3.84L930,1291.92Zm-698.9-243.81L215.92,811l-1.06-16.58L202.35,598.79h0l-1.26-19.63,16.28-3.52L226.84,497l-20-9.1a350.54,350.54,0,0,1,41-109.42l7.35-12.06.11-.19c44.69-70,113.43-121.91,194.2-141.2l13.06-2.83,0,0a1.75,1.75,0,0,0,.33-.06l4.35,10,99.61-1.1,3.78-9.85,2.7.48,4.16.8c64.84,12.89,122.23,46.92,166,95,40.61,44.58,69.34,101,81.48,163.67l-23.34,11,9.06,79,19.76,4-33.17,471.2H797l-.17,6.63-13.59,193.07-539.48.87L232,1062.6h0l-.27-14.49Z" transform="translate(26.73 0)"/><path class="cls-17" d="M860.72,483.22c-.74-5.11-1.6-10.21-2.54-15.27a411.5,411.5,0,0,0-37.27-110.77l-.17-.3c-1.57-3.13-3.2-6.21-4.86-9.29,0-.11-.12-.22-.18-.34-.69-1.27-1.38-2.53-2.09-3.79-1.55-2.8-3.16-5.59-4.79-8.37-.08-.13-.15-.27-.24-.4l-.09-.14q-4.61-7.76-9.52-15.28a372.74,372.74,0,0,0-34.2-44.45c-44.76-49.84-100-84.38-160.54-101l-.66-.19-2.88-.77c-.29-.09-.59-.16-.89-.24l-.59-.16-5.65-1.39-.56-.13c-1.73-.42-3.47-.81-5.22-1.19l-.35-.08-.15,0-.19,0q-5.82-1.26-11.68-2.29c-2.43-.43-4.85-.85-7.27-1.22a319.67,319.67,0,0,0-107.93,2c-2.17.41-4.35.84-6.5,1.3-2.92.62-5.83,1.27-8.73,2q-8.28,2-16.44,4.42c-2.41.7-4.79,1.45-7.18,2.23C363.7,196.54,311,231.4,268,280.07a388.28,388.28,0,0,0-43.85,60.63,0,0,0,0,0,0,0q-2.41,4.13-4.73,8.3a4.91,4.91,0,0,0-.28.5q-3.33,6-6.4,12.07c-.27.47-.5.95-.72,1.42a419,419,0,0,0-37.77,111.92h0q-.61,3.26-1.16,6.51a429.21,429.21,0,0,0-5.3,100l.05.82.18,2.73.44,7V592l.07,1,.87,13.73L181.6,796l1.53,23.72,14.66,228.4,0,.09,1.45,22.71v0l14.25,221.8h0l600.11-.72,15.76-223,0-.11v-.1l1.61-22.75v0l.92-13,15.35-217V816L849,792.16v0l7.9-111.73v-.09l5.58-78.81v-.08l1-13.75.41-5.66.17-2.42.25-3.57v0q.62-8.85.89-17.67A426.62,426.62,0,0,0,860.72,483.22ZM243.8,1246.73,232,1062.6h0l-.27-14.49h-.67L215.92,811l-1.06-16.58L202.35,598.79h0l-1.26-19.63,16.28-3.52L226.84,497l-20-9.1a350.54,350.54,0,0,1,41-109.42l7.35-12.06.11-.19c44.69-70,113.43-121.91,194.2-141.2l13.06-2.83,0,0a1.75,1.75,0,0,0,.33-.06l4.35,10,99.61-1.1,3.78-9.85,2.7.48,4.16.8c64.84,12.89,122.23,46.92,166,95,40.61,44.58,69.34,101,81.48,163.67l-23.34,11,9.06,79,19.76,4-33.17,471.2H797l-.17,6.63-13.59,193.07Z" transform="translate(26.73 0)"/><path class="cls-18" d="M817.92,566.63l-8.91-78L801.69,492l9.06,79,19.76,4-33.17,471.2H797l-.17,6.63-13.59,193.07-539.48.87L232,1062.6h0l-.27-14.49h-.67L215.92,811l-1.06-16.58L202.35,598.79h0l-1.26-19.63,16.28-3.52L226.84,497l-7.3-3.33-9.31,77.77L193.58,575l1.29,20.1h0l12.93,200.26,1.09,17L224.52,1055h.68l.29,14.81h0L237.62,1258l551.83-.83,14-197.4.17-6.78h.32l34.21-482.34Z" transform="translate(26.73 0)"/><path class="cls-18" d="M869.15,476.69c-.75-5.24,8.16-9.37,7.21-14.54-7.32-39.78-30-79.21-47.92-114.67l-.16-.3c-1.61-3.22-3.29-6.38-5-9.53,0-.11-.12-.23-.18-.34-.7-1.3-1.41-2.61-2.14-3.89-1.58-2.87-3.24-5.73-4.91-8.59l-.23-.4-.1-.14c-3.15-5.31-6.38-10.54-9.76-15.68A379.52,379.52,0,0,0,771,263c-45.86-51.13-102.5-86.55-164.5-103.62-.22-.07-.44-.12-.67-.18-1-.27-2-.54-2.95-.79l-.92-.26-.6-.15-5.79-1.43-2.71-.66c-1-.26-2.09-.47-3.14-.68l-.43-.1a.37.37,0,0,1-.15,0l-.2,0c-4-.85-8-1.65-12-2.35-2.49-.45-5-.86-7.44-1.25a327.25,327.25,0,0,0-110.61,2c-2.24.43-4.45.88-6.67,1.33q-4.49,1-8.95,2-8.47,2.06-16.85,4.55-3.69,1.08-7.35,2.29C360,182.79,297.72,216.63,253.71,266.58c-16.92,19.19-23.66,41.92-36.63,64.06a0,0,0,0,0,0,0c-1.65,2.82-3.28,5.65-4.84,8.51-.1.16-.2.34-.3.52q-3.37,6.12-6.55,12.37c-.26.48-.51,1-.73,1.45-18.14,35.92-40.62,76-48.07,116l8.27,5.35c-.41,2.22.38-2.21,0,0a439.89,439.89,0,0,0-5.36,102.42l0,.84.19,2.79.45,7.13,0,.07.07,1,.9,14.06,12.56,193.83,1.58,24.27L190.46,1055v.1l1.51,23.23h0l34.14,223h0l587.5-9.33,15.6-218.64c.06-1.61-1.17-1.15,0,0l.16-4.39h0l9-16.09v0l-7.71-6.85,24.5-228.49v-.09l1.73-24.35v0l8.16-114.4v-.1l5.77-80.71v-.09l1-14.08.41-5.8.18-2.49.26-3.66v0q.64-9.08.91-18.1A436,436,0,0,0,869.15,476.69ZM864.25,576v0l-.25,3.57-.17,2.42-.41,5.66-1,13.75v.08l-5.58,78.81v.09L849,792.12v0L847.28,816V816l-15.35,217-.92,13v0l-1.61,22.75v.1l0,.11-15.76,223-600.11.72h0L199.26,1071v0l-1.45-22.71,0-.09-14.66-228.4L181.6,796l-12.16-189.3L168.57,593l-.07-1v-.06l-.44-7-.18-2.73-.05-.82a429.21,429.21,0,0,1,5.3-100q.54-3.25,1.16-6.51h0A419,419,0,0,1,212,363c.22-.47.45-.95.72-1.42q3.08-6.09,6.4-12.07a4.91,4.91,0,0,1,.28-.5q2.31-4.18,4.73-8.3a0,0,0,0,1,0,0A388.28,388.28,0,0,1,268,280.07C311,231.4,363.7,196.54,421.36,178c2.39-.78,4.77-1.53,7.18-2.23q8.16-2.43,16.44-4.42c2.9-.7,5.81-1.35,8.73-2,2.15-.46,4.33-.89,6.5-1.3a319.67,319.67,0,0,1,107.93-2c2.42.37,4.84.79,7.27,1.22q5.87,1,11.68,2.29l.19,0,.15,0,.35.08c1.75.38,3.49.77,5.22,1.19l.56.13,5.65,1.39.59.16c.3.08.6.15.89.24l2.88.77.66.19C664.72,190.44,720,225,764.77,274.82A372.74,372.74,0,0,1,799,319.27q4.92,7.51,9.52,15.28l.09.14c.09.13.16.27.24.4,1.63,2.78,3.24,5.57,4.79,8.37.71,1.26,1.4,2.52,2.09,3.79.06.12.13.23.18.34,1.66,3.08,3.29,6.16,4.86,9.29l.17.3A411.5,411.5,0,0,1,858.18,468c.94,5.06,1.8,10.16,2.54,15.27a426.62,426.62,0,0,1,4.42,75.09Q864.87,567.13,864.25,576Zm-55.57-90.25.33,2.88,16-7.52c-.18-.92-.37-1.85-.56-2.77Zm-601.81,2.13,12.67,5.77.35-2.83-12.47-5.68C207.23,486,207.05,487,206.87,487.86Z" transform="translate(26.73 0)"/><polygon class="cls-19" points="840.35 1292.06 240.23 1292.77 240.24 1292.76 270.53 1246.73 810.01 1245.86 840.35 1292.06"/><polygon class="cls-20" points="826.84 1361.8 840.35 1292.06 238.33 1301.33 256.9 1367.2 826.84 1361.8"/><polygon class="cls-21" points="489.67 222.08 489.35 222.14 489.31 222.16 476.25 224.99 475.58 225.12 468.31 207.43 455.27 175.72 471.71 171.29 471.71 171.31 477.7 188.25 478.09 189.36 483.17 203.7 489.63 221.93 489.67 222.08"/><polygon class="cls-21" points="282.05 366.19 281.94 366.38 274.59 378.44 274.35 378.83 260.64 372.73 238.77 363.02 238.74 363 239.49 361.6 245.91 349.53 246.17 349.03 250.69 340.56 250.69 340.54 250.76 340.6 250.91 340.73 270.95 357.12 282.05 366.19"/><polygon class="cls-21" points="229.09 598.79 229.08 598.79 214.82 602.23 196.18 606.72 195.3 593 195.23 591.99 194.78 584.97 194.6 582.24 194.56 581.42 201.78 580.9 227.82 578.98 227.84 579.16 229.09 598.79"/><polygon class="cls-21" points="242.66 810.95 232.44 813.68 209.86 819.74 208.33 796.02 241.59 794.37 242.66 810.95"/><polygon class="cls-21" points="258.49 1048.11 258.76 1062.6 258.75 1062.6 242.46 1066.75 225.99 1070.94 224.53 1048.22 258.49 1048.11"/><polygon class="cls-21" points="631 173.69 630.96 173.8 621.75 196.05 617.38 206.57 610.32 223.63 604.28 222.46 600.12 221.66 597.45 221.13 596.23 220.9 602.54 203.2 608.03 187.88 613.58 172.34 614.48 169.82 614.51 169.73 614.54 169.65 619.73 170.93 620.29 171.05 625.95 172.44 626.53 172.6 627.42 172.81 630.34 173.53 631 173.69"/><polygon class="cls-21" points="847.96 357.04 811.88 373.64 804.19 361.09 836.03 334.69 847.96 357.04"/><polygon class="cls-21" points="889.54 601.49 856.27 594.02 857.67 574.08 891.34 576 889.54 601.49"/><polygon class="cls-21" points="874.37 816.05 841.23 807.56 842.4 790.88 876.05 792.16 874.37 816.05"/><polygon class="cls-21" points="858.1 1046.04 858.1 1046.08 856.48 1068.9 856.13 1068.81 855.82 1068.73 836.32 1063.92 823.4 1060.73 823.77 1046.15 858.1 1046.04"/><polygon class="cls-22" points="610.24 187.85 475.52 189.38 436.26 2.81 650.77 0 610.24 187.85"/><polygon class="cls-23" points="610.23 187.85 604.19 203.57 597.45 221.13 597.42 221.18 593.64 231.03 494.03 232.13 489.68 222.08 489.63 221.93 481.86 204.04 475.52 189.39 610.23 187.85"/><polygon class="cls-24" points="213.71 478.82 201.3 584.92 26.73 586.28 43.74 427.06 213.71 478.82"/><polygon class="cls-25" points="253.57 496.96 244.11 575.63 227.84 579.16 214.39 582.09 214.38 582.09 201.31 584.92 201.62 582.18 201.78 580.9 213.72 478.81 233.6 487.86 253.57 496.96"/><polygon class="cls-26" points="1058.1 578.29 880.75 579.66 880.45 576.91 868.83 473.09 1005.59 429.4 1041.72 417.86 1057.82 575.53 1058.1 578.29"/><polygon class="cls-27" points="880.76 579.66 867.54 577.01 857.61 575.03 857.24 574.95 837.49 571 828.42 492.04 851.76 481.09 868.83 473.09 880.28 575.37 880.76 579.66"/><polygon class="cls-28" points="656.75 65.29 633.8 77 613.81 169.66 630.28 173.7 656.75 65.29"/><polygon class="cls-28" points="937.18 265.99 907.68 298.01 949.86 285.98 847.24 357.05 835.31 334.69 937.18 265.99"/><polygon class="cls-28" points="1013.31 600.56 946.76 587.24 889.74 587.67 888.83 601.5 1013.31 600.56"/><polygon class="cls-29" points="907.68 298.01 840.08 343.63 847.24 357.05 949.86 285.98 907.68 298.01"/><polygon class="cls-28" points="1058.1 578.29 946.76 587.24 889.74 587.67 890.9 579.58 1058.1 578.29"/><polygon class="cls-28" points="995.63 815.37 944.59 791.77 875.36 792.17 873.67 816.05 995.63 815.37"/><polygon class="cls-28" points="974.46 1072.59 948.6 1048.78 857.41 1046.04 855.8 1068.9 974.46 1072.59"/><polygon class="cls-21" points="139.13 593.43 26.73 586.28 195.18 584.97 195.37 593 139.13 593.43"/><polygon class="cls-21" points="1058.1 578.29 946.76 587.24 889.74 587.67 888.31 579.6 1058.1 578.29"/><polygon class="cls-28" points="429.55 68.13 452.35 79.25 471.71 171.3 455.26 175.72 429.55 68.13"/><polygon class="cls-28" points="150.5 274.35 179.41 305.54 137.3 296.11 238.75 363.01 250.68 340.55 150.5 274.35"/><polygon class="cls-28" points="73.56 607.65 139.13 593.43 195.37 593 196.17 606.72 73.56 607.65"/><polygon class="cls-29" points="179.41 305.54 245.91 349.53 238.75 363.01 137.3 296.11 179.41 305.54"/><polygon class="cls-28" points="26.73 586.28 139.13 593.43 195.37 593 194.27 584.98 26.73 586.28"/><polygon class="cls-28" points="89.64 820.42 140.03 796.42 208.33 796.03 209.85 819.75 89.64 820.42"/><polygon class="cls-28" points="108.93 1075.36 134.54 1051.57 224.53 1048.23 225.99 1070.95 108.93 1075.36"/><polygon class="cls-30" points="271.72 1367.28 279.53 1397.83 867.29 1397.7 887.2 1335.26 838.15 1303.41 826.84 1361.8 271.72 1367.28"/><polygon class="cls-31" points="1013.31 600.56 888.83 601.5 875.36 792.17 997.94 791.46 1013.31 600.56"/><polygon class="cls-32" points="224.53 1048.23 107.21 1052.6 89.64 820.42 209.85 819.75 224.53 1048.23"/><polygon class="cls-33" points="868.83 473.09 880.75 579.66 883.1 484.74 1034.63 431.72 1041.72 417.86 868.83 473.09"/><polygon class="cls-34" points="213.71 478.82 195.31 482.32 55.16 449.27 36.94 565.51 26.73 586.28 43.74 427.06 213.71 478.82"/><polygon class="cls-18" points="650.77 0 632.47 19.25 592.1 176.84 489.64 182.05 475.52 189.38 610.24 187.85 650.77 0"/><polygon class="cls-18" points="1013.31 600.56 997.94 791.46 875.36 792.17 987.21 776.91 1003.11 617.51 1013.31 600.56"/><polygon class="cls-18" points="225.99 1070.95 240.23 1292.77 156.15 1292.87 224.4 1281.61 221.19 1092.66 225.99 1070.95"/><polygon class="cls-18" points="209.85 819.75 224.53 1048.23 107.21 1052.6 120.37 1039.37 208.74 1034.64 200.32 848.23 209.85 819.75"/><polygon class="cls-18" points="888.53 1292 956.73 1291.92 974.46 1072.59 946.12 1280.3 888.53 1292"/><polygon class="cls-35" points="841.23 807.56 867.74 823.61 857.41 1046.04 878.51 827.22 983.57 825.42 995.63 815.37 873.67 816.05 841.23 807.56"/><polygon class="cls-36" points="436.26 2.81 475.52 189.38 489.64 182.05 457.58 15.33 632.47 19.25 650.77 0 436.26 2.81"/><polygon class="cls-37" points="883.6 680.4 894.26 611.58 1005.68 600.62 888.83 601.5 869.74 597.04 887.44 609.52 883.6 680.4"/><polygon class="cls-38" points="238.33 1301.33 240.23 1292.77 840.35 1292.06 828.36 1303.42 238.33 1301.33"/><polygon class="cls-18" points="828.36 1303.42 810.29 1350.75 271.53 1356.79 256.9 1367.2 826.84 1361.8 840.35 1292.06 828.36 1303.42"/><g class="cls-39"><g class="cls-40"><polygon class="cls-41" points="1077.18 723.62 881.07 738.53 861.88 987.51 1018.92 986.88 1077.18 723.62"/><polygon class="cls-41" points="198.15 637.51 0 671.26 5.1 990.93 220.51 990.07 198.15 637.51"/><polygon class="cls-41" points="1044.32 1115.29 854.27 1123.83 850.29 1160.91 1019.84 1160.5 1044.32 1115.29"/><path class="cls-41" d="M770.26,85.69,684.5,208.26s52.27,31.25,80.27,66.56l147.47-109Z" transform="translate(26.73 0)"/></g></g><polygon class="cls-42" points="209.86 819.74 89.65 820.41 104.89 1019.99 100.42 830.87 191.77 827.94 209.86 819.74"/><polygon class="cls-18" points="956.73 1291.92 945.81 1320.16 929.38 1403.22 145.73 1411.4 140.67 1421.06 945.59 1417.22 956.73 1291.92"/><polygon class="cls-43" points="825.55 1269.52 822.26 1264.52 682.6 1264.72 675.57 1246.08 669.4 1246.09 674.9 1264.73 536.86 1264.93 538.24 1246.3 532.91 1246.31 530.87 1264.94 406.12 1265.12 415.37 1246.5 407.4 1248.07 399.38 1265.13 258.29 1265.33 252.28 1274.47 395.57 1273.23 380.08 1298.26 391.66 1365.32 393.45 1361.76 389.65 1298.25 402.11 1273.18 530.09 1272.07 527.06 1299.75 529.11 1363.09 532.61 1363.08 534.41 1298.08 536.34 1272.02 676.69 1270.81 684.68 1297.91 681.45 1358.86 683.51 1363.22 697.58 1297.9 684.87 1270.73 825.55 1269.52"/><polygon class="cls-44" points="682.6 1264.72 675.57 1246.08 685.85 1259.73 818.18 1262.58 822.26 1264.52 682.6 1264.72"/><polygon class="cls-45" points="532.91 1246.31 530.87 1264.94 406.12 1265.12 415.37 1246.5 532.91 1246.31"/><polygon class="cls-46" points="534.39 1304.26 535.89 1354.29 681.8 1352.19 684.38 1303.58 534.39 1304.26"/><polygon class="cls-45" points="395.57 1273.23 386.46 1292.6 240.24 1292.77 252.28 1274.47 395.57 1273.23"/><path class="cls-18" d="M226.3,1337.44s225,22.73,377.87-33.29l197.45-.73,12-11.36-13.51,69.74-569.95,5.4Z" transform="translate(26.73 0)"/><path class="cls-47" d="M213.51,1292.77s302.31-27.85,415.67-37.33C743,1245.92,786,1250.06,786,1250.06l-3.46-7.79-538.78,4.46Z" transform="translate(26.73 0)"/><polygon class="cls-48" points="270.34 1366.3 286.3 1377.82 835.84 1376.19 847.08 1309.21 838.15 1303.41 826.84 1361.8 270.34 1366.3"/><polygon class="cls-49" points="534.41 1298.08 682.87 1295.8 684.38 1303.58 534.4 1302.38 534.41 1298.08"/><polygon class="cls-50" points="269.56 1249.15 811.18 1247.86 810.02 1244.99 270.53 1246.73 269.56 1249.15"/><path class="cls-51" d="M808.58,334.69l-31.12,26.4c-310.16-129-338,302.88-338,302.88l-59.9,581.29-166.07,47.51L167.54,585l7-.05L187,478.81,174.28,475C187.85,402.4,220,334.45,268,280.07c43-48.68,95.66-83.53,153.32-102.13L445,171.3l3.81,18.09,134.71-1.53,3.58-18.2.21,0c67.09,14.55,128.55,50.72,177.48,105.2A372.42,372.42,0,0,1,799,319.27l9.53,15.27Z" transform="translate(26.73 0)"/><polygon class="cls-18" points="1041.72 554.28 895.08 570.16 880.75 579.66 1058.1 578.29 1041.72 417.86 1033.16 457.22 1041.72 554.28"/><g class="cls-52"><path class="cls-53" d="M876.74,860.85s9.69-3.9,10.67-1.27.39,7.71-5.61,9.36-11.13,9.77-11.13,9.77-2.18-12.14.38-12.56S876.74,860.85,876.74,860.85Z" transform="translate(26.73 0)"/><path class="cls-53" d="M894.73,873.73c5,.59,10.33,5.22,4.77,6.46a14.26,14.26,0,0,1-10-1.57Z" transform="translate(26.73 0)"/><path class="cls-53" d="M877.31,913.79c-7.45,5.47-10.56,3.22-11.09,13.9s1.21,18.47,4.62,23.06,20.71,2.51,16.59-6.08-11.64-11-10-15.2,8.47-7.67,6.48-11.68S877.31,913.79,877.31,913.79Z" transform="translate(26.73 0)"/><path class="cls-53" d="M219.88,266.72c7.94-2.4,16,2.8,9.09,6.51s-5.11,8.9-15.68,7.07-22.39-14.4-10.83-14S219.88,266.72,219.88,266.72Z" transform="translate(26.73 0)"/><path class="cls-53" d="M215.27,303.07c1.43,1,3.68,8.51.16,8.55s-15,1.47-12.15-4.15S215.27,303.07,215.27,303.07Z" transform="translate(26.73 0)"/></g><polygon class="cls-18" points="213.72 478.81 201.31 493.63 186.22 577.33 44.94 577.33 26.73 586.28 201.3 584.93 213.72 478.81"/><path class="cls-54" d="M957.59,1317.69l25.24-6.48,63.55-711.66s16.75-165.72-22.65-271.14c-21.89-58.57-44.36-91.81-64.86-108.76-10.38-8.59-26-16.51-42-17.84l-39.19-3.27Z" transform="translate(26.73 0)"/><path class="cls-55" d="M957.59,1317.69l25.24-6.48,63.55-711.66s16.75-165.72-22.65-271.14c-21.89-58.57-44.36-91.81-64.86-108.76-10.38-8.59-26-16.51-42-17.84l-39.19-3.27Z" transform="translate(26.73 0)"/><path class="cls-56" d="M697.37,519.5c-1.25,17.21-1.91,34.56-2,51.93l-.11,40.91h0l-1.66,626.13h0l2,.58,5.91,1.77,4.63,1.39L937,1311.5l5.52,1.65L955.2,1317l.23.07,2.16.64,6.91-82.48,54.75-652.42c9-107.62-5.44-214-39.62-288.88-15.6-34.19-34.26-59.69-54.78-75.73-18.13-14.18-37.73-21-58-19.84-1.32.07-2.61.17-3.93.32l-1.61.19-1.6.22-1.6.25c-1.07.17-2.14.37-3.2.6h-.06c-1,.21-2.09.46-3.12.72-2.13.52-4.23,1.14-6.34,1.85l-1.58.53-1.56.57c-1,.38-2.1.79-3.14,1.24q-2.35,1-4.69,2.09-3.11,1.47-6.18,3.22l-1.54.88q-2.31,1.33-4.59,2.82c-2,1.31-4.06,2.71-6,4.18-3,2.22-6,4.6-9,7.18l-1.47,1.29c-.49.43-1,.88-1.47,1.33-2,1.79-3.9,3.65-5.8,5.58q-2.19,2.17-4.31,4.49l-1.41,1.55c-.49.52-1,1-1.43,1.58q-2.06,2.29-4,4.71c-1,1.18-2,2.38-3,3.6l-1.38,1.75q-2.8,3.61-5.57,7.44c-.72,1-1.44,2-2.16,3.06-.58.81-1.14,1.64-1.71,2.47-.45.65-.89,1.3-1.32,2-1.33,2-2.62,4-3.92,6-.64,1-1.27,2-1.89,3l-1.62,2.65c-.52.89-1.06,1.79-1.59,2.69s-.92,1.58-1.38,2.37c-.16.27-.31.54-.46.82-.44.76-.89,1.54-1.32,2.32-.79,1.4-1.56,2.8-2.34,4.24-.39.71-.77,1.41-1.14,2.13q-4.43,8.28-8.62,17.24c-.44.93-.87,1.86-1.29,2.8s-.87,1.87-1.28,2.8q-1.92,4.25-3.76,8.58-2.46,5.81-4.79,11.77c-.66,1.69-1.32,3.41-2,5.12-1,2.6-1.95,5.22-2.9,7.86-.25.73-.52,1.46-.77,2.19q-.55,1.54-1.08,3.09c-.23.67-.47,1.34-.69,2-.48,1.41-1,2.82-1.43,4.24-.36,1.05-.71,2.1-1,3.16q-1,3.16-2,6.36c-.66,2.13-1.32,4.27-2,6.43l-1.89,6.5c-.32,1.08-.62,2.18-.92,3.28-1.22,4.37-2.4,8.8-3.53,13.26-.52,2-1,4-1.52,6.05-.4,1.7-.81,3.39-1.21,5.11-.58,2.46-1.13,4.94-1.7,7.43-.22,1-.43,1.92-.62,2.87-.25,1.13-.49,2.25-.73,3.38-.17.8-.34,1.59-.51,2.4-.68,3.28-1.34,6.6-2,9.91-.27,1.34-.52,2.68-.77,4-.07.42-.16.85-.23,1.27-.27,1.43-.53,2.85-.77,4.28l-.42,2.44c-.24,1.31-.46,2.62-.68,3.93-.18,1.05-.36,2.12-.52,3.19-.14.85-.29,1.7-.42,2.55-.27,1.66-.53,3.32-.77,5s-.55,3.6-.8,5.41q-1.56,10.92-2.82,22c-.21,1.76-.4,3.52-.58,5.29q-.6,5.72-1.12,11.45c-.14,1.59-.27,3.16-.41,4.75-.11,1.37-.21,2.73-.32,4.1S697.45,518.28,697.37,519.5Z" transform="translate(26.73 0)"/><path class="cls-57" d="M697.37,519.5c-1.25,17.21-1.91,34.56-2,51.93l-.11,40.91h0l-1.64,626.13h0l2,.58,2.25-654.47c.33-95.82,18.79-191.41,51.68-262.9C775,266.45,807,229.52,841.34,216.21a80.67,80.67,0,0,1,20.44-5.09l.68-.07c43.68-4.43,84.51,29.62,114,96.4,33.31,75.35,47.32,182.06,38.36,289.9L955.2,1317l.23.07,2.16.65h0l6.91-82.48,54.75-652.42c9-107.62-5.44-214-39.62-288.88-15.6-34.19-34.26-59.69-54.78-75.73-18.16-14.19-37.79-21-58.05-19.82-1.27.06-2.55.16-3.84.31l-1.61.18-1.6.22-1.6.25c-1.07.18-2.13.38-3.2.6h-.06c-1,.22-2.08.47-3.12.72q-3.18.8-6.34,1.85l-1.58.53-1.56.57c-1.06.4-2.1.81-3.14,1.24q-2.35,1-4.69,2.09c-2.07,1-4.13,2.07-6.18,3.22l-1.54.88c-1.53.89-3.06,1.84-4.59,2.82-2,1.32-4,2.71-6,4.18-3,2.22-6,4.62-9,7.18l-1.47,1.29c-.49.43-1,.88-1.47,1.33-2,1.78-3.89,3.65-5.8,5.58-1.45,1.45-2.89,2.94-4.31,4.49l-1.41,1.55c-.49.52-1,1-1.43,1.58q-2,2.29-4,4.71c-1,1.18-2,2.38-3,3.6l-1.38,1.75q-2.8,3.61-5.57,7.44c-.72,1-1.44,2-2.16,3.06-.58.81-1.14,1.64-1.71,2.47-.45.65-.89,1.3-1.32,2-1.33,2-2.62,4-3.92,6-.64,1-1.27,2-1.89,3l-1.62,2.65c-.52.89-1.06,1.79-1.59,2.69s-.92,1.58-1.38,2.37c-.16.27-.31.54-.46.82-.44.76-.89,1.54-1.32,2.32-.79,1.4-1.56,2.8-2.34,4.24-.39.71-.77,1.41-1.14,2.13q-4.43,8.28-8.62,17.24c-.44.93-.87,1.86-1.29,2.8s-.87,1.87-1.28,2.8q-1.92,4.25-3.76,8.58-2.46,5.81-4.79,11.77c-.66,1.69-1.32,3.41-2,5.12-1,2.6-1.95,5.22-2.9,7.86-.25.73-.52,1.46-.77,2.19q-.55,1.54-1.08,3.09c-.27.73-.52,1.47-.77,2.2h0c-.46,1.34-.91,2.69-1.35,4-.36,1.05-.71,2.1-1,3.16q-1,3.16-2,6.36c-.66,2.13-1.32,4.27-2,6.43s-1.27,4.32-1.89,6.5c-.32,1.08-.62,2.18-.92,3.28-1.23,4.37-2.4,8.8-3.53,13.26-.52,2-1,4-1.52,6.05-.4,1.7-.81,3.39-1.21,5.11q-.87,3.69-1.7,7.43c-.22,1-.43,1.92-.62,2.87-.25,1.13-.49,2.25-.73,3.38-.17.8-.34,1.59-.51,2.4-.68,3.28-1.34,6.6-2,9.91-.27,1.34-.52,2.68-.77,4-.07.42-.16.85-.23,1.27-.27,1.43-.53,2.85-.77,4.28l-.42,2.44c-.24,1.31-.46,2.62-.68,3.93-.18,1.05-.36,2.12-.52,3.19-.14.85-.29,1.7-.42,2.55-.27,1.66-.53,3.32-.77,5s-.55,3.6-.8,5.41q-1.56,10.92-2.82,22c-.21,1.76-.4,3.52-.58,5.29q-.6,5.72-1.12,11.45c-.14,1.59-.27,3.16-.41,4.75-.11,1.37-.21,2.73-.32,4.1S697.45,518.28,697.37,519.5Z" transform="translate(26.73 0)"/><path class="cls-58" d="M706.15,1242.23l236.34,70.92L997.41,618c16.69-211.22-47.39-389.29-136-381.16h0c-83.13,7.63-149.86,178.09-151.1,367.45Z" transform="translate(26.73 0)"/><g class="cls-59"><path class="cls-60" d="M706.15,1242.23l236.34,70.92c-110.61-240.54-192.8-471.77-232.18-708.88Z" transform="translate(26.73 0)"/></g><path class="cls-61" d="M991.24,617.69,937,1311.5l5.52,1.65L997.4,618c16.69-211.23-47.37-389.3-136-381.17-1,.09-1.93.19-2.9.35C945.26,233.25,1007.54,409.38,991.24,617.69Z" transform="translate(26.73 0)"/><path class="cls-62" d="M705.34,604l-3.82,636.82,4.63,1.39,4.16-638c.63-96.33,17.92-186.79,45.63-254C782.43,286,818.58,242.69,858.5,237.17c-1,0-1.92.09-2.89.18-40.89,3.75-78,47.54-105,113.2C723.09,417.61,705.91,507.88,705.34,604Z" transform="translate(26.73 0)"/><polygon class="cls-63" points="973.8 1256.77 969.21 1313.15 728.26 1240.85 728.53 1194.42 973.8 1256.77"/><polygon class="cls-64" points="733.48 1191.67 965.68 1250.13 973.8 1256.77 728.53 1194.42 733.48 1191.67"/><polygon class="cls-62" points="969.21 1313.15 964.39 1302.56 732.93 1233.87 731.53 1198.83 728.53 1194.42 728.26 1240.85 969.21 1313.15"/><path class="cls-65" d="M832.55,331.3l-9.38,247-83.78-3-.18-7.88c.49-120.25,37.54-214.87,93.34-236.11Z" transform="translate(26.73 0)"/><path class="cls-66" d="M813.63,556.78l7.25-197.31c-19.59,12.21-36.22,35.11-48.69,66.93-13.88,35.42-21.73,79.66-23,128.58Z" transform="translate(26.73 0)"/><polygon class="cls-67" points="847.4 644.41 839.04 864.55 767.47 854.2 767.55 639.54 847.4 644.41"/><polygon class="cls-68" points="829.83 843.35 836.4 664.51 777.2 660.44 777.03 836.1 829.83 843.35"/><polygon class="cls-69" points="836.51 931.44 826.78 1187.7 763.21 1170.63 763.85 919.07 836.51 931.44"/><polygon class="cls-70" points="817.95 1166.88 825.95 949.13 773.37 939.78 772.24 1154.93 817.95 1166.88"/><path class="cls-71" d="M883.16,328.41l-11,251.65L965,583.39l1-8.53c10.58-131-23.92-230.62-82.81-246.45Z" transform="translate(26.73 0)"/><path class="cls-72" d="M955.43,560.73c3-52.83-2.11-100.52-14.83-138-11.2-33-27.55-55.78-47.56-66.61l-9.1,202.64Z" transform="translate(26.73 0)"/><polygon class="cls-73" points="895.97 647.37 886.2 871.38 964.65 882.73 984.15 652.75 895.97 647.37"/><polygon class="cls-74" points="955.4 860.56 971.05 673.78 901.29 668.98 897.48 852.62 955.4 860.56"/><polygon class="cls-75" points="883.23 939.39 871.86 1199.81 944.48 1219.31 962.92 952.96 883.23 939.39"/><polygon class="cls-76" points="938.43 1198.39 950.24 971.21 892.62 960.97 882.61 1183.79 938.43 1198.39"/><polygon class="cls-77" points="825.95 949.13 773.37 939.78 779.15 952.4 818.98 962.63 813.37 1153.59 817.95 1166.88 825.95 949.13"/><polygon class="cls-61" points="772.24 1154.93 773.37 939.78 779.15 952.4 778.26 1144.97 813.37 1153.59 817.95 1166.88 772.24 1154.93"/><polygon class="cls-78" points="779.15 952.4 778.26 1144.97 813.37 1153.59 818.98 962.63 779.15 952.4"/><polygon class="cls-79" points="952.32 971.58 892.62 960.97 898.79 974.19 945.68 982.74 933.6 1184.47 938.43 1198.39 952.32 971.58"/><polygon class="cls-61" points="882.61 1183.79 892.62 960.97 898.79 974.19 888.61 1173.33 933.6 1184.47 938.43 1198.39 882.61 1183.79"/><polygon class="cls-80" points="898.79 974.19 888.61 1173.33 933.6 1184.47 945.68 982.74 898.79 974.19"/><polygon class="cls-81" points="837.03 664.56 777.2 660.44 783.71 675.86 829 683.08 825.27 826.88 830.44 843.43 837.03 664.56"/><polygon class="cls-61" points="777.03 836.1 777.2 660.44 783.71 675.86 785.03 822.13 825.27 826.88 830.44 843.43 777.03 836.1"/><polygon class="cls-82" points="783.71 675.86 785.03 822.13 825.28 826.88 829.01 683.08 783.71 675.86"/><polygon class="cls-83" points="971.21 673.8 901.44 668.99 909.48 685.25 962.76 687.79 950.55 845.99 955.4 860.56 971.21 673.8"/><polygon class="cls-61" points="896.71 852.51 901.29 668.98 909.48 685.25 904.5 837.82 950.55 845.99 955.4 860.56 896.71 852.51"/><polygon class="cls-84" points="909.48 685.25 904.5 837.82 950.55 845.99 962.76 687.79 909.48 685.25"/><path class="cls-61" d="M806.36,538.77l7.27,18L749.17,555s-1.42-145.4,71.71-195.51l-9.5,19.64s-44.76,34.4-53.92,158.63Z" transform="translate(26.73 0)"/><polygon class="cls-85" points="847.61 359.47 840.36 556.78 833.09 538.77 838.11 379.11 847.61 359.47"/><polygon class="cls-61" points="982.16 560.73 972.16 537.54 923.92 536.59 924.31 382.07 919.77 356.1 910.67 558.74 982.16 560.73"/><path class="cls-86" d="M897.58,382.07s49.75,28.59,47.85,155.47l10,23.19S963.76,390.57,893,356.1Z" transform="translate(26.73 0)"/><polygon class="cls-87" points="766.13 575.29 773.17 567.03 841.89 570.33 849.9 578.3 766.13 575.29"/><polygon class="cls-88" points="767.47 854.2 771.55 849.81 832.55 858.52 839.04 864.55 767.47 854.2"/><polygon class="cls-89" points="763.21 1170.63 768.63 1164.7 821.63 1178.78 826.78 1187.7 763.21 1170.63"/><polygon class="cls-90" points="871.86 1199.81 879.83 1195.38 940.13 1211.42 944.48 1219.31 871.86 1199.81"/><polygon class="cls-91" points="964.65 882.73 960.56 873.36 892.65 863.75 886.2 871.38 964.65 882.73"/><polygon class="cls-92" points="898.91 580.06 905.63 571.35 984.68 573.93 991.75 583.39 898.91 580.06"/><polygon class="cls-93" points="764.4 633.2 771.95 647.68 842.9 652.22 835.48 850.41 839.04 864.55 849.7 638.19 764.4 633.2"/><polygon class="cls-93" points="964.65 882.73 960.56 873.36 978.25 665.93 901.65 660.89 892.95 640.73 988.33 646.31 964.65 882.73"/><polygon class="cls-93" points="944.48 1219.31 940.13 1211.42 958.9 960.25 885.5 947.54 877.11 927.73 968.52 942.93 944.48 1219.31"/><polygon class="cls-93" points="826.9 1184.52 821.63 1178.78 833.84 938.6 766.87 927.01 758.99 908.1 842.37 921.96 826.9 1184.52"/><path class="cls-94" d="M811.38,379.11l-5,159.66-48.9-1S760.62,434.79,811.38,379.11Z" transform="translate(26.73 0)"/><path class="cls-95" d="M897.58,382.07l-.39,154.52,48.24.95S951.73,409.14,897.58,382.07Z" transform="translate(26.73 0)"/><path class="cls-96" d="M836.72,616.49c-.38,9.53,3.2,17.46,8,17.73s9.09-7.26,9.49-16.85-3.22-17.6-8.08-17.81S837.1,606.94,836.72,616.49Z" transform="translate(26.73 0)"/><path class="cls-97" d="M838.53,614.85c-.35,8.59,2.88,15.73,7.22,16s8.19-6.55,8.55-15.19-2.9-15.84-7.27-16S838.87,606.24,838.53,614.85Z" transform="translate(26.73 0)"/><path class="cls-96" d="M838.53,614.84c-.35,8.6,2.88,15.74,7.23,16,3.9.21,7.38-5.22,8.32-12.57-1.18,5.75-4.1,9.79-7.33,9.62-4-.22-7-6.79-6.64-14.67.25-6.39,2.58-11.73,5.58-13.44C841.92,600.84,838.83,607.13,838.53,614.84Z" transform="translate(26.73 0)"/><path class="cls-98" d="M841.56,614.29c-.23,5.7,1.92,10.43,4.79,10.59s5.42-4.36,5.66-10.07-1.92-10.48-4.81-10.61S841.79,608.59,841.56,614.29Z" transform="translate(26.73 0)"/><path class="cls-99" d="M917,919.47c-.56,7.61,5.62,14.37,13.84,15.14s15.52-4.82,16.14-12.5-5.66-14.55-14-15.24S917.58,911.84,917,919.47Z" transform="translate(26.73 0)"/><path class="cls-100" d="M913.15,908.25c-.67,8.42,7.4,15.94,18.07,16.83s20.07-5.23,20.81-13.72-7.46-16.11-18.25-16.93S913.83,899.81,913.15,908.25Z" transform="translate(26.73 0)"/><path class="cls-99" d="M913.15,908.25c-.67,8.42,7.4,15.94,18.07,16.83,9.62.8,18.12-4,20.3-11.16-2.8,5.51-9.94,9.06-17.89,8.4-9.82-.81-17.25-7.73-16.63-15.46.51-6.27,6.14-11.2,13.49-12.46C921.22,894.92,913.76,900.69,913.15,908.25Z" transform="translate(26.73 0)"/><g class="cls-101"><path class="cls-102" d="M926.18,906c-.41,5,4.38,9.45,10.72,10s11.87-3.12,12.3-8.14-4.39-9.51-10.77-10S926.59,901,926.18,906Z" transform="translate(26.73 0)"/></g><g class="cls-103"><polygon class="cls-104" points="829.01 683.08 825.28 826.88 785.03 822.13 783.71 675.86 829.01 683.08"/></g><g class="cls-105"><polygon class="cls-106" points="818.98 962.63 813.37 1153.59 778.26 1144.97 779.15 952.4 818.98 962.63"/></g><g class="cls-107"><polygon class="cls-108" points="898.79 974.19 908.73 977.2 924.05 1182.26 888.61 1173.33 898.79 974.19"/></g><g class="cls-109"><path class="cls-110" d="M809.72,420.34l-3.36,118.43-48.9-1s3.07-93.95,42.21-145.45Z" transform="translate(26.73 0)"/></g><path class="cls-111" d="M697.37,519.5c-1.25,17.21-1.91,34.56-2,51.93l-.11,40.91h0l-1.66,626.13h0l2,.58,5.91,1.77,4.63,1.39L937,1311.5l5.52,1.65L955.2,1317l.23.07,2.16.64,6.91-82.48,54.75-652.42c9-107.62-5.44-214-39.62-288.88-15.6-34.19-34.26-59.69-54.78-75.73-18.13-14.18-37.73-21-58-19.84-1.32.07-2.61.17-3.93.32l-1.61.19-1.6.22-1.6.25c-1.07.17-2.14.37-3.2.6h-.06c-1,.21-2.09.46-3.12.72-2.13.52-4.23,1.14-6.34,1.85l-1.58.53-1.56.57c-1,.38-2.1.79-3.14,1.24q-2.35,1-4.69,2.09-3.11,1.47-6.18,3.22l-1.54.88q-2.31,1.33-4.59,2.82c-2,1.31-4.06,2.71-6,4.18-3,2.22-6,4.6-9,7.18l-1.47,1.29c-.49.43-1,.88-1.47,1.33-2,1.79-3.9,3.65-5.8,5.58q-2.19,2.17-4.31,4.49l-1.41,1.55c-.49.52-1,1-1.43,1.58q-2.06,2.29-4,4.71c-1,1.18-2,2.38-3,3.6l-1.38,1.75q-2.8,3.61-5.57,7.44c-.72,1-1.44,2-2.16,3.06-.58.81-1.14,1.64-1.71,2.47-.45.65-.89,1.3-1.32,2-1.33,2-2.62,4-3.92,6-.64,1-1.27,2-1.89,3l-1.62,2.65c-.52.89-1.06,1.79-1.59,2.69s-.92,1.58-1.38,2.37c-.16.27-.31.54-.46.82-.44.76-.89,1.54-1.32,2.32-.79,1.4-1.56,2.8-2.34,4.24-.39.71-.77,1.41-1.14,2.13q-4.43,8.28-8.62,17.24c-.44.93-.87,1.86-1.29,2.8s-.87,1.87-1.28,2.8q-1.92,4.25-3.76,8.58-2.46,5.81-4.79,11.77c-.66,1.69-1.32,3.41-2,5.12-1,2.6-1.95,5.22-2.9,7.86-.25.73-.52,1.46-.77,2.19q-.55,1.54-1.08,3.09c-.23.67-.47,1.34-.69,2-.48,1.41-1,2.82-1.43,4.24-.36,1.05-.71,2.1-1,3.16q-1,3.16-2,6.36c-.66,2.13-1.32,4.27-2,6.43l-1.89,6.5c-.32,1.08-.62,2.18-.92,3.28-1.22,4.37-2.4,8.8-3.53,13.26-.52,2-1,4-1.52,6.05-.4,1.7-.81,3.39-1.21,5.11-.58,2.46-1.13,4.94-1.7,7.43-.22,1-.43,1.92-.62,2.87-.25,1.13-.49,2.25-.73,3.38-.17.8-.34,1.59-.51,2.4-.68,3.28-1.34,6.6-2,9.91-.27,1.34-.52,2.68-.77,4-.07.42-.16.85-.23,1.27-.27,1.43-.53,2.85-.77,4.28l-.42,2.44c-.24,1.31-.46,2.62-.68,3.93-.18,1.05-.36,2.12-.52,3.19-.14.85-.29,1.7-.42,2.55-.27,1.66-.53,3.32-.77,5s-.55,3.6-.8,5.41q-1.56,10.92-2.82,22c-.21,1.76-.4,3.52-.58,5.29q-.6,5.72-1.12,11.45c-.14,1.59-.27,3.16-.41,4.75-.11,1.37-.21,2.73-.32,4.1S697.45,518.28,697.37,519.5Z" transform="translate(26.73 0)"/><polygon class="cls-51" points="795.91 1261.06 839.83 1290.67 826.17 1361.19 857.77 1417.64 946.23 1417.21 955.26 1308.66 795.91 1261.06"/><path class="cls-51" d="M729.26,356c13.91-30.71,25-58.88,39-83.9l-62.08,970.17-34.58-3.83,19.5-693.82s3.52-112,38.2-188.61Z" transform="translate(26.73 0)"/><path class="cls-51" d="M775.05,259a96.34,96.34,0,0,1-6.83,13.05Z" transform="translate(26.73 0)"/></g></g></g></svg>