<svg xmlns="http://www.w3.org/2000/svg" xmlns:xlink="http://www.w3.org/1999/xlink" viewBox="0 0 1077.18 1421.06"><defs><style>.cls-1{mask:url(#mask);}.cls-10,.cls-12,.cls-18,.cls-2,.cls-30,.cls-4,.cls-43,.cls-45,.cls-47,.cls-48,.cls-50,.cls-51,.cls-6,.cls-61,.cls-64,.cls-66,.cls-68,.cls-70,.cls-72,.cls-74,.cls-8,.cls-92,.cls-95,.cls-97,.cls-98{mix-blend-mode:multiply;}.cls-2{fill:url(#linear-gradient);}.cls-3{mask:url(#mask-2);}.cls-4{fill:url(#linear-gradient-2);}.cls-5{mask:url(#mask-3);}.cls-6{fill:url(#linear-gradient-3);}.cls-7{mask:url(#mask-4);}.cls-8{fill:url(#linear-gradient-4);}.cls-9{mask:url(#mask-5);}.cls-10{fill:url(#linear-gradient-5);}.cls-11{mask:url(#mask-6);}.cls-12{fill:url(#linear-gradient-6);}.cls-13{fill:none;}.cls-14{isolation:isolate;}.cls-15{fill:#0e263a;}.cls-16{fill:url(#linear-gradient-7);}.cls-17{fill:url(#linear-gradient-8);}.cls-18{fill:#e2d3c5;}.cls-19{fill:url(#linear-gradient-9);}.cls-20{fill:url(#linear-gradient-10);}.cls-21{fill:#442917;}.cls-22{fill:url(#linear-gradient-11);}.cls-23{fill:url(#linear-gradient-12);}.cls-24{fill:url(#linear-gradient-13);}.cls-25{fill:url(#linear-gradient-14);}.cls-26{fill:url(#linear-gradient-15);}.cls-27{fill:url(#linear-gradient-16);}.cls-28{fill:#7c3f1d;}.cls-29{fill:#775530;}.cls-30{fill:#c7cfd1;}.cls-31{fill:url(#linear-gradient-17);}.cls-32{fill:url(#linear-gradient-18);}.cls-103,.cls-105,.cls-107,.cls-109,.cls-33,.cls-34,.cls-37,.cls-39,.cls-56,.cls-59,.cls-76,.cls-78,.cls-80,.cls-82,.cls-84,.cls-85{mix-blend-mode:overlay;}.cls-33{fill:url(#linear-gradient-19);}.cls-34{fill:url(#linear-gradient-20);}.cls-35{fill:#f2c2a0;}.cls-36{fill:#ffe8d2;}.cls-37{fill:url(#linear-gradient-21);}.cls-38{fill:url(#linear-gradient-22);}.cls-39{opacity:0.45;}.cls-40{clip-path:url(#clip-path);}.cls-41{fill:#48494e;}.cls-42{fill:#f2c9a0;}.cls-43{fill:url(#linear-gradient-23);}.cls-44{fill:url(#linear-gradient-24);}.cls-45{fill:#a37657;}.cls-45,.cls-52{opacity:0.24;}.cls-46{fill:#fff;opacity:0.31;mix-blend-mode:soft-light;}.cls-47{fill:#d3bca9;opacity:0.5;}.cls-48{fill:#b28d6f;}.cls-49{fill:url(#linear-gradient-25);}.cls-50{fill:#bdc4c6;}.cls-51{fill:#93a5aa;}.cls-53{fill:#7f3009;}.cls-54{fill:url(#linear-gradient-26);}.cls-55{fill:url(#linear-gradient-27);}.cls-56,.cls-78,.cls-82,.cls-85{opacity:0.41;}.cls-56{fill:url(#linear-gradient-28);}.cls-57{fill:url(#linear-gradient-29);}.cls-58{mask:url(#mask-7);}.cls-59{opacity:0.29;fill:url(#linear-gradient-30);}.cls-60{fill:#00318c;}.cls-61{fill:#90e4f8;}.cls-62{fill:url(#linear-gradient-31);}.cls-63{fill:url(#linear-gradient-32);}.cls-64,.cls-66,.cls-68,.cls-70,.cls-72,.cls-74{opacity:0.39;}.cls-64{fill:url(#linear-gradient-33);}.cls-65{fill:url(#linear-gradient-34);}.cls-66{fill:url(#linear-gradient-35);}.cls-67{fill:url(#linear-gradient-36);}.cls-68{fill:url(#linear-gradient-37);}.cls-69{fill:url(#linear-gradient-38);}.cls-70{fill:url(#linear-gradient-39);}.cls-71{fill:url(#linear-gradient-40);}.cls-72{fill:url(#linear-gradient-41);}.cls-73{fill:url(#linear-gradient-42);}.cls-74{fill:url(#linear-gradient-43);}.cls-75{fill:url(#linear-gradient-44);}.cls-103,.cls-105,.cls-76,.cls-80{opacity:0.37;}.cls-76{fill:url(#linear-gradient-45);}.cls-77{fill:url(#linear-gradient-46);}.cls-78{fill:url(#linear-gradient-47);}.cls-79{fill:url(#linear-gradient-48);}.cls-80{fill:url(#linear-gradient-49);}.cls-81{fill:url(#linear-gradient-50);}.cls-82{fill:url(#linear-gradient-51);}.cls-83{fill:url(#linear-gradient-52);}.cls-84{opacity:0.57;fill:url(#linear-gradient-53);}.cls-85{fill:url(#linear-gradient-54);}.cls-86{fill:url(#linear-gradient-55);}.cls-87{fill:url(#linear-gradient-56);}.cls-88{fill:url(#linear-gradient-57);}.cls-89{fill:url(#linear-gradient-58);}.cls-90{fill:url(#linear-gradient-59);}.cls-91{fill:url(#linear-gradient-60);}.cls-92{fill:#ffd6ae;}.cls-93{fill:url(#linear-gradient-61);}.cls-94{fill:url(#linear-gradient-62);}.cls-95{fill:#f1b792;}.cls-96{fill:url(#radial-gradient);}.cls-97{fill:#f6c8c8;}.cls-98{fill:#9bcfd3;}.cls-99{fill:url(#radial-gradient-2);}.cls-100{mask:url(#mask-8);}.cls-101{fill:url(#linear-gradient-63);}.cls-102{mask:url(#mask-9);}.cls-103{fill:url(#linear-gradient-64);}.cls-104{mask:url(#mask-10);}.cls-105{fill:url(#linear-gradient-65);}.cls-106{mask:url(#mask-11);}.cls-107{fill:url(#linear-gradient-66);}.cls-108{mask:url(#mask-12);}.cls-109{fill:url(#linear-gradient-67);}.cls-110{filter:url(#luminosity-noclip-12);}.cls-111{filter:url(#luminosity-noclip-11);}.cls-112{filter:url(#luminosity-noclip-10);}.cls-113{filter:url(#luminosity-noclip-9);}.cls-114{filter:url(#luminosity-noclip-8);}.cls-115{filter:url(#luminosity-noclip-7);}.cls-116{filter:url(#luminosity-noclip-6);}.cls-117{filter:url(#luminosity-noclip-5);}.cls-118{filter:url(#luminosity-noclip-4);}.cls-119{filter:url(#luminosity-noclip-3);}.cls-120{filter:url(#luminosity-noclip-2);}.cls-121{filter:url(#luminosity-noclip);}</style><filter id="luminosity-noclip" x="599.4" y="-8902.53" width="192.99" height="32766" filterUnits="userSpaceOnUse" color-interpolation-filters="sRGB"><feFlood flood-color="#fff" result="bg"/><feBlend in="SourceGraphic" in2="bg"/></filter><mask id="mask" x="599.4" y="-8902.53" width="192.99" height="32766" maskUnits="userSpaceOnUse"><g class="cls-121"/></mask><linearGradient id="linear-gradient" x1="918.18" y1="921.68" x2="548.4" y2="1038.19" gradientTransform="matrix(1, 0.03, -0.03, 1, 20.63, -34.28)" gradientUnits="userSpaceOnUse"><stop offset="0" stop-color="#fff"/><stop offset="0.13" stop-color="#e5e5e5"/><stop offset="0.4" stop-color="#a2a2a2"/><stop offset="0.8" stop-color="#383838"/><stop offset="1"/></linearGradient><filter id="luminosity-noclip-2" x="729.27" y="-8902.53" width="33.79" height="32766" filterUnits="userSpaceOnUse" color-interpolation-filters="sRGB"><feFlood flood-color="#fff" result="bg"/><feBlend in="SourceGraphic" in2="bg"/></filter><mask id="mask-2" x="729.27" y="-8902.53" width="33.79" height="32766" maskUnits="userSpaceOnUse"><g class="cls-120"/></mask><linearGradient id="linear-gradient-2" x1="642.4" y1="270.77" x2="837.88" y2="803.9" gradientTransform="matrix(1, 0.03, -0.03, 1, 20.63, -34.28)" gradientUnits="userSpaceOnUse"><stop offset="0" stop-color="#fff"/><stop offset="0.07" stop-color="#e5e5e5"/><stop offset="0.23" stop-color="#a2a2a2"/><stop offset="0.46" stop-color="#383838"/><stop offset="0.58"/></linearGradient><filter id="luminosity-noclip-3" x="606.26" y="-8902.53" width="11.13" height="32766" filterUnits="userSpaceOnUse" color-interpolation-filters="sRGB"><feFlood flood-color="#fff" result="bg"/><feBlend in="SourceGraphic" in2="bg"/></filter><mask id="mask-3" x="606.26" y="-8902.53" width="11.13" height="32766" maskUnits="userSpaceOnUse"><g class="cls-119"/></mask><linearGradient id="linear-gradient-3" x1="597.76" y1="915.28" x2="637.46" y2="955.45" gradientTransform="matrix(1, 0.03, -0.03, 1, 20.63, -34.28)" gradientUnits="userSpaceOnUse"><stop offset="0" stop-color="#fff"/><stop offset="0.6"/></linearGradient><filter id="luminosity-noclip-4" x="721.22" y="-8902.53" width="35.68" height="32766" filterUnits="userSpaceOnUse" color-interpolation-filters="sRGB"><feFlood flood-color="#fff" result="bg"/><feBlend in="SourceGraphic" in2="bg"/></filter><mask id="mask-4" x="721.22" y="-8902.53" width="35.68" height="32766" maskUnits="userSpaceOnUse"><g class="cls-118"/></mask><linearGradient id="linear-gradient-4" x1="696.6" y1="744.6" x2="779.44" y2="827.44" xlink:href="#linear-gradient"/><filter id="luminosity-noclip-5" x="714.21" y="-8902.53" width="32.95" height="32766" filterUnits="userSpaceOnUse" color-interpolation-filters="sRGB"><feFlood flood-color="#fff" result="bg"/><feBlend in="SourceGraphic" in2="bg"/></filter><mask id="mask-5" x="714.21" y="-8902.53" width="32.95" height="32766" maskUnits="userSpaceOnUse"><g class="cls-117"/></mask><linearGradient id="linear-gradient-5" x1="685.64" y1="1032.98" x2="788.25" y2="1135.59" xlink:href="#linear-gradient"/><filter id="luminosity-noclip-6" x="636.61" y="-8902.53" width="27.1" height="32766" filterUnits="userSpaceOnUse" color-interpolation-filters="sRGB"><feFlood flood-color="#fff" result="bg"/><feBlend in="SourceGraphic" in2="bg"/></filter><mask id="mask-6" x="636.61" y="-8902.53" width="27.1" height="32766" maskUnits="userSpaceOnUse"><g class="cls-116"/></mask><linearGradient id="linear-gradient-6" x1="570.96" y1="751.34" x2="702.11" y2="1291.35" gradientTransform="matrix(1, 0.03, -0.03, 1, 20.63, -34.28)" gradientUnits="userSpaceOnUse"><stop offset="0" stop-color="#fff"/><stop offset="0.11" stop-color="#e5e5e5"/><stop offset="0.36" stop-color="#a2a2a2"/><stop offset="0.71" stop-color="#383838"/><stop offset="0.89"/></linearGradient><linearGradient id="linear-gradient-7" x1="100.63" y1="276.66" x2="946.99" y2="1441.29" gradientUnits="userSpaceOnUse"><stop offset="0" stop-color="#fcd2c2"/><stop offset="1" stop-color="#d18a4d"/></linearGradient><linearGradient id="linear-gradient-8" x1="640.22" y1="1286.09" x2="378.54" y2="264.05" gradientUnits="userSpaceOnUse"><stop offset="0" stop-color="#997e6f"/><stop offset="1" stop-color="#954f38"/></linearGradient><linearGradient id="linear-gradient-9" x1="540.29" y1="1225.73" x2="540.29" y2="1329.43" gradientUnits="userSpaceOnUse"><stop offset="0" stop-color="#d17949"/><stop offset="1" stop-color="#fcb17e"/></linearGradient><linearGradient id="linear-gradient-10" x1="519.07" y1="1178.76" x2="556.07" y2="1394.03" gradientUnits="userSpaceOnUse"><stop offset="0.25" stop-color="#d17949"/><stop offset="0.92" stop-color="#973500"/></linearGradient><linearGradient id="linear-gradient-11" x1="489.77" y1="-27.6" x2="787.79" y2="469.1" gradientUnits="userSpaceOnUse"><stop offset="0" stop-color="#fcd2c2"/><stop offset="1" stop-color="#d1925c"/></linearGradient><linearGradient id="linear-gradient-12" x1="542.87" y1="999.8" x2="542.87" y2="240.49" xlink:href="#linear-gradient-8"/><linearGradient id="linear-gradient-13" x1="29.53" y1="368.22" x2="289.64" y2="839.52" xlink:href="#linear-gradient-11"/><linearGradient id="linear-gradient-14" x1="227.44" y1="950.51" x2="227.44" y2="248.96" xlink:href="#linear-gradient-8"/><linearGradient id="linear-gradient-15" x1="904.39" y1="406.38" x2="1067.46" y2="671.38" xlink:href="#linear-gradient-11"/><linearGradient id="linear-gradient-16" x1="854.59" y1="946.81" x2="854.59" y2="242.25" xlink:href="#linear-gradient-8"/><linearGradient id="linear-gradient-17" x1="697.36" y1="848.84" x2="1379.54" y2="426.37" gradientUnits="userSpaceOnUse"><stop offset="0.13" stop-color="#d1925c"/><stop offset="1" stop-color="#fcd2c2"/></linearGradient><linearGradient id="linear-gradient-18" x1="-80.08" y1="1081.2" x2="576.15" y2="674.8" gradientUnits="userSpaceOnUse"><stop offset="0.08" stop-color="#fcd2c2"/><stop offset="0.23" stop-color="#eebea2"/><stop offset="0.4" stop-color="#e2ab83"/><stop offset="0.56" stop-color="#d89d6e"/><stop offset="0.72" stop-color="#d39560"/><stop offset="0.87" stop-color="#d1925c"/></linearGradient><linearGradient id="linear-gradient-19" x1="868.83" y1="498.76" x2="1041.72" y2="498.76" gradientUnits="userSpaceOnUse"><stop offset="0" stop-color="#fff3cf"/><stop offset="0.18" stop-color="#e5e4c8"/><stop offset="0.57" stop-color="#a2bdb7"/><stop offset="1" stop-color="#528ea2"/></linearGradient><linearGradient id="linear-gradient-20" x1="26.73" y1="506.67" x2="213.71" y2="506.67" xlink:href="#linear-gradient-19"/><linearGradient id="linear-gradient-21" x1="869.74" y1="638.72" x2="1005.68" y2="638.72" xlink:href="#linear-gradient-19"/><linearGradient id="linear-gradient-22" x1="238.33" y1="1297.74" x2="840.35" y2="1297.74" gradientUnits="userSpaceOnUse"><stop offset="0" stop-color="#ffcea1"/><stop offset="1" stop-color="#e09e6c"/></linearGradient><clipPath id="clip-path" transform="translate(26.73 0)"><path class="cls-13" d="M930,1291.92l.2-2.47,17.85-216.76h-.33v-.09l0,.09h0L829.38,1069l0-.1,118.33,3.67L922,1048.88l28,.86,19.29-234.38h-.35l-51-23.59,53.35-.31h0l15.71-190.9h-.37L920,587.23l111.34-8.94-.28-2.76L1015,417.86,978.86,429.4h0A501,501,0,0,0,963,372.94a492.64,492.64,0,0,0-39.83-87l-101.9,71-.19-.35L923.13,286,881,298l29.49-32h0a500.5,500.5,0,0,0-52.2-67A463.93,463.93,0,0,0,707.32,91.48a453.87,453.87,0,0,0-80.21-27l-.63,2.58h0l-19,9.71L624,0,409.53,2.81l16.08,76.44L402.83,68.13h0a464.6,464.6,0,0,0-76.68,28A479.23,479.23,0,0,0,176,206.65a498.62,498.62,0,0,0-52.26,67.71l0,0,28.89,31.16-42.11-9.43,68.24,45-68.25-45a504.92,504.92,0,0,0-38.79,85.42,512.58,512.58,0,0,0-16.2,57.27h0L17,427.06,0,586.28l112.39,7.15L46.86,607.64h0l14.3,189.07L181.6,796l1.53,23.72h0L181.6,796l-68.3.4-50.37,24h0L80.48,1052.6l27.31-1L82.2,1075.36,199.26,1071l-.68-10.54.68,10.53v0h0l-117,4.41L98.65,1292.9h0l15.29,128.16,804.92-3.84L930,1291.92ZM428.78,175.65l-.24.07h0Zm-204.59,165a0,0,0,0,0,0,0l-.14-.13Zm-.23-.14-2.61,4.89,2.6-4.9ZM169.44,606.72v0Zm32.91-7.93h0l-1.26-19.63,16.28-3.52L226.84,497l-20-9.1a350.54,350.54,0,0,1,41-109.42l7.35-12.06.11-.19c44.69-70,113.43-121.91,194.2-141.2l13.05-2.83.05,0a1.75,1.75,0,0,0,.33-.06l4.35,10,99.61-1.1,3.78-9.85,2.7.48,4.16.8c64.84,12.89,122.23,46.92,166,95,40.61,44.58,69.34,101,81.48,163.67l-23.34,11,9.06,79,19.76,4-33.17,471.2H797l-.17,6.63-13.59,193.07-539.48.87L232,1062.6h0l-.27-14.49h-.67L215.92,811l-1.06-16.58Zm-4.55,449.44v-.09h0l0,.09Z"/></clipPath><linearGradient id="linear-gradient-23" x1="538.91" y1="1246.08" x2="538.91" y2="1365.32" gradientUnits="userSpaceOnUse"><stop offset="0.32" stop-color="#bdd2d6"/><stop offset="1" stop-color="#b37f62"/></linearGradient><linearGradient id="linear-gradient-24" x1="757.1" y1="1247.5" x2="704.83" y2="1297.3" gradientUnits="userSpaceOnUse"><stop offset="0" stop-color="#d18249"/><stop offset="1" stop-color="#fcb97e"/></linearGradient><linearGradient id="linear-gradient-25" x1="694.81" y1="1289.6" x2="553.51" y2="1308.18" gradientUnits="userSpaceOnUse"><stop offset="0.54" stop-color="#e8a066"/><stop offset="1" stop-color="#fcb97e"/></linearGradient><linearGradient id="linear-gradient-26" x1="532.08" y1="768.92" x2="751.51" y2="774.4" gradientUnits="userSpaceOnUse"><stop offset="0" stop-color="#5d6cf2"/><stop offset="0.03" stop-color="#5b6bf1"/><stop offset="0.66" stop-color="#3a57da"/><stop offset="1" stop-color="#2e4fd2"/></linearGradient><linearGradient id="linear-gradient-27" x1="611.63" y1="1293.44" x2="771.25" y2="285.52" gradientUnits="userSpaceOnUse"><stop offset="0" stop-color="#344b88"/><stop offset="0.15" stop-color="#2e458f"/><stop offset="0.52" stop-color="#233a9b"/><stop offset="1" stop-color="#301d54"/></linearGradient><linearGradient id="linear-gradient-28" x1="580.47" y1="771.62" x2="805.26" y2="771.62" xlink:href="#linear-gradient-19"/><linearGradient id="linear-gradient-29" x1="895.79" y1="1222.99" x2="426.29" y2="387.18" gradientTransform="matrix(1, 0.03, -0.03, 1, 20.63, -34.28)" gradientUnits="userSpaceOnUse"><stop offset="0" stop-color="#525fd6"/><stop offset="0.32" stop-color="#344cbf"/><stop offset="0.52" stop-color="#2844b6"/><stop offset="1" stop-color="#573599"/></linearGradient><filter id="luminosity-noclip-7" x="599.4" y="627.45" width="192.99" height="691.65" filterUnits="userSpaceOnUse" color-interpolation-filters="sRGB"><feFlood flood-color="#fff" result="bg"/><feBlend in="SourceGraphic" in2="bg"/></filter><mask id="mask-7" x="626.13" y="627.45" width="192.99" height="691.65" maskUnits="userSpaceOnUse"><g class="cls-115"><g transform="translate(26.73 0)"><g class="cls-1"><path class="cls-2" d="M765.54,1257.89,599.4,1319.1c87.41-233.5,154.81-458.86,193-691.65Z"/></g></g></g></mask><linearGradient id="linear-gradient-30" x1="918.18" y1="921.68" x2="548.4" y2="1038.19" gradientTransform="matrix(1, 0.03, -0.03, 1, 20.63, -34.28)" xlink:href="#linear-gradient-19"/><linearGradient id="linear-gradient-31" x1="634.24" y1="1256.13" x2="785.71" y2="1319.35" gradientTransform="matrix(1, 0.03, -0.03, 1, 47.36, -34.28)" xlink:href="#linear-gradient-29"/><linearGradient id="linear-gradient-32" x1="610.48" y1="1252.88" x2="781.01" y2="1252.88" gradientTransform="matrix(1, 0.03, -0.03, 1, 47.36, -34.28)" gradientUnits="userSpaceOnUse"><stop offset="0" stop-color="#465ec5"/><stop offset="0.46" stop-color="#5f76d3"/><stop offset="1" stop-color="#8398e7"/></linearGradient><linearGradient id="linear-gradient-33" x1="505.75" y1="266.5" x2="929.55" y2="730.52" xlink:href="#linear-gradient-29"/><linearGradient id="linear-gradient-34" x1="877.62" y1="1257.4" x2="670.54" y2="209.1" gradientTransform="matrix(1, 0.03, -0.03, 1, 20.63, -34.28)" gradientUnits="userSpaceOnUse"><stop offset="0.13" stop-color="#4a82e4"/><stop offset="1" stop-color="#2760c5"/></linearGradient><linearGradient id="linear-gradient-35" x1="704.61" y1="465.51" x2="785.41" y2="1218.13" gradientTransform="matrix(1, 0.03, -0.03, 1, 47.36, -34.28)" xlink:href="#linear-gradient-29"/><linearGradient id="linear-gradient-36" x1="507.83" y1="1064.97" x2="934.41" y2="543.81" gradientTransform="matrix(1, 0.03, -0.03, 1, 47.36, -34.28)" xlink:href="#linear-gradient-34"/><linearGradient id="linear-gradient-37" x1="650.44" y1="269.18" x2="762.38" y2="1311.83" gradientTransform="matrix(1, 0.03, -0.03, 1, 47.36, -34.28)" xlink:href="#linear-gradient-29"/><linearGradient id="linear-gradient-38" x1="574.6" y1="1280.25" x2="1167.14" y2="556.33" gradientTransform="matrix(1, 0.03, -0.03, 1, 47.36, -34.28)" xlink:href="#linear-gradient-34"/><linearGradient id="linear-gradient-39" x1="482.32" y1="314.33" x2="988.28" y2="868.31" xlink:href="#linear-gradient-29"/><linearGradient id="linear-gradient-40" x1="821.36" y1="1393.07" x2="588.69" y2="215.14" xlink:href="#linear-gradient-34"/><linearGradient id="linear-gradient-41" x1="617.78" y1="485.66" x2="702.11" y2="1271.08" gradientTransform="matrix(1, 0.03, -0.03, 1, 47.36, -34.28)" xlink:href="#linear-gradient-29"/><linearGradient id="linear-gradient-42" x1="480.79" y1="1000.35" x2="940.21" y2="439.06" gradientTransform="matrix(1, 0.03, -0.03, 1, 47.36, -34.28)" xlink:href="#linear-gradient-34"/><linearGradient id="linear-gradient-43" x1="568.36" y1="294.72" x2="684.32" y2="1374.86" gradientTransform="matrix(1, 0.03, -0.03, 1, 47.36, -34.28)" xlink:href="#linear-gradient-29"/><linearGradient id="linear-gradient-44" x1="583.14" y1="1193.08" x2="1226.37" y2="407.23" gradientTransform="matrix(1, 0.03, -0.03, 1, 47.36, -34.28)" xlink:href="#linear-gradient-34"/><linearGradient id="linear-gradient-45" x1="676.67" y1="1023.95" x2="784.79" y2="1132.06" gradientTransform="matrix(1, 0.03, -0.03, 1, 47.36, -34.28)" xlink:href="#linear-gradient-19"/><linearGradient id="linear-gradient-46" x1="781.31" y1="1307.05" x2="501.51" y2="-109.47" gradientTransform="matrix(1, 0.03, -0.03, 1, 47.36, -34.28)" xlink:href="#linear-gradient-29"/><linearGradient id="linear-gradient-47" x1="589.23" y1="1043.38" x2="703.81" y2="1157.96" gradientTransform="matrix(1, 0.03, -0.03, 1, 47.36, -34.28)" xlink:href="#linear-gradient-19"/><linearGradient id="linear-gradient-48" x1="710.26" y1="1392.65" x2="430.73" y2="-22.47" gradientTransform="matrix(1, 0.03, -0.03, 1, 47.36, -34.28)" xlink:href="#linear-gradient-29"/><linearGradient id="linear-gradient-49" x1="684.74" y1="732.86" x2="773.55" y2="821.67" gradientTransform="matrix(1, 0.03, -0.03, 1, 47.36, -34.28)" xlink:href="#linear-gradient-19"/><linearGradient id="linear-gradient-50" x1="814.19" y1="1170.42" x2="640.72" y2="292.22" gradientTransform="matrix(1, 0.03, -0.03, 1, 47.36, -34.28)" xlink:href="#linear-gradient-29"/><linearGradient id="linear-gradient-51" x1="593.38" y1="737.89" x2="689.28" y2="833.8" gradientTransform="matrix(1, 0.03, -0.03, 1, 47.36, -34.28)" xlink:href="#linear-gradient-19"/><linearGradient id="linear-gradient-52" x1="738.68" y1="1239.55" x2="556.67" y2="318.12" gradientTransform="matrix(1, 0.03, -0.03, 1, 47.36, -34.28)" xlink:href="#linear-gradient-29"/><linearGradient id="linear-gradient-53" x1="668.51" y1="446.58" x2="766.48" y2="544.54" gradientTransform="matrix(1, 0.03, -0.03, 1, 47.36, -34.28)" xlink:href="#linear-gradient-19"/><linearGradient id="linear-gradient-54" x1="604.72" y1="454.7" x2="682.1" y2="532.08" gradientTransform="matrix(1, 0.03, -0.03, 1, 20.63, -34.28)" xlink:href="#linear-gradient-19"/><linearGradient id="linear-gradient-55" x1="725.47" y1="597.57" x2="754.76" y2="626.86" gradientTransform="matrix(1, 0.03, -0.03, 1, 47.36, -34.28)" gradientUnits="userSpaceOnUse"><stop offset="0" stop-color="#8398e7"/><stop offset="0.54" stop-color="#5f76d3"/><stop offset="1" stop-color="#465ec5"/></linearGradient><linearGradient id="linear-gradient-56" x1="726.42" y1="881.9" x2="747.43" y2="902.91" xlink:href="#linear-gradient-55"/><linearGradient id="linear-gradient-57" x1="726.46" y1="1199.28" x2="743.26" y2="1216.08" xlink:href="#linear-gradient-55"/><linearGradient id="linear-gradient-58" x1="646.34" y1="1226.83" x2="664.96" y2="1245.45" xlink:href="#linear-gradient-55"/><linearGradient id="linear-gradient-59" x1="638.75" y1="893.04" x2="664.19" y2="918.48" xlink:href="#linear-gradient-55"/><linearGradient id="linear-gradient-60" x1="628.23" y1="596.92" x2="661.64" y2="630.32" xlink:href="#linear-gradient-55"/><linearGradient id="linear-gradient-61" x1="683.78" y1="457.05" x2="883.56" y2="656.84" xlink:href="#linear-gradient-29"/><linearGradient id="linear-gradient-62" x1="616.06" y1="465.61" x2="772.95" y2="622.5" xlink:href="#linear-gradient-29"/><radialGradient id="radial-gradient" cx="-383.44" cy="647.58" r="25.2" gradientTransform="matrix(0.36, 0.01, -0.02, 0.99, 850.13, -11.97)" gradientUnits="userSpaceOnUse"><stop offset="0.11" stop-color="#3877f2"/><stop offset="0.8" stop-color="#162da3"/><stop offset="0.94" stop-color="#1f3ee1"/></radialGradient><radialGradient id="radial-gradient-2" cx="-601.02" cy="932.88" r="41.78" gradientTransform="matrix(0.36, 0.01, -0.02, 0.92, 848.45, 52.28)" gradientUnits="userSpaceOnUse"><stop offset="0.11" stop-color="#c47128"/><stop offset="0.8" stop-color="#75460a"/><stop offset="0.94" stop-color="#b36b0f"/></radialGradient><filter id="luminosity-noclip-8" x="606.26" y="899.65" width="11.13" height="27.14" filterUnits="userSpaceOnUse" color-interpolation-filters="sRGB"><feFlood flood-color="#fff" result="bg"/><feBlend in="SourceGraphic" in2="bg"/></filter><mask id="mask-8" x="632.99" y="899.65" width="11.13" height="27.14" maskUnits="userSpaceOnUse"><g class="cls-114"><g transform="translate(26.73 0)"><g class="cls-5"><path class="cls-6" d="M617.39,912.37c-.07,7.46-2.6,13.89-5.66,14.39s-5.53-5.16-5.47-12.65,2.61-14,5.69-14.44S617.45,904.91,617.39,912.37Z"/></g></g></g></mask><linearGradient id="linear-gradient-63" x1="597.76" y1="915.28" x2="637.46" y2="955.45" gradientTransform="matrix(1, 0.03, -0.03, 1, 20.63, -34.28)" gradientUnits="userSpaceOnUse"><stop offset="0" stop-color="#fff"/><stop offset="0.6" stop-color="#c99757"/></linearGradient><filter id="luminosity-noclip-9" x="721.22" y="696.43" width="35.68" height="147.65" filterUnits="userSpaceOnUse" color-interpolation-filters="sRGB"><feFlood flood-color="#fff" result="bg"/><feBlend in="SourceGraphic" in2="bg"/></filter><mask id="mask-9" x="747.95" y="696.43" width="35.68" height="147.65" maskUnits="userSpaceOnUse"><g class="cls-113"><g transform="translate(26.73 0)"><g class="cls-7"><polygon class="cls-8" points="725.35 701.87 721.22 844.08 749.18 840.89 756.9 696.43 725.35 701.87"/></g></g></g></mask><linearGradient id="linear-gradient-64" x1="696.6" y1="744.6" x2="779.44" y2="827.44" gradientTransform="matrix(1, 0.03, -0.03, 1, 47.36, -34.28)" xlink:href="#linear-gradient-19"/><filter id="luminosity-noclip-10" x="714.21" y="969.81" width="32.95" height="197.48" filterUnits="userSpaceOnUse" color-interpolation-filters="sRGB"><feFlood flood-color="#fff" result="bg"/><feBlend in="SourceGraphic" in2="bg"/></filter><mask id="mask-10" x="740.94" y="969.81" width="32.95" height="197.48" maskUnits="userSpaceOnUse"><g class="cls-112"><g transform="translate(26.73 0)"><g class="cls-9"><polygon class="cls-10" points="719.24 978.42 714.21 1167.3 738.8 1160.1 747.16 969.81 719.24 978.42"/></g></g></g></mask><linearGradient id="linear-gradient-65" x1="685.64" y1="1032.98" x2="788.25" y2="1135.59" gradientTransform="matrix(1, 0.03, -0.03, 1, 47.36, -34.28)" xlink:href="#linear-gradient-19"/><filter id="luminosity-noclip-11" x="636.61" y="986.86" width="27.1" height="204.61" filterUnits="userSpaceOnUse" color-interpolation-filters="sRGB"><feFlood flood-color="#fff" result="bg"/><feBlend in="SourceGraphic" in2="bg"/></filter><mask id="mask-11" x="663.34" y="986.86" width="27.1" height="204.61" maskUnits="userSpaceOnUse"><g class="cls-111"><g transform="translate(26.73 0)"><g class="cls-11"><polygon class="cls-12" points="663.71 986.86 656.72 989.46 636.61 1191.47 661.45 1183.98 663.71 986.86"/></g></g></g></mask><linearGradient id="linear-gradient-66" x1="570.96" y1="751.34" x2="702.11" y2="1291.35" gradientTransform="matrix(1, 0.03, -0.03, 1, 47.36, -34.28)" gradientUnits="userSpaceOnUse"><stop offset="0" stop-color="#fff3cf"/><stop offset="0.16" stop-color="#e5e4c8"/><stop offset="0.51" stop-color="#a2bdb7"/><stop offset="0.89" stop-color="#528ea2"/></linearGradient><filter id="luminosity-noclip-12" x="729.27" y="414.68" width="33.79" height="145.28" filterUnits="userSpaceOnUse" color-interpolation-filters="sRGB"><feFlood flood-color="#fff" result="bg"/><feBlend in="SourceGraphic" in2="bg"/></filter><mask id="mask-12" x="756" y="414.68" width="33.79" height="145.28" maskUnits="userSpaceOnUse"><g class="cls-110"><g transform="translate(26.73 0)"><g class="cls-3"><path class="cls-4" d="M732.47,442l-3.2,117.13L763,560s2.27-92.93-22.3-145.28Z"/></g></g></g></mask><linearGradient id="linear-gradient-67" x1="642.4" y1="270.77" x2="837.88" y2="803.9" gradientTransform="matrix(1, 0.03, -0.03, 1, 20.63, -34.28)" gradientUnits="userSpaceOnUse"><stop offset="0" stop-color="#fff3cf"/><stop offset="0.11" stop-color="#e5e4c8"/><stop offset="0.33" stop-color="#a2bdb7"/><stop offset="0.58" stop-color="#528ea2"/></linearGradient></defs><title>Asset 3</title><g class="cls-14"><g id="Layer_2" data-name="Layer 2"><g id="Layer_1-2" data-name="Layer 1"><path class="cls-15" d="M282.81,210,129.42,549.07l9.72,348.66,32.32,431.2,675.48-23.23,54.92-651.48L891.7,401.87s-87.79-155.81-99-169.74-223.21-96.22-223.21-96.22Z" transform="translate(26.73 0)"/><path class="cls-16" d="M930,1291.92l18.06-219.23h-.34L829.38,1069l-20.09-.62.3-4.48,1.15-17.81,0-.67,19.54.6H831l.36,0,90.61,2.8,28,.86,19.29-234.38L821,816.19l.63-23.87,149.58-.87,15.71-190.9-146.79,1.11.68-24.65L854,579.66l134.7-1c.07-.9.14-1.83.2-2.75a504.63,504.63,0,0,0-7.66-134.81c-.75-3.9-1.56-7.77-2.41-11.64v0A501,501,0,0,0,963,372.94a492.64,492.64,0,0,0-39.83-87l-101.9,71-.19-.35h0l-5.14-9.09c0-.11-.12-.22-.18-.34l-2.13-3.76-4.75-8.4h0l-.23-.4L910.45,266a500.5,500.5,0,0,0-52.2-67A463.93,463.93,0,0,0,707.32,91.48a453.87,453.87,0,0,0-80.21-27l-.63,2.58L600.69,172.81v0l-.05.15L595,196.05,592.36,207l-1.71-.4-13.19-3-1.65-.37-8.61-2L570.39,188l5-20.71,26.12-108c-1.93-.34-3.86-.67-5.79-1a463.28,463.28,0,0,0-156.32,1.62q-5.6,1-11.14,2.17l25.43,107.24,3.69,15.59,1,4.36,3.11,13.15-5.12,1.27-1.3.34-13.55,3.39-5.16,1.28-7.88-33L402.83,68.13a464.6,464.6,0,0,0-76.68,28A479.23,479.23,0,0,0,176,206.65a498.62,498.62,0,0,0-52.26,67.71L224,340.56l.07,0,.16.1,21.49,14.2-1.46,2.22-10.31,15.61L231.73,376,212,363h0l-101.45-66.9a504.92,504.92,0,0,0-38.79,85.42,512.58,512.58,0,0,0-16.2,57.27q-1.76,8-3.28,16.09A507.56,507.56,0,0,0,45,583.19l142.65-1.1.53,24.49L46.83,607.64l14.3,189.08,144.22-.83.48,23.72-142.91.8L80.48,1052.6l117.31-4.46,16.8-.64,0,.67,1.09,18.58.21,3.58-16.67.63-117,4.41L98.65,1292.9h0l15.29,128.16,804.92-3.84L930,1291.92Zm-698.9-243.81L215.92,811l-1.06-16.58L202.35,598.79h0l-1.26-19.63,16.28-3.52L226.84,497l-20-9.1a350.54,350.54,0,0,1,41-109.42l7.35-12.06.11-.19c44.69-70,113.43-121.91,194.2-141.2l13.05-2.83.05,0a1.75,1.75,0,0,0,.33-.06l4.35,10,99.61-1.1,3.78-9.85,2.7.48,4.16.8c64.84,12.89,122.23,46.92,166,95,40.61,44.58,69.34,101,81.48,163.67l-23.34,11,9.06,79,19.76,4-33.17,471.2H797l-.17,6.63-13.59,193.07-539.48.87L232,1062.6h0l-.27-14.49Z" transform="translate(26.73 0)"/><path class="cls-17" d="M860.72,483.22c-.75-5.11-1.6-10.21-2.54-15.27a411.5,411.5,0,0,0-37.27-110.77l-.17-.3c-1.57-3.13-3.2-6.21-4.86-9.29,0-.11-.12-.22-.18-.34-.69-1.27-1.38-2.53-2.09-3.79-1.55-2.8-3.16-5.59-4.79-8.37-.08-.13-.15-.27-.24-.4l-.09-.14q-4.61-7.76-9.52-15.28a372.74,372.74,0,0,0-34.2-44.45c-44.76-49.84-100-84.38-160.54-101l-.66-.19-2.88-.77c-.29-.09-.59-.16-.89-.24l-.59-.16-5.65-1.39-.56-.13c-1.73-.42-3.47-.81-5.22-1.19l-.35-.08-.15,0-.19,0q-5.82-1.26-11.68-2.29c-2.43-.43-4.85-.85-7.27-1.22a319.67,319.67,0,0,0-107.93,2c-2.17.41-4.35.84-6.5,1.3-2.92.62-5.83,1.27-8.73,2q-8.28,2-16.44,4.42c-2.41.7-4.79,1.45-7.18,2.23C363.7,196.54,311,231.4,268,280.07a388.28,388.28,0,0,0-43.85,60.63,0,0,0,0,0,0,0q-2.41,4.13-4.73,8.3a4.91,4.91,0,0,0-.28.5q-3.33,6-6.4,12.07c-.27.47-.5.95-.72,1.42a419,419,0,0,0-37.77,111.92h0q-.61,3.26-1.16,6.51a429.21,429.21,0,0,0-5.3,100l.05.82.18,2.73.44,7V592l.07,1,.87,13.73L181.6,796l1.53,23.72,14.66,228.4,0,.09,1.45,22.71v0l14.25,221.8h0l600.11-.72,15.76-223,0-.11v-.1l1.61-22.75v0l.92-13,15.35-217V816L849,792.16v0l7.9-111.73v-.09l5.58-78.81v-.08l1-13.75.41-5.66.17-2.42.25-3.57v0q.62-8.85.89-17.67A426.62,426.62,0,0,0,860.72,483.22ZM243.8,1246.73,232,1062.6h0l-.27-14.49h-.67L215.92,811l-1.06-16.58L202.35,598.79h0l-1.26-19.63,16.28-3.52L226.84,497l-20-9.1a350.54,350.54,0,0,1,41-109.42l7.35-12.06.11-.19c44.69-70,113.43-121.91,194.2-141.2l13.05-2.83.05,0a1.75,1.75,0,0,0,.33-.06l4.35,10,99.61-1.1,3.78-9.85,2.7.48,4.16.8c64.84,12.89,122.23,46.92,166,95,40.61,44.58,69.34,101,81.48,163.67l-23.34,11,9.06,79,19.76,4-33.17,471.2H797l-.17,6.63-13.59,193.07Z" transform="translate(26.73 0)"/><path class="cls-18" d="M817.92,566.63l-8.91-78L801.69,492l9.06,79,19.76,4-33.17,471.2H797l-.17,6.63-13.59,193.07-539.48.87L232,1062.6h0l-.27-14.49h-.67L215.92,811l-1.06-16.58L202.35,598.79h0l-1.26-19.63,16.28-3.52L226.84,497l-7.3-3.33-9.31,77.77L193.58,575l1.29,20.1h0l12.93,200.26,1.09,17L224.52,1055h.68l.29,14.81h0L237.62,1258l551.83-.83,14-197.4.17-6.78h.32l34.21-482.34Z" transform="translate(26.73 0)"/><path class="cls-18" d="M869.15,476.69c-.75-5.24,8.16-9.37,7.21-14.54-7.32-39.78-30-79.21-47.92-114.67l-.16-.3c-1.61-3.22-3.29-6.38-5-9.53,0-.11-.12-.23-.18-.34-.7-1.3-1.41-2.61-2.14-3.89-1.58-2.87-3.24-5.73-4.91-8.59l-.23-.4-.1-.14c-3.15-5.31-6.38-10.54-9.76-15.68A379.52,379.52,0,0,0,771,263c-45.86-51.13-102.5-86.55-164.5-103.62-.22-.07-.44-.12-.67-.18-1-.27-2-.54-2.95-.79l-.92-.26-.6-.15-5.79-1.43-2.72-.66c-1-.26-2.08-.47-3.13-.68l-.43-.1a.37.37,0,0,1-.15,0l-.2,0c-4-.85-8-1.65-12-2.35-2.49-.45-5-.86-7.44-1.25a327.25,327.25,0,0,0-110.61,2c-2.24.43-4.45.88-6.67,1.33q-4.49,1-8.95,2-8.47,2.06-16.85,4.55-3.69,1.08-7.35,2.29C360,182.79,297.72,216.63,253.71,266.58c-16.92,19.19-23.66,41.92-36.63,64.06a0,0,0,0,0,0,0c-1.65,2.82-3.28,5.65-4.84,8.51-.1.16-.2.34-.3.52q-3.37,6.12-6.55,12.37c-.26.48-.51,1-.73,1.45-18.14,35.92-40.62,76-48.07,116l8.27,5.35c-.41,2.22.38-2.21,0,0a439.89,439.89,0,0,0-5.36,102.42l0,.84.19,2.79.45,7.13,0,.07.07,1,.9,14.06,12.56,193.83,1.58,24.27L190.46,1055v.1l1.51,23.23h0l34.14,223h0l587.5-9.33,15.6-218.64c.06-1.61-1.17-1.15,0,0l.16-4.39h0l9-16.09v0l-7.71-6.85,24.5-228.49v-.09l1.73-24.35v0l8.16-114.4v-.1l5.77-80.71v-.09l1-14.08.41-5.8.18-2.49.26-3.66v0q.64-9.08.91-18.1A436,436,0,0,0,869.15,476.69ZM864.25,576v0l-.25,3.57-.17,2.42-.41,5.66-1,13.75v.08l-5.58,78.81v.09L849,792.12v0L847.28,816V816l-15.35,217-.92,13v0l-1.61,22.75v.1l0,.11-15.76,223-600.11.72h0L199.26,1071v0l-1.45-22.71,0-.09-14.66-228.4L181.6,796l-12.16-189.3L168.57,593l-.07-1v-.06l-.44-7-.18-2.73-.05-.82a429.21,429.21,0,0,1,5.3-100q.54-3.25,1.16-6.51h0A419,419,0,0,1,212,363c.22-.47.45-.95.72-1.42q3.08-6.09,6.4-12.07a4.91,4.91,0,0,1,.28-.5q2.31-4.18,4.73-8.3a0,0,0,0,1,0,0A388.28,388.28,0,0,1,268,280.07C311,231.4,363.7,196.54,421.36,178c2.39-.78,4.77-1.53,7.18-2.23q8.16-2.43,16.44-4.42c2.9-.7,5.81-1.35,8.73-2,2.15-.46,4.33-.89,6.5-1.3a319.67,319.67,0,0,1,107.93-2c2.42.37,4.84.79,7.27,1.22q5.87,1,11.68,2.29l.19,0,.15,0,.35.08c1.75.38,3.49.77,5.22,1.19l.56.13,5.65,1.39.59.16c.3.08.6.15.89.24l2.88.77.66.19C664.72,190.44,720,225,764.77,274.82A372.74,372.74,0,0,1,799,319.27q4.92,7.51,9.52,15.28l.09.14c.09.13.16.27.24.4,1.63,2.78,3.24,5.57,4.79,8.37.71,1.26,1.4,2.52,2.09,3.79.06.12.13.23.18.34,1.66,3.08,3.29,6.16,4.86,9.29l.17.3A411.5,411.5,0,0,1,858.18,468c.94,5.06,1.79,10.16,2.54,15.27a426.62,426.62,0,0,1,4.42,75.09Q864.87,567.13,864.25,576Zm-55.57-90.25.33,2.88,16-7.52c-.18-.92-.37-1.85-.56-2.77Zm-601.81,2.13,12.67,5.77.35-2.83-12.47-5.68C207.23,486,207.05,487,206.87,487.86Z" transform="translate(26.73 0)"/><polygon class="cls-19" points="840.35 1292.06 240.23 1292.77 240.24 1292.76 270.53 1246.73 810.01 1245.86 840.35 1292.06"/><polygon class="cls-20" points="826.84 1361.8 840.35 1292.06 238.33 1301.33 256.9 1367.2 826.84 1361.8"/><polygon class="cls-21" points="489.67 222.08 489.35 222.14 489.31 222.16 476.25 224.99 475.58 225.12 468.31 207.43 455.27 175.72 471.71 171.29 471.71 171.31 477.7 188.25 478.1 189.36 483.17 203.7 489.63 221.93 489.67 222.08"/><polygon class="cls-21" points="282.05 366.19 281.94 366.38 274.59 378.44 274.35 378.83 260.64 372.73 238.77 363.02 238.74 363 239.49 361.6 245.91 349.53 246.17 349.03 250.69 340.56 250.69 340.54 250.76 340.6 250.91 340.73 270.95 357.12 282.05 366.19"/><polygon class="cls-21" points="229.09 598.79 229.08 598.79 214.82 602.23 196.18 606.72 195.3 593 195.23 591.99 194.78 584.97 194.6 582.24 194.56 581.42 201.78 580.9 227.82 578.98 227.84 579.16 229.09 598.79"/><polygon class="cls-21" points="242.66 810.95 232.44 813.68 209.86 819.74 208.33 796.02 241.59 794.37 242.66 810.95"/><polygon class="cls-21" points="258.49 1048.11 258.76 1062.6 258.75 1062.6 242.46 1066.75 225.99 1070.94 224.53 1048.22 258.49 1048.11"/><polygon class="cls-21" points="631 173.69 630.96 173.8 621.75 196.05 617.38 206.57 610.32 223.63 604.28 222.46 600.12 221.66 597.45 221.13 596.23 220.9 602.54 203.2 608.03 187.88 613.58 172.34 614.48 169.82 614.51 169.73 614.54 169.65 619.73 170.93 620.29 171.05 625.95 172.44 626.53 172.6 627.42 172.81 630.34 173.53 631 173.69"/><polygon class="cls-21" points="847.96 357.04 811.88 373.64 804.19 361.09 836.03 334.69 847.96 357.04"/><polygon class="cls-21" points="889.54 601.49 856.27 594.02 857.67 574.08 891.34 576 889.54 601.49"/><polygon class="cls-21" points="874.37 816.05 841.23 807.56 842.4 790.88 876.05 792.16 874.37 816.05"/><polygon class="cls-21" points="858.1 1046.04 858.1 1046.08 856.48 1068.9 856.13 1068.81 855.82 1068.73 836.32 1063.92 823.4 1060.73 823.77 1046.15 858.1 1046.04"/><polygon class="cls-22" points="610.24 187.85 475.52 189.38 436.26 2.81 650.77 0 610.24 187.85"/><polygon class="cls-23" points="610.23 187.85 604.19 203.57 597.45 221.13 597.42 221.18 593.64 231.03 494.03 232.13 489.68 222.08 489.63 221.93 481.86 204.04 475.52 189.39 610.23 187.85"/><polygon class="cls-24" points="213.71 478.82 201.3 584.92 26.73 586.28 43.74 427.06 213.71 478.82"/><polygon class="cls-25" points="253.57 496.96 244.11 575.63 227.84 579.16 214.39 582.09 214.38 582.09 201.31 584.92 201.62 582.18 201.78 580.9 213.72 478.81 233.6 487.86 253.57 496.96"/><polygon class="cls-26" points="1058.1 578.29 880.75 579.66 880.45 576.91 868.83 473.09 1005.59 429.4 1041.72 417.86 1057.82 575.53 1058.1 578.29"/><polygon class="cls-27" points="880.76 579.66 867.54 577.01 857.61 575.03 857.24 574.95 837.49 571 828.42 492.04 851.76 481.09 868.83 473.09 880.28 575.37 880.76 579.66"/><polygon class="cls-28" points="656.75 65.29 633.8 77 613.81 169.66 630.28 173.7 656.75 65.29"/><polygon class="cls-28" points="937.18 265.99 907.68 298.01 949.86 285.98 847.24 357.05 835.31 334.69 937.18 265.99"/><polygon class="cls-28" points="1013.31 600.56 946.76 587.24 889.74 587.67 888.83 601.5 1013.31 600.56"/><polygon class="cls-29" points="907.68 298.01 840.08 343.63 847.24 357.05 949.86 285.98 907.68 298.01"/><polygon class="cls-28" points="1058.1 578.29 946.76 587.24 889.74 587.67 890.9 579.58 1058.1 578.29"/><polygon class="cls-28" points="995.63 815.37 944.59 791.77 875.36 792.17 873.67 816.05 995.63 815.37"/><polygon class="cls-28" points="974.46 1072.59 948.6 1048.78 857.41 1046.04 855.8 1068.9 974.46 1072.59"/><polygon class="cls-21" points="139.13 593.43 26.73 586.28 195.18 584.97 195.37 593 139.13 593.43"/><polygon class="cls-21" points="1058.1 578.29 946.76 587.24 889.74 587.67 888.31 579.6 1058.1 578.29"/><polygon class="cls-28" points="429.55 68.13 452.35 79.25 471.71 171.3 455.26 175.72 429.55 68.13"/><polygon class="cls-28" points="150.5 274.35 179.41 305.54 137.3 296.11 238.75 363.01 250.68 340.55 150.5 274.35"/><polygon class="cls-28" points="73.56 607.65 139.13 593.43 195.37 593 196.17 606.72 73.56 607.65"/><polygon class="cls-29" points="179.41 305.54 245.91 349.53 238.75 363.01 137.3 296.11 179.41 305.54"/><polygon class="cls-28" points="26.73 586.28 139.13 593.43 195.37 593 194.27 584.98 26.73 586.28"/><polygon class="cls-28" points="89.64 820.42 140.03 796.42 208.33 796.03 209.85 819.75 89.64 820.42"/><polygon class="cls-28" points="108.93 1075.36 134.54 1051.57 224.53 1048.23 225.99 1070.95 108.93 1075.36"/><polygon class="cls-30" points="271.72 1367.28 279.54 1397.83 867.29 1397.7 887.2 1335.26 838.15 1303.41 826.84 1361.8 271.72 1367.28"/><polygon class="cls-31" points="1013.31 600.56 888.83 601.5 875.36 792.17 997.94 791.46 1013.31 600.56"/><polygon class="cls-32" points="224.53 1048.23 107.21 1052.6 89.64 820.42 209.85 819.75 224.53 1048.23"/><polygon class="cls-33" points="868.83 473.09 880.75 579.66 883.1 484.74 1034.63 431.72 1041.72 417.86 868.83 473.09"/><polygon class="cls-34" points="213.71 478.82 195.31 482.32 55.16 449.27 36.94 565.51 26.73 586.28 43.74 427.06 213.71 478.82"/><polygon class="cls-18" points="650.77 0 632.47 19.25 592.1 176.84 489.64 182.05 475.52 189.38 610.24 187.85 650.77 0"/><polygon class="cls-18" points="1013.31 600.56 997.94 791.46 875.36 792.17 987.21 776.91 1003.11 617.51 1013.31 600.56"/><polygon class="cls-18" points="225.99 1070.95 240.23 1292.77 156.15 1292.87 224.4 1281.61 221.19 1092.66 225.99 1070.95"/><polygon class="cls-18" points="209.85 819.75 224.53 1048.23 107.21 1052.6 120.37 1039.37 208.74 1034.64 200.32 848.23 209.85 819.75"/><polygon class="cls-18" points="888.53 1292 956.73 1291.92 974.46 1072.59 946.12 1280.3 888.53 1292"/><polygon class="cls-35" points="841.23 807.56 867.74 823.61 857.41 1046.04 878.51 827.22 983.57 825.42 995.63 815.37 873.67 816.05 841.23 807.56"/><polygon class="cls-36" points="436.26 2.81 475.52 189.38 489.64 182.05 457.58 15.33 632.47 19.25 650.77 0 436.26 2.81"/><polygon class="cls-37" points="883.6 680.4 894.26 611.58 1005.68 600.62 888.83 601.5 869.74 597.04 887.44 609.52 883.6 680.4"/><polygon class="cls-38" points="238.33 1301.33 240.23 1292.77 840.35 1292.06 828.36 1303.42 238.33 1301.33"/><polygon class="cls-18" points="828.36 1303.42 810.29 1350.75 271.53 1356.79 256.9 1367.2 826.84 1361.8 840.35 1292.06 828.36 1303.42"/><g class="cls-39"><g class="cls-40"><polygon class="cls-41" points="1077.18 723.62 881.07 738.53 861.88 987.51 1018.92 986.88 1077.18 723.62"/><polygon class="cls-41" points="198.15 637.51 0 671.26 5.1 990.93 220.51 990.07 198.15 637.51"/><polygon class="cls-41" points="1044.32 1115.29 854.27 1123.83 850.29 1160.91 1019.84 1160.5 1044.32 1115.29"/><path class="cls-41" d="M770.26,85.69,684.5,208.26s52.27,31.25,80.27,66.56l147.47-109Z" transform="translate(26.73 0)"/></g></g><polygon class="cls-42" points="209.86 819.74 89.65 820.41 104.89 1019.99 100.42 830.87 191.77 827.94 209.86 819.74"/><polygon class="cls-18" points="956.73 1291.92 945.81 1320.16 929.38 1403.22 145.73 1411.4 140.67 1421.06 945.59 1417.22 956.73 1291.92"/><polygon class="cls-43" points="825.55 1269.52 822.26 1264.52 682.6 1264.72 675.57 1246.08 669.4 1246.09 674.9 1264.73 536.86 1264.93 538.24 1246.3 532.91 1246.31 530.87 1264.94 406.12 1265.12 415.37 1246.5 407.4 1248.07 399.38 1265.13 258.29 1265.33 252.28 1274.47 395.57 1273.23 380.08 1298.26 391.66 1365.32 393.45 1361.76 389.65 1298.25 402.11 1273.18 530.09 1272.07 527.06 1299.75 529.11 1363.09 532.61 1363.08 534.41 1298.08 536.34 1272.02 676.69 1270.81 684.68 1297.91 681.45 1358.86 683.51 1363.22 697.58 1297.9 684.87 1270.73 825.55 1269.52"/><polygon class="cls-44" points="682.6 1264.72 675.57 1246.08 685.85 1259.73 818.18 1262.58 822.26 1264.52 682.6 1264.72"/><polygon class="cls-45" points="532.91 1246.31 530.87 1264.94 406.12 1265.12 415.37 1246.5 532.91 1246.31"/><polygon class="cls-46" points="534.39 1304.26 535.89 1354.29 681.8 1352.19 684.38 1303.58 534.39 1304.26"/><polygon class="cls-45" points="395.57 1273.23 386.46 1292.6 240.24 1292.77 252.28 1274.47 395.57 1273.23"/><path class="cls-18" d="M226.3,1337.44s225,22.73,377.87-33.29l197.45-.73,12-11.36-13.51,69.74-569.95,5.4Z" transform="translate(26.73 0)"/><path class="cls-47" d="M213.51,1292.77s302.31-27.85,415.67-37.33C743,1245.92,786,1250.06,786,1250.06l-3.46-7.79-538.78,4.46Z" transform="translate(26.73 0)"/><polygon class="cls-48" points="270.34 1366.3 286.3 1377.82 835.84 1376.19 847.08 1309.21 838.15 1303.41 826.84 1361.8 270.34 1366.3"/><polygon class="cls-49" points="534.41 1298.08 682.87 1295.8 684.38 1303.58 534.4 1302.38 534.41 1298.08"/><polygon class="cls-50" points="269.56 1249.15 811.18 1247.86 810.02 1244.99 270.53 1246.73 269.56 1249.15"/><path class="cls-51" d="M808.58,334.69l-31.12,26.4c-310.16-129-338,302.88-338,302.88l-59.9,581.29-166.07,47.51L167.54,585l7-.05L187,478.81,174.28,475C187.85,402.4,220,334.45,268,280.07c43-48.68,95.66-83.53,153.32-102.13L445,171.3l3.81,18.09,134.71-1.53,3.58-18.2.21,0c67.09,14.55,128.55,50.72,177.48,105.2A372.42,372.42,0,0,1,799,319.27l9.53,15.27Z" transform="translate(26.73 0)"/><polygon class="cls-18" points="1041.72 554.28 895.08 570.16 880.75 579.66 1058.1 578.29 1041.72 417.86 1033.17 457.22 1041.72 554.28"/><g class="cls-52"><path class="cls-53" d="M876.74,860.85s9.69-3.9,10.67-1.27.39,7.71-5.61,9.36-11.13,9.77-11.13,9.77-2.18-12.14.38-12.56S876.74,860.85,876.74,860.85Z" transform="translate(26.73 0)"/><path class="cls-53" d="M894.73,873.73c5,.59,10.33,5.22,4.77,6.46a14.26,14.26,0,0,1-10-1.57Z" transform="translate(26.73 0)"/><path class="cls-53" d="M877.31,913.79c-7.45,5.47-10.56,3.22-11.09,13.9s1.21,18.47,4.62,23.06,20.71,2.51,16.59-6.08-11.64-11-10-15.2,8.47-7.67,6.48-11.68S877.31,913.79,877.31,913.79Z" transform="translate(26.73 0)"/><path class="cls-53" d="M219.88,266.72c7.94-2.4,16,2.8,9.09,6.51s-5.11,8.9-15.68,7.07-22.39-14.4-10.83-14S219.88,266.72,219.88,266.72Z" transform="translate(26.73 0)"/><path class="cls-53" d="M215.27,303.07c1.43,1,3.68,8.51.16,8.55s-15,1.47-12.15-4.15S215.27,303.07,215.27,303.07Z" transform="translate(26.73 0)"/></g><polygon class="cls-18" points="213.72 478.81 201.31 493.63 186.22 577.33 44.94 577.33 26.73 586.28 201.3 584.93 213.72 478.81"/><path class="cls-54" d="M588.78,1323l-36.18-7.19-5.75-725.45s-3.06-145.91,29-248.58c18.37-58.81,43.32-91.57,58.1-107A39.65,39.65,0,0,1,660,222.67L696,220.34Z" transform="translate(26.73 0)"/><path class="cls-55" d="M805.26,544.19c.06,17-.29,34.22-1.07,51.38L802.36,636h0l-28,618.65h0l-1.37.5-4.16,1.53-3.25,1.2-162.26,59.78-3.88,1.43-8.94,3.29-.16.06-1.52.56-.92-81.75-7.32-646.61C579.34,488,594.26,383.46,621.3,310.73c12.34-33.19,26.38-57.68,41.27-72.76,13.15-13.33,27-19.3,40.86-17.43.9.12,1.79.27,2.69.46l1.1.25,1.09.28,1.09.31c.73.2,1.46.44,2.18.71h0c.71.25,1.42.53,2.12.83a41.84,41.84,0,0,1,4.28,2.06l1.06.59,1,.62c.71.41,1.41.86,2.11,1.34,1,.69,2.09,1.44,3.13,2.24,1.38,1,2.75,2.18,4.11,3.41l1,.93c1,.94,2,1.92,3,3,1.34,1.37,2.67,2.83,4,4.36q3,3.45,5.83,7.42l.95,1.33c.32.45.63.91,1,1.37q1.9,2.76,3.74,5.73c.94,1.49,1.86,3,2.76,4.6l.9,1.58c.31.54.61,1.07.91,1.62q1.31,2.34,2.56,4.8c.63,1.21,1.24,2.43,1.86,3.67l.87,1.78q1.77,3.68,3.49,7.56c.45,1,.9,2.05,1.35,3.1.36.83.71,1.67,1.06,2.51.28.66.55,1.32.82,2,.82,2,1.62,4,2.42,6.11.39,1,.78,2,1.16,3.07l1,2.68c.32.9.65,1.81,1,2.72l.84,2.39c.1.27.19.55.28.83.27.77.54,1.55.8,2.34.48,1.41,1,2.83,1.42,4.28.23.71.46,1.42.68,2.14q2.67,8.36,5.14,17.36c.26.93.51,1.87.76,2.81s.51,1.88.75,2.82q1.13,4.26,2.19,8.62,1.42,5.82,2.75,11.8c.38,1.7.75,3.42,1.12,5.14.56,2.6,1.1,5.23,1.63,7.87.14.73.29,1.46.43,2.19.21,1,.41,2.06.6,3.1.13.67.26,1.34.38,2,.27,1.41.53,2.82.79,4.24.2,1,.39,2.1.57,3.16q.56,3.17,1.1,6.36t1,6.43c.34,2.15.67,4.32,1,6.49.17,1.08.33,2.18.48,3.27q1,6.56,1.82,13.24.39,3,.76,6c.2,1.69.4,3.38.6,5.09q.42,3.69.82,7.41c.11,1,.21,1.91.3,2.86.12,1.12.23,2.24.34,3.36l.24,2.39c.32,3.27.62,6.57.9,9.87.12,1.33.23,2.66.34,4,0,.42.07.84.1,1.26q.18,2.13.33,4.26l.18,2.43c.1,1.3.19,2.6.28,3.9.08,1,.15,2.11.21,3.17.06.85.12,1.69.17,2.54.11,1.65.21,3.3.3,5s.21,3.58.3,5.37q.57,10.85.92,21.84.09,2.63.15,5.25.15,5.67.24,11.36l.06,4.7,0,4.07C805.25,541.76,805.26,543,805.26,544.19Z" transform="translate(26.73 0)"/><path class="cls-56" d="M805.26,544.19c.06,17-.29,34.22-1.07,51.38L802.36,636h0l-28,618.65h0l-1.37.5,28.94-646.67c4.24-94.68-4-189.81-23.36-261.67-14.94-55.54-35.26-93.22-58.33-107.66a42.94,42.94,0,0,0-13.85-5.79l-.46-.1c-29.89-6-59.61,26.1-83.06,91-26.46,73.19-41.09,178.09-39.94,285l7.57,713.18-.16.06-1.52.57h0l-.92-81.75-7.32-646.61C579.34,488,594.26,383.46,621.3,310.73c12.34-33.19,26.38-57.68,41.27-72.76,13.17-13.34,27-19.31,40.92-17.41.87.11,1.75.26,2.63.45l1.1.24,1.09.28,1.09.31c.73.21,1.45.45,2.18.71h0c.7.26,1.41.54,2.12.83q2.14.9,4.28,2.06l1.06.59,1,.62c.71.43,1.41.88,2.11,1.34,1,.7,2.09,1.45,3.13,2.24q2.07,1.59,4.11,3.41l1,.93c1,.94,2,1.93,3,3,1.33,1.38,2.66,2.83,4,4.36q3,3.45,5.83,7.42l.95,1.33c.32.45.63.91,1,1.37,1.26,1.83,2.51,3.75,3.74,5.73q1.39,2.24,2.76,4.6l.9,1.58c.31.54.61,1.07.91,1.62q1.29,2.34,2.56,4.8c.63,1.21,1.24,2.43,1.86,3.67l.87,1.78q1.77,3.68,3.49,7.56c.45,1,.9,2.05,1.35,3.1.36.83.71,1.67,1.06,2.51.28.66.55,1.32.82,2,.82,2,1.62,4,2.42,6.11.39,1,.78,2,1.16,3.07l1,2.68c.32.9.65,1.81,1,2.72l.84,2.39c.1.27.19.55.28.83.27.77.54,1.55.8,2.34.48,1.41,1,2.83,1.42,4.28.23.71.46,1.42.68,2.14q2.67,8.36,5.14,17.36c.26.93.51,1.87.76,2.81s.51,1.88.75,2.82q1.13,4.26,2.19,8.62,1.42,5.82,2.75,11.8c.38,1.7.75,3.42,1.12,5.14.56,2.6,1.1,5.23,1.63,7.87.14.73.29,1.46.43,2.19.21,1,.41,2.06.6,3.1.15.73.29,1.47.43,2.2h0c.25,1.34.5,2.69.74,4,.2,1,.39,2.1.57,3.16q.56,3.17,1.1,6.36t1,6.43c.34,2.15.68,4.31,1,6.49.17,1.08.33,2.18.48,3.27q1,6.56,1.82,13.24.39,3,.76,6c.2,1.69.4,3.38.6,5.09.28,2.46.56,4.93.82,7.41.11,1,.21,1.91.3,2.86.12,1.12.23,2.24.34,3.36l.24,2.39c.32,3.27.62,6.57.9,9.87.12,1.33.23,2.66.34,4,0,.42.07.84.1,1.26q.18,2.13.33,4.26l.18,2.43c.1,1.3.19,2.6.28,3.9.08,1,.15,2.11.21,3.17.06.85.12,1.69.17,2.54.11,1.65.21,3.3.3,5s.21,3.58.3,5.37q.57,10.85.92,21.84.09,2.63.15,5.25.15,5.67.24,11.36l.06,4.7,0,4.07C805.25,541.76,805.26,543,805.26,544.19Z" transform="translate(26.73 0)"/><path class="cls-57" d="M765.54,1257.89,599.4,1319.1l-5.46-688.85c-1.65-209.31,50.79-382.83,111.47-371.48h0c56.92,10.65,95,181.56,87,368.68Z" transform="translate(26.73 0)"/><g class="cls-58"><path class="cls-59" d="M765.54,1257.89,599.4,1319.1c87.41-233.5,154.81-458.86,193-691.65Z" transform="translate(26.73 0)"/></g><path class="cls-60" d="M598.21,630.19l5.07,687.48-3.88,1.43L594,630.25C592.29,421,644.73,247.41,705.41,258.77a20.33,20.33,0,0,1,2,.45C647.8,252.1,596.68,423.77,598.21,630.19Z" transform="translate(26.73 0)"/><path class="cls-61" d="M795.83,627.41,768.78,1256.7l-3.24,1.19,26.85-630.43c4.06-95.2-3.64-185.21-19.6-252.64-15.26-64.48-38.14-108.65-65.39-115.6.66.06,1.32.17,2,.29,28,5.24,51.51,49.89,67,115.77C792.29,442.57,799.91,532.39,795.83,627.41Z" transform="translate(26.73 0)"/><polygon class="cls-62" points="625.59 1263.22 626.13 1319.1 795.51 1256.7 797.49 1210.81 625.59 1263.22"/><polygon class="cls-63" points="794.21 1207.91 631.5 1256.97 625.59 1263.22 797.49 1210.81 794.21 1207.91"/><polygon class="cls-61" points="626.13 1319.1 629.95 1308.81 792.62 1249.63 795.22 1215.06 797.49 1210.81 795.51 1256.7 626.13 1319.1"/><path class="cls-64" d="M720.89,353.2l-5,244.37,57.86.16.5-7.78c5.26-118.82-15.85-213.68-53.31-236.75Z" transform="translate(26.73 0)"/><path class="cls-65" d="M723.42,576.66l4.2-195.19c12.93,12.79,23.32,36,30.42,67.94,7.92,35.52,11.26,79.51,9.87,127.89Z" transform="translate(26.73 0)"/><polygon class="cls-66" points="741.22 662.98 736.72 880.78 786.51 873.23 796.46 661.16 741.22 662.98"/><polygon class="cls-67" points="744.05 860.17 747.86 683.25 788.84 681.44 780.77 855 744.05 860.17"/><polygon class="cls-68" points="735.35 946.95 730.11 1200.5 774.71 1186.01 785.99 937.46 735.35 946.95"/><polygon class="cls-69" points="737.17 1180.26 741.8 964.83 778.46 957.57 769.22 1170.16 737.17 1180.26"/><path class="cls-70" d="M686.15,348.44l-4.16,249-64.12-.18-.25-8.47c-1.19-129.85,27.22-227,68.53-240.38Z" transform="translate(26.73 0)"/><path class="cls-71" d="M625.54,575.26C626,523,631.67,476,642.18,439.45c9.26-32.22,21.58-54.07,35.88-64L674.88,576Z" transform="translate(26.73 0)"/><polygon class="cls-72" points="707.61 664.08 703.91 885.75 649.32 894.03 646.61 666.09 707.61 664.08"/><polygon class="cls-73" points="656.73 872.48 654.65 687.37 702.94 685.23 697.01 866.8 656.73 872.48"/><polygon class="cls-74" points="702.79 953.06 698.48 1210.77 647.54 1227.31 647.24 963.48 702.79 953.06"/><polygon class="cls-75" points="652.68 1206.87 655.14 981.98 695.31 974.03 691.82 1194.54 652.68 1206.87"/><polygon class="cls-76" points="741.8 964.83 778.46 957.57 773.89 969.81 745.97 978.42 740.94 1167.3 737.17 1180.26 741.8 964.83"/><polygon class="cls-60" points="769.22 1170.16 778.46 957.57 773.89 969.81 765.53 1160.1 740.94 1167.3 737.17 1180.26 769.22 1170.16"/><polygon class="cls-77" points="773.89 969.81 765.53 1160.1 740.94 1167.3 745.97 978.42 773.89 969.81"/><polygon class="cls-78" points="653.69 982.27 695.31 974.03 690.45 986.86 657.74 993.54 656.66 1193.3 652.68 1206.87 653.69 982.27"/><polygon class="cls-60" points="691.82 1194.54 695.31 974.03 690.45 986.86 688.18 1183.98 656.66 1193.3 652.68 1206.87 691.82 1194.54"/><polygon class="cls-79" points="690.45 986.86 688.18 1183.98 656.66 1193.3 657.74 993.54 690.45 986.86"/><polygon class="cls-80" points="747.42 683.27 788.84 681.44 783.64 696.43 752.09 701.87 747.96 844.08 743.63 860.23 747.42 683.27"/><polygon class="cls-60" points="780.77 855 788.84 681.44 783.64 696.43 775.91 840.89 747.96 844.08 743.63 860.23 780.77 855"/><polygon class="cls-81" points="783.64 696.43 775.91 840.89 747.95 844.08 752.08 701.87 783.64 696.43"/><polygon class="cls-82" points="654.54 687.37 702.84 685.24 696.54 701 659.71 701.51 660.75 858.26 656.73 872.48 654.54 687.37"/><polygon class="cls-60" points="697.55 866.73 702.94 685.23 696.54 701 692.86 851.91 660.75 858.26 656.73 872.48 697.55 866.73"/><polygon class="cls-83" points="696.54 701 692.86 851.91 660.75 858.26 659.71 701.51 696.54 701"/><path class="cls-60" d="M729.27,559.15l-5.85,17.51,44.49.64s7.76-143.59-40.29-195.83l5.63,19.75S762.48,436.88,763,560Z" transform="translate(26.73 0)"/><polygon class="cls-84" points="754.35 381.46 750.15 576.66 756 559.15 759.98 401.22 754.35 381.46"/><polygon class="cls-60" points="652.27 575.26 660.24 552.72 693.52 553.59 700.45 400.92 704.79 375.43 701.61 575.97 652.27 575.26"/><path class="cls-85" d="M673.72,400.92s-35.61,26.38-40.22,151.8l-8,22.54s2.18-168.43,52.52-199.83Z" transform="translate(26.73 0)"/><polygon class="cls-86" points="800.43 597.73 795.96 589.31 748.47 590 742.57 597.57 800.43 597.73"/><polygon class="cls-87" points="786.51 873.23 783.9 868.75 741.47 875.06 736.72 880.78 786.51 873.23"/><polygon class="cls-88" points="774.71 1186.01 771.25 1179.95 734.08 1191.87 730.11 1200.5 774.71 1186.01"/><polygon class="cls-89" points="698.48 1210.77 693.2 1206.09 650.91 1219.68 647.54 1227.31 698.48 1210.77"/><polygon class="cls-90" points="649.32 894.03 652.58 884.93 699.82 877.98 703.91 885.75 649.32 894.03"/><polygon class="cls-91" points="708.73 597.47 704.5 588.62 649.92 588.21 644.6 597.29 708.73 597.47"/><polygon class="cls-92" points="798.93 655.01 793.05 669.03 743.95 670.86 739.83 866.94 736.72 880.78 739.92 656.75 798.93 655.01"/><polygon class="cls-92" points="649.32 894.03 652.58 884.93 650.06 679.34 703.07 677.23 710.01 657.63 644.03 659.58 649.32 894.03"/><polygon class="cls-92" points="647.54 1227.31 650.91 1219.68 649.67 970.84 700.84 961.03 707.54 941.77 643.86 953.36 647.54 1227.31"/><polygon class="cls-92" points="730.17 1197.35 734.08 1191.87 736.85 954.13 783.54 945.19 789.84 926.8 731.75 937.37 730.17 1197.35"/><path class="cls-93" d="M733.25,401.22l-4,157.93L763,560S765.63,458.13,733.25,401.22Z" transform="translate(26.73 0)"/><path class="cls-94" d="M673.72,400.92l-6.93,152.67-33.29-.87S635.15,425.63,673.72,400.92Z" transform="translate(26.73 0)"/><path class="cls-95" d="M704.73,634.79c-.18,9.43-3,17.13-6.35,17.22s-5.93-7.52-5.76-17,3-17.26,6.4-17.29S704.91,625.34,704.73,634.79Z" transform="translate(26.73 0)"/><path class="cls-96" d="M703.56,633.1c-.17,8.5-2.72,15.44-5.73,15.51s-5.33-6.78-5.18-15.33,2.74-15.54,5.76-15.56S703.72,624.59,703.56,633.1Z" transform="translate(26.73 0)"/><path class="cls-95" d="M703.56,633.1c-.17,8.5-2.72,15.43-5.73,15.51-2.69.07-4.84-5.44-5.14-12.73.54,5.72,2.36,9.83,4.59,9.78,2.76-.07,5.12-6.45,5.27-14.25.12-6.32-1.24-11.68-3.23-13.48C701.87,619.13,703.71,625.47,703.56,633.1Z" transform="translate(26.73 0)"/><path class="cls-97" d="M701.49,632.44c-.1,5.64-1.8,10.23-3.79,10.28s-3.53-4.51-3.43-10.16,1.81-10.28,3.81-10.3S701.6,626.8,701.49,632.44Z" transform="translate(26.73 0)"/><path class="cls-98" d="M629,922.58c-.15,14.94-4.88,27.84-10.6,28.86S608,941.12,608.13,926s4.93-28.19,10.72-29.07S629.11,907.58,629,922.58Z" transform="translate(26.73 0)"/><path class="cls-99" d="M623.52,916.22c-.12,12.56-4.38,23.42-9.55,24.3s-9.34-8.65-9.25-21.33,4.42-23.68,9.64-24.44S623.64,903.62,623.52,916.22Z" transform="translate(26.73 0)"/><path class="cls-98" d="M623.52,916.22c-.12,12.56-4.38,23.42-9.55,24.29-4.65.79-8.47-6.78-9.14-17.48,1,8.32,4.29,13.92,8.14,13.27,4.75-.79,8.67-10.78,8.78-22.32.08-9.36-2.36-17-5.81-19.13C620.35,896,623.63,904.93,623.52,916.22Z" transform="translate(26.73 0)"/><g class="cls-100"><path class="cls-101" d="M617.39,912.37c-.07,7.46-2.6,13.89-5.66,14.39s-5.53-5.16-5.47-12.65,2.61-14,5.69-14.44S617.45,904.91,617.39,912.37Z" transform="translate(26.73 0)"/></g><g class="cls-102"><polygon class="cls-103" points="752.08 701.87 747.95 844.08 775.91 840.89 783.64 696.43 752.08 701.87"/></g><g class="cls-104"><polygon class="cls-105" points="745.97 978.42 740.94 1167.3 765.53 1160.1 773.89 969.81 745.97 978.42"/></g><g class="cls-106"><polygon class="cls-107" points="690.45 986.86 683.45 989.46 663.35 1191.47 688.18 1183.98 690.45 986.86"/></g><g class="cls-108"><path class="cls-109" d="M732.47,442l-3.2,117.13L763,560s2.27-92.93-22.3-145.28Z" transform="translate(26.73 0)"/></g><path class="cls-51" d="M808.44,569.21l-18.9,686.19-24,2.49L706.34,233.37l-2.86-12.81c.88.11,1.76.26,2.64.44,23.45,4.88,44.85,31.79,61.85,76.07,8.46,25.25,14.78,53.49,22.94,84.36h0C811.23,458.44,808.44,569.21,808.44,569.21Z" transform="translate(26.73 0)"/><path class="cls-51" d="M813.53,1291.92l-13.42,69.88-209.65-39.41-2.6-81.13-7.32-646.61C579.34,488,594.26,383.46,621.3,310.73c12.34-33.19,26.38-57.68,41.27-72.76,13.15-13.33,27-19.3,40.86-17.43l.06,0c5.63,2.23,20.5,3.25,26,13.09s3.09,7.69,15.75,18.37c15.66,13.21,28.86,31.87,29.76,34.7,0,0,0,0,0,0,41.86,50.56,67.91,107,82.13,175.7.24,1.18,1.06,5.53,1.06,5.53l-16.09,5.14L854,579.66h0l8.43,21.75L849.32,701Z" transform="translate(26.73 0)"/></g></g></g></svg>