<svg xmlns="http://www.w3.org/2000/svg" xmlns:xlink="http://www.w3.org/1999/xlink" viewBox="0 0 1077.18 1421.06"><defs><style>.cls-1{mask:url(#mask);}.cls-10,.cls-100,.cls-102,.cls-103,.cls-105,.cls-106,.cls-12,.cls-2,.cls-22,.cls-25,.cls-27,.cls-29,.cls-31,.cls-33,.cls-35,.cls-4,.cls-53,.cls-56,.cls-58,.cls-59,.cls-6,.cls-73,.cls-8,.cls-85,.cls-98{mix-blend-mode:multiply;}.cls-2{fill:url(#linear-gradient);}.cls-3{mask:url(#mask-2);}.cls-4{fill:url(#linear-gradient-2);}.cls-5{mask:url(#mask-3);}.cls-6{fill:url(#linear-gradient-3);}.cls-7{mask:url(#mask-4);}.cls-8{fill:url(#linear-gradient-4);}.cls-9{mask:url(#mask-5);}.cls-10{fill:url(#linear-gradient-5);}.cls-11{mask:url(#mask-6);}.cls-12{fill:url(#linear-gradient-6);}.cls-13{fill:none;}.cls-14{isolation:isolate;}.cls-15{fill:url(#linear-gradient-7);}.cls-16{fill:url(#linear-gradient-8);}.cls-17{fill:#0a234c;}.cls-18{fill:url(#linear-gradient-9);}.cls-19{mask:url(#mask-7);}.cls-20{opacity:0.29;fill:url(#linear-gradient-10);}.cls-20,.cls-37,.cls-39,.cls-41,.cls-43,.cls-45,.cls-46,.cls-64,.cls-66,.cls-68,.cls-70,.cls-88,.cls-89,.cls-92,.cls-94{mix-blend-mode:overlay;}.cls-21{fill:#00318c;}.cls-22{fill:#90e4f8;}.cls-23{fill:url(#linear-gradient-11);}.cls-24{fill:url(#linear-gradient-12);}.cls-25,.cls-27,.cls-29,.cls-31,.cls-33,.cls-35{opacity:0.39;}.cls-25{fill:url(#linear-gradient-13);}.cls-26{fill:url(#linear-gradient-14);}.cls-27{fill:url(#linear-gradient-15);}.cls-28{fill:url(#linear-gradient-16);}.cls-29{fill:url(#linear-gradient-17);}.cls-30{fill:url(#linear-gradient-18);}.cls-31{fill:url(#linear-gradient-19);}.cls-32{fill:url(#linear-gradient-20);}.cls-33{fill:url(#linear-gradient-21);}.cls-34{fill:url(#linear-gradient-22);}.cls-35{fill:url(#linear-gradient-23);}.cls-36{fill:url(#linear-gradient-24);}.cls-37,.cls-41,.cls-64,.cls-66{opacity:0.37;}.cls-37{fill:url(#linear-gradient-25);}.cls-38{fill:url(#linear-gradient-26);}.cls-39,.cls-43,.cls-46{opacity:0.41;}.cls-39{fill:url(#linear-gradient-27);}.cls-40{fill:url(#linear-gradient-28);}.cls-41{fill:url(#linear-gradient-29);}.cls-42{fill:url(#linear-gradient-30);}.cls-43{fill:url(#linear-gradient-31);}.cls-44{fill:url(#linear-gradient-32);}.cls-45{opacity:0.57;fill:url(#linear-gradient-33);}.cls-46{fill:url(#linear-gradient-34);}.cls-47{fill:url(#linear-gradient-35);}.cls-48{fill:url(#linear-gradient-36);}.cls-49{fill:url(#linear-gradient-37);}.cls-50{fill:url(#linear-gradient-38);}.cls-51{fill:url(#linear-gradient-39);}.cls-52{fill:url(#linear-gradient-40);}.cls-53{fill:#ffd6ae;}.cls-54{fill:url(#linear-gradient-41);}.cls-55{fill:url(#linear-gradient-42);}.cls-56{fill:#f1b792;}.cls-57{fill:url(#radial-gradient);}.cls-58{fill:#f6c8c8;}.cls-59{fill:#9bcfd3;}.cls-60{fill:url(#radial-gradient-2);}.cls-61{mask:url(#mask-8);}.cls-62{fill:url(#linear-gradient-43);}.cls-63{mask:url(#mask-9);}.cls-64{fill:url(#linear-gradient-44);}.cls-65{mask:url(#mask-10);}.cls-66{fill:url(#linear-gradient-45);}.cls-67{mask:url(#mask-11);}.cls-68{fill:url(#linear-gradient-46);}.cls-69{mask:url(#mask-12);}.cls-70{fill:url(#linear-gradient-47);}.cls-71{fill:url(#linear-gradient-48);}.cls-72{fill:url(#linear-gradient-49);}.cls-73{fill:#e2d3c5;}.cls-74{fill:url(#linear-gradient-50);}.cls-75{fill:url(#linear-gradient-51);}.cls-76{fill:#442917;}.cls-77{fill:url(#linear-gradient-52);}.cls-78{fill:url(#linear-gradient-53);}.cls-79{fill:url(#linear-gradient-54);}.cls-80{fill:url(#linear-gradient-55);}.cls-81{fill:url(#linear-gradient-56);}.cls-82{fill:url(#linear-gradient-57);}.cls-83{fill:#7c3f1d;}.cls-84{fill:#775530;}.cls-85{fill:#c7cfd1;}.cls-86{fill:url(#linear-gradient-58);}.cls-87{fill:url(#linear-gradient-59);}.cls-88{fill:url(#linear-gradient-60);}.cls-89{fill:url(#linear-gradient-61);}.cls-90{fill:#f2c2a0;}.cls-91{fill:#ffe8d2;}.cls-92{fill:url(#linear-gradient-62);}.cls-93{fill:url(#linear-gradient-63);}.cls-94{opacity:0.45;}.cls-95{clip-path:url(#clip-path);}.cls-96{fill:#48494e;}.cls-97{fill:#f2c9a0;}.cls-98{fill:url(#linear-gradient-64);}.cls-99{fill:url(#linear-gradient-65);}.cls-100{fill:#a37657;}.cls-100,.cls-107{opacity:0.24;}.cls-101{fill:#fff;opacity:0.31;mix-blend-mode:soft-light;}.cls-102{fill:#d3bca9;opacity:0.5;}.cls-103{fill:#b28d6f;}.cls-104{fill:url(#linear-gradient-66);}.cls-105{fill:#bdc4c6;}.cls-106{fill:#93a5aa;}.cls-108{fill:#7f3009;}.cls-109{filter:url(#luminosity-noclip-12);}.cls-110{filter:url(#luminosity-noclip-11);}.cls-111{filter:url(#luminosity-noclip-10);}.cls-112{filter:url(#luminosity-noclip-9);}.cls-113{filter:url(#luminosity-noclip-8);}.cls-114{filter:url(#luminosity-noclip-7);}.cls-115{filter:url(#luminosity-noclip-6);}.cls-116{filter:url(#luminosity-noclip-5);}.cls-117{filter:url(#luminosity-noclip-4);}.cls-118{filter:url(#luminosity-noclip-3);}.cls-119{filter:url(#luminosity-noclip-2);}.cls-120{filter:url(#luminosity-noclip);}</style><filter id="luminosity-noclip" x="282.81" y="-8902.53" width="498.76" height="32766" filterUnits="userSpaceOnUse" color-interpolation-filters="sRGB"><feFlood flood-color="#fff" result="bg"/><feBlend in="SourceGraphic" in2="bg"/></filter><mask id="mask" x="282.81" y="-8902.53" width="498.76" height="32766" maskUnits="userSpaceOnUse"><g class="cls-120"/></mask><linearGradient id="linear-gradient" x1="938.19" y1="873.8" x2="284.33" y2="1079.81" gradientUnits="userSpaceOnUse"><stop offset="0" stop-color="#fff"/><stop offset="0.13" stop-color="#e5e5e5"/><stop offset="0.4" stop-color="#a2a2a2"/><stop offset="0.8" stop-color="#383838"/><stop offset="1"/></linearGradient><filter id="luminosity-noclip-2" x="594.67" y="-8902.53" width="95.83" height="32766" filterUnits="userSpaceOnUse" color-interpolation-filters="sRGB"><feFlood flood-color="#fff" result="bg"/><feBlend in="SourceGraphic" in2="bg"/></filter><mask id="mask-2" x="594.67" y="-8902.53" width="95.83" height="32766" maskUnits="userSpaceOnUse"><g class="cls-119"/></mask><linearGradient id="linear-gradient-2" x1="535.34" y1="242.63" x2="739.74" y2="800.07" gradientUnits="userSpaceOnUse"><stop offset="0" stop-color="#fff"/><stop offset="0.07" stop-color="#e5e5e5"/><stop offset="0.23" stop-color="#a2a2a2"/><stop offset="0.46" stop-color="#383838"/><stop offset="0.58"/></linearGradient><filter id="luminosity-noclip-3" x="275.27" y="-8902.53" width="27.65" height="32766" filterUnits="userSpaceOnUse" color-interpolation-filters="sRGB"><feFlood flood-color="#fff" result="bg"/><feBlend in="SourceGraphic" in2="bg"/></filter><mask id="mask-3" x="275.27" y="-8902.53" width="27.65" height="32766" maskUnits="userSpaceOnUse"><g class="cls-118"/></mask><linearGradient id="linear-gradient-3" x1="266.73" y1="847.99" x2="319.15" y2="901.03" gradientUnits="userSpaceOnUse"><stop offset="0" stop-color="#fff"/><stop offset="0.6"/></linearGradient><filter id="luminosity-noclip-4" x="587.34" y="-8902.53" width="93.64" height="32766" filterUnits="userSpaceOnUse" color-interpolation-filters="sRGB"><feFlood flood-color="#fff" result="bg"/><feBlend in="SourceGraphic" in2="bg"/></filter><mask id="mask-4" x="587.34" y="-8902.53" width="93.64" height="32766" maskUnits="userSpaceOnUse"><g class="cls-117"/></mask><linearGradient id="linear-gradient-4" x1="579.81" y1="695.42" x2="685.73" y2="801.33" xlink:href="#linear-gradient"/><filter id="luminosity-noclip-5" x="584.82" y="-8902.53" width="84.07" height="32766" filterUnits="userSpaceOnUse" color-interpolation-filters="sRGB"><feFlood flood-color="#fff" result="bg"/><feBlend in="SourceGraphic" in2="bg"/></filter><mask id="mask-5" x="584.82" y="-8902.53" width="84.07" height="32766" maskUnits="userSpaceOnUse"><g class="cls-116"/></mask><linearGradient id="linear-gradient-5" x1="562.27" y1="976.92" x2="688.6" y2="1103.25" xlink:href="#linear-gradient"/><filter id="luminosity-noclip-6" x="373.87" y="-8902.53" width="65.55" height="32766" filterUnits="userSpaceOnUse" color-interpolation-filters="sRGB"><feFlood flood-color="#fff" result="bg"/><feBlend in="SourceGraphic" in2="bg"/></filter><mask id="mask-6" x="373.87" y="-8902.53" width="65.55" height="32766" maskUnits="userSpaceOnUse"><g class="cls-115"/></mask><linearGradient id="linear-gradient-6" x1="323.53" y1="705.37" x2="449.88" y2="1225.65" gradientUnits="userSpaceOnUse"><stop offset="0" stop-color="#fff"/><stop offset="0.11" stop-color="#e5e5e5"/><stop offset="0.36" stop-color="#a2a2a2"/><stop offset="0.71" stop-color="#383838"/><stop offset="0.89"/></linearGradient><linearGradient id="linear-gradient-7" x1="429.9" y1="1265.5" x2="589.29" y2="259.02" gradientUnits="userSpaceOnUse"><stop offset="0" stop-color="#1f2232"/><stop offset="0.99" stop-color="#292b5f"/></linearGradient><linearGradient id="linear-gradient-8" x1="435.46" y1="1244.04" x2="584.8" y2="301.02" gradientUnits="userSpaceOnUse"><stop offset="0" stop-color="#344b88"/><stop offset="0.15" stop-color="#2e458f"/><stop offset="0.52" stop-color="#233a9b"/><stop offset="1" stop-color="#301d54"/></linearGradient><linearGradient id="linear-gradient-9" x1="750.6" y1="1258.89" x2="246.93" y2="362.26" gradientUnits="userSpaceOnUse"><stop offset="0" stop-color="#525fd6"/><stop offset="0.32" stop-color="#344cbf"/><stop offset="0.52" stop-color="#2844b6"/><stop offset="1" stop-color="#573599"/></linearGradient><filter id="luminosity-noclip-7" x="282.81" y="612.84" width="498.76" height="633.83" filterUnits="userSpaceOnUse" color-interpolation-filters="sRGB"><feFlood flood-color="#fff" result="bg"/><feBlend in="SourceGraphic" in2="bg"/></filter><mask id="mask-7" x="309.54" y="612.84" width="498.76" height="633.83" maskUnits="userSpaceOnUse"><g class="cls-114"><g transform="translate(26.73 0)"><g class="cls-1"><path class="cls-2" d="M742,1245.93l-459.17.74C503.87,1047.91,683,839.57,781.57,612.84Z"/></g></g></g></mask><linearGradient id="linear-gradient-10" x1="938.19" y1="873.8" x2="284.33" y2="1079.81" gradientUnits="userSpaceOnUse"><stop offset="0" stop-color="#fff3cf"/><stop offset="0.18" stop-color="#e5e4c8"/><stop offset="0.57" stop-color="#a2bdb7"/><stop offset="1" stop-color="#528ea2"/></linearGradient><linearGradient id="linear-gradient-11" x1="363.77" y1="1146.84" x2="816.83" y2="1335.94" xlink:href="#linear-gradient-9"/><linearGradient id="linear-gradient-12" x1="306.32" y1="1194.12" x2="781.57" y2="1194.12" gradientUnits="userSpaceOnUse"><stop offset="0" stop-color="#465ec5"/><stop offset="0.46" stop-color="#5f76d3"/><stop offset="1" stop-color="#8398e7"/></linearGradient><linearGradient id="linear-gradient-13" x1="339.31" y1="197.68" x2="872.45" y2="781.41" xlink:href="#linear-gradient-9"/><linearGradient id="linear-gradient-14" x1="779.01" y1="1241.98" x2="570.65" y2="187.18" gradientUnits="userSpaceOnUse"><stop offset="0.13" stop-color="#4a82e4"/><stop offset="1" stop-color="#2760c5"/></linearGradient><linearGradient id="linear-gradient-15" x1="628.79" y1="423.91" x2="710.89" y2="1188.62" xlink:href="#linear-gradient-9"/><linearGradient id="linear-gradient-16" x1="372.89" y1="1097.44" x2="906.67" y2="445.32" xlink:href="#linear-gradient-14"/><linearGradient id="linear-gradient-17" x1="567.43" y1="217.24" x2="680.4" y2="1269.45" xlink:href="#linear-gradient-9"/><linearGradient id="linear-gradient-18" x1="460.31" y1="1271.79" x2="1162.03" y2="414.49" xlink:href="#linear-gradient-14"/><linearGradient id="linear-gradient-19" x1="227.26" y1="299.79" x2="762.91" y2="886.27" xlink:href="#linear-gradient-9"/><linearGradient id="linear-gradient-20" x1="547.09" y1="1294.83" x2="337.38" y2="233.17" xlink:href="#linear-gradient-14"/><linearGradient id="linear-gradient-21" x1="391.74" y1="448.88" x2="473.8" y2="1213.21" xlink:href="#linear-gradient-9"/><linearGradient id="linear-gradient-22" x1="223.66" y1="988.68" x2="763.26" y2="329.43" xlink:href="#linear-gradient-14"/><linearGradient id="linear-gradient-23" x1="343.11" y1="250.98" x2="455.82" y2="1300.78" xlink:href="#linear-gradient-9"/><linearGradient id="linear-gradient-24" x1="345.9" y1="1137.94" x2="1066.15" y2="257.99" xlink:href="#linear-gradient-14"/><linearGradient id="linear-gradient-25" x1="576.25" y1="963.09" x2="681.21" y2="1068.05" xlink:href="#linear-gradient-10"/><linearGradient id="linear-gradient-26" x1="699.11" y1="1271.98" x2="410.02" y2="-191.54" xlink:href="#linear-gradient-9"/><linearGradient id="linear-gradient-27" x1="343.55" y1="961.34" x2="452.01" y2="1069.8" xlink:href="#linear-gradient-10"/><linearGradient id="linear-gradient-28" x1="480.74" y1="1332.39" x2="195.58" y2="-111.25" xlink:href="#linear-gradient-9"/><linearGradient id="linear-gradient-29" x1="591.22" y1="678.97" x2="674.99" y2="762.74" xlink:href="#linear-gradient-10"/><linearGradient id="linear-gradient-30" x1="740.64" y1="1153.47" x2="558.45" y2="231.16" xlink:href="#linear-gradient-9"/><linearGradient id="linear-gradient-31" x1="351.34" y1="675.57" x2="441.67" y2="765.91" xlink:href="#linear-gradient-10"/><linearGradient id="linear-gradient-32" x1="512.07" y1="1197.11" x2="328.94" y2="270.03" xlink:href="#linear-gradient-9"/><linearGradient id="linear-gradient-33" x1="561.84" y1="430.12" x2="651.76" y2="520.04" xlink:href="#linear-gradient-10"/><linearGradient id="linear-gradient-34" x1="356.31" y1="447.54" x2="399.62" y2="490.86" xlink:href="#linear-gradient-10"/><linearGradient id="linear-gradient-35" x1="627.7" y1="544.04" x2="709.31" y2="625.66" gradientUnits="userSpaceOnUse"><stop offset="0" stop-color="#8398e7"/><stop offset="0.54" stop-color="#5f76d3"/><stop offset="1" stop-color="#465ec5"/></linearGradient><linearGradient id="linear-gradient-36" x1="620.31" y1="818.12" x2="691.1" y2="888.92" xlink:href="#linear-gradient-35"/><linearGradient id="linear-gradient-37" x1="614.76" y1="1133.54" x2="678.9" y2="1197.68" xlink:href="#linear-gradient-35"/><linearGradient id="linear-gradient-38" x1="394.62" y1="1132.64" x2="461.6" y2="1199.62" xlink:href="#linear-gradient-35"/><linearGradient id="linear-gradient-39" x1="388.98" y1="819.47" x2="459.5" y2="889.98" xlink:href="#linear-gradient-35"/><linearGradient id="linear-gradient-40" x1="372.52" y1="546.21" x2="453.75" y2="627.44" xlink:href="#linear-gradient-35"/><linearGradient id="linear-gradient-41" x1="562.84" y1="436.37" x2="812.58" y2="686.11" xlink:href="#linear-gradient-9"/><linearGradient id="linear-gradient-42" x1="367.78" y1="456.07" x2="523.56" y2="611.84" xlink:href="#linear-gradient-9"/><radialGradient id="radial-gradient" cx="507.25" cy="613.88" r="23.88" gradientUnits="userSpaceOnUse"><stop offset="0.11" stop-color="#3877f2"/><stop offset="0.8" stop-color="#162da3"/><stop offset="0.94" stop-color="#1f3ee1"/></radialGradient><radialGradient id="radial-gradient-2" cx="285.88" cy="867.43" r="37.68" gradientUnits="userSpaceOnUse"><stop offset="0.11" stop-color="#c47128"/><stop offset="0.8" stop-color="#75460a"/><stop offset="0.94" stop-color="#b36b0f"/></radialGradient><filter id="luminosity-noclip-8" x="275.27" y="857.36" width="27.65" height="26.51" filterUnits="userSpaceOnUse" color-interpolation-filters="sRGB"><feFlood flood-color="#fff" result="bg"/><feBlend in="SourceGraphic" in2="bg"/></filter><mask id="mask-8" x="302" y="857.36" width="27.65" height="26.51" maskUnits="userSpaceOnUse"><g class="cls-113"><g transform="translate(26.73 0)"><g class="cls-5"><path class="cls-6" d="M302.92,870.56a13.4,13.4,0,0,1-13.64,13.31c-7.63,0-13.9-5.85-14-13.17a13.39,13.39,0,0,1,13.63-13.33C296.55,857.33,302.82,863.24,302.92,870.56Z"/></g></g></g></mask><linearGradient id="linear-gradient-43" x1="266.73" y1="847.99" x2="319.15" y2="901.03" gradientUnits="userSpaceOnUse"><stop offset="0" stop-color="#fff"/><stop offset="0.6" stop-color="#c99757"/></linearGradient><filter id="luminosity-noclip-9" x="587.34" y="679.66" width="93.64" height="140.27" filterUnits="userSpaceOnUse" color-interpolation-filters="sRGB"><feFlood flood-color="#fff" result="bg"/><feBlend in="SourceGraphic" in2="bg"/></filter><mask id="mask-9" x="614.07" y="679.66" width="93.64" height="140.27" maskUnits="userSpaceOnUse"><g class="cls-112"><g transform="translate(26.73 0)"><g class="cls-7"><polygon class="cls-8" points="591.35 683.88 587.34 819.87 667.12 819.93 680.99 679.66 591.35 683.88"/></g></g></g></mask><linearGradient id="linear-gradient-44" x1="606.54" y1="695.42" x2="712.46" y2="801.33" xlink:href="#linear-gradient-10"/><filter id="luminosity-noclip-10" x="584.82" y="947.05" width="84.07" height="189.12" filterUnits="userSpaceOnUse" color-interpolation-filters="sRGB"><feFlood flood-color="#fff" result="bg"/><feBlend in="SourceGraphic" in2="bg"/></filter><mask id="mask-10" x="611.55" y="947.05" width="84.07" height="189.12" maskUnits="userSpaceOnUse"><g class="cls-111"><g transform="translate(26.73 0)"><g class="cls-9"><polygon class="cls-10" points="588.95 950.25 584.82 1135.96 655.68 1136.17 668.89 947.05 588.95 950.25"/></g></g></g></mask><linearGradient id="linear-gradient-45" x1="589" y1="976.92" x2="715.33" y2="1103.25" xlink:href="#linear-gradient-10"/><filter id="luminosity-noclip-11" x="373.87" y="948.06" width="65.55" height="188.68" filterUnits="userSpaceOnUse" color-interpolation-filters="sRGB"><feFlood flood-color="#fff" result="bg"/><feBlend in="SourceGraphic" in2="bg"/></filter><mask id="mask-11" x="400.6" y="948.06" width="65.55" height="188.68" maskUnits="userSpaceOnUse"><g class="cls-110"><g transform="translate(26.73 0)"><g class="cls-11"><polygon class="cls-12" points="436.89 948.06 418.47 949.25 373.87 1136.74 439.42 1136.74 436.89 948.06"/></g></g></g></mask><linearGradient id="linear-gradient-46" x1="350.26" y1="705.37" x2="476.61" y2="1225.65" gradientUnits="userSpaceOnUse"><stop offset="0" stop-color="#fff3cf"/><stop offset="0.16" stop-color="#e5e4c8"/><stop offset="0.51" stop-color="#a2bdb7"/><stop offset="0.89" stop-color="#528ea2"/></linearGradient><filter id="luminosity-noclip-12" x="594.67" y="413.38" width="95.83" height="135.68" filterUnits="userSpaceOnUse" color-interpolation-filters="sRGB"><feFlood flood-color="#fff" result="bg"/><feBlend in="SourceGraphic" in2="bg"/></filter><mask id="mask-12" x="621.4" y="413.38" width="95.83" height="135.68" maskUnits="userSpaceOnUse"><g class="cls-109"><g transform="translate(26.73 0)"><g class="cls-3"><path class="cls-4" d="M597.33,439.67l-2.66,109.4,95.82-.78s1-88.57-71.73-134.91Z"/></g></g></g></mask><linearGradient id="linear-gradient-47" x1="535.34" y1="242.63" x2="739.74" y2="800.07" gradientUnits="userSpaceOnUse"><stop offset="0" stop-color="#fff3cf"/><stop offset="0.11" stop-color="#e5e4c8"/><stop offset="0.33" stop-color="#a2bdb7"/><stop offset="0.58" stop-color="#528ea2"/></linearGradient><linearGradient id="linear-gradient-48" x1="100.63" y1="276.66" x2="946.99" y2="1441.29" gradientUnits="userSpaceOnUse"><stop offset="0" stop-color="#fcd2c2"/><stop offset="1" stop-color="#d18a4d"/></linearGradient><linearGradient id="linear-gradient-49" x1="640.22" y1="1286.09" x2="378.54" y2="264.05" gradientUnits="userSpaceOnUse"><stop offset="0" stop-color="#997e6f"/><stop offset="1" stop-color="#954f38"/></linearGradient><linearGradient id="linear-gradient-50" x1="540.29" y1="1225.73" x2="540.29" y2="1329.43" gradientUnits="userSpaceOnUse"><stop offset="0" stop-color="#d17949"/><stop offset="1" stop-color="#fcb17e"/></linearGradient><linearGradient id="linear-gradient-51" x1="519.07" y1="1178.76" x2="556.07" y2="1394.03" gradientUnits="userSpaceOnUse"><stop offset="0.25" stop-color="#d17949"/><stop offset="0.92" stop-color="#973500"/></linearGradient><linearGradient id="linear-gradient-52" x1="489.77" y1="-27.6" x2="787.79" y2="469.1" gradientUnits="userSpaceOnUse"><stop offset="0" stop-color="#fcd2c2"/><stop offset="1" stop-color="#d1925c"/></linearGradient><linearGradient id="linear-gradient-53" x1="542.87" y1="999.8" x2="542.87" y2="240.49" xlink:href="#linear-gradient-49"/><linearGradient id="linear-gradient-54" x1="29.53" y1="368.22" x2="289.64" y2="839.52" xlink:href="#linear-gradient-52"/><linearGradient id="linear-gradient-55" x1="227.44" y1="950.51" x2="227.44" y2="248.96" xlink:href="#linear-gradient-49"/><linearGradient id="linear-gradient-56" x1="904.39" y1="406.38" x2="1067.46" y2="671.38" xlink:href="#linear-gradient-52"/><linearGradient id="linear-gradient-57" x1="854.59" y1="946.81" x2="854.59" y2="242.25" xlink:href="#linear-gradient-49"/><linearGradient id="linear-gradient-58" x1="697.36" y1="848.84" x2="1379.54" y2="426.37" gradientUnits="userSpaceOnUse"><stop offset="0.13" stop-color="#d1925c"/><stop offset="1" stop-color="#fcd2c2"/></linearGradient><linearGradient id="linear-gradient-59" x1="-80.08" y1="1081.2" x2="576.15" y2="674.8" gradientUnits="userSpaceOnUse"><stop offset="0.08" stop-color="#fcd2c2"/><stop offset="0.23" stop-color="#eebea2"/><stop offset="0.4" stop-color="#e2ab83"/><stop offset="0.56" stop-color="#d89d6e"/><stop offset="0.72" stop-color="#d39560"/><stop offset="0.87" stop-color="#d1925c"/></linearGradient><linearGradient id="linear-gradient-60" x1="868.83" y1="498.76" x2="1041.72" y2="498.76" xlink:href="#linear-gradient-10"/><linearGradient id="linear-gradient-61" x1="26.73" y1="506.67" x2="213.71" y2="506.67" xlink:href="#linear-gradient-10"/><linearGradient id="linear-gradient-62" x1="869.74" y1="638.72" x2="1005.68" y2="638.72" xlink:href="#linear-gradient-10"/><linearGradient id="linear-gradient-63" x1="238.33" y1="1297.74" x2="840.35" y2="1297.74" gradientUnits="userSpaceOnUse"><stop offset="0" stop-color="#ffcea1"/><stop offset="1" stop-color="#e09e6c"/></linearGradient><clipPath id="clip-path" transform="translate(26.73 0)"><path class="cls-13" d="M930,1291.92l.2-2.47,17.85-216.76h-.33v-.09l0,.09h0L829.38,1069l0-.1,118.33,3.67L922,1048.88l28,.86,19.29-234.38h-.35l-51-23.59,53.35-.31h0l15.71-190.9h-.37L920,587.23l111.34-8.94-.28-2.76L1015,417.86,978.86,429.4h0A501,501,0,0,0,963,372.94a492.64,492.64,0,0,0-39.83-87l-101.9,71-.19-.35L923.13,286,881,298l29.49-32h0a500.5,500.5,0,0,0-52.2-67A463.83,463.83,0,0,0,707.32,91.48a453.87,453.87,0,0,0-80.21-27l-.63,2.58h0l-19,9.71L624,0,409.53,2.81l16.08,76.44L402.83,68.13h0a464.6,464.6,0,0,0-76.68,28A479.23,479.23,0,0,0,176,206.65a498.62,498.62,0,0,0-52.26,67.71l0,0,28.89,31.16-42.11-9.43,68.24,45-68.25-45a504.92,504.92,0,0,0-38.79,85.42,512.58,512.58,0,0,0-16.2,57.27h0L17,427.06,0,586.28l112.39,7.15L46.86,607.64h0l14.3,189.07L181.6,796l1.53,23.72h0L181.6,796l-68.3.4-50.37,24h0L80.48,1052.6l27.31-1L82.2,1075.36,199.26,1071l-.68-10.54.68,10.53v0h0l-117,4.41L98.65,1292.9h0l15.29,128.16,804.92-3.84L930,1291.92ZM428.78,175.65l-.24.07h0Zm-204.59,165a0,0,0,0,0,0,0l-.14-.13Zm-.23-.14-2.61,4.89,2.6-4.9ZM169.44,606.72v0Zm32.91-7.93h0l-1.26-19.63,16.28-3.52L226.84,497l-20-9.1a350.54,350.54,0,0,1,41-109.42l7.35-12.06.11-.19c44.69-70,113.43-121.91,194.2-141.2l13.05-2.83.05,0a1.75,1.75,0,0,0,.33-.06l4.35,10,99.61-1.1,3.78-9.85,2.7.48,4.16.8c64.84,12.89,122.23,46.92,166,95,40.61,44.58,69.34,101,81.48,163.67l-23.34,11,9.06,79,19.76,4-33.17,471.2H797l-.17,6.63-13.59,193.07-539.48.87L232,1062.6h0l-.27-14.49h-.67L215.92,811l-1.06-16.58Zm-4.55,449.44v-.09h0l0,.09Z"/></clipPath><linearGradient id="linear-gradient-64" x1="538.91" y1="1246.08" x2="538.91" y2="1365.32" gradientUnits="userSpaceOnUse"><stop offset="0.32" stop-color="#bdd2d6"/><stop offset="1" stop-color="#b37f62"/></linearGradient><linearGradient id="linear-gradient-65" x1="757.1" y1="1247.5" x2="704.83" y2="1297.3" gradientUnits="userSpaceOnUse"><stop offset="0" stop-color="#d18249"/><stop offset="1" stop-color="#fcb97e"/></linearGradient><linearGradient id="linear-gradient-66" x1="694.81" y1="1289.6" x2="553.51" y2="1308.18" gradientUnits="userSpaceOnUse"><stop offset="0.54" stop-color="#e8a066"/><stop offset="1" stop-color="#fcb97e"/></linearGradient></defs><title>Asset 1</title><g class="cls-14"><g id="Layer_2" data-name="Layer 2"><g id="Layer_1-2" data-name="Layer 1"><path class="cls-15" d="M239.88,1268.55l-45.68-704c-6.37-98.28,27.89-195.47,94.69-266.16,60.4-63.92,140.85-99.93,226.14-100.9,85.44-1,166.05,33.34,226.5,96.19,67,69.69,101.11,166.8,94.06,265.78l-50.42,708.32Z" transform="translate(26.73 0)"/><path class="cls-16" d="M256.25,1246.71,214.29,586c-5.83-91.89,26.39-182.67,89-248.64,56.56-59.6,131.83-93.14,211.61-94s155.29,31.13,211.88,89.76c62.79,65,94.81,155.74,88.36,248.25l-46.36,664.57Z" transform="translate(26.73 0)"/><path class="cls-17" d="M815.14,581.3l-46.36,664.59h-4.21L809,594.07c6.35-93-25-184.11-86.54-249.5-55.45-58.95-129.34-91.14-207.63-90.3s-152,34.54-207.41,94.42c-61.35,66.28-92.93,157.52-87.2,249.86l40.16,648.16h-4.18L214.3,586c-5.85-91.89,26.38-182.68,89-248.64,56.57-59.6,131.85-93.14,211.62-94s155.28,31.13,211.88,89.76C789.57,398.1,821.59,488.8,815.14,581.3Z" transform="translate(26.73 0)"/><path class="cls-18" d="M742,1245.93l-459.17.74L247.33,616.81c-10.21-181.28,111.28-338,267.47-339.69h0C671.44,275.46,793,430.46,781.57,612.84Z" transform="translate(26.73 0)"/><g class="cls-19"><path class="cls-20" d="M742,1245.93l-459.17.74C503.87,1047.91,683,839.57,781.57,612.84Z" transform="translate(26.73 0)"/></g><path class="cls-21" d="M257.61,616.74l35,629.91-9.8,0L247.34,616.82C237.12,435.54,358.6,278.76,514.8,277.11c1.77,0,3.53,0,5.3,0C366.42,282.24,247.65,437.52,257.61,616.74Z" transform="translate(26.73 0)"/><path class="cls-22" d="M791.94,612.76l-40.08,633.15-9.88,0,39.59-633.09c5.82-93.09-23.07-179.2-74-241C660.22,314.19,594.07,278,520.1,277.13c1.77-.08,3.52-.11,5.29-.13,76.1-.8,144.27,35.7,192.78,94.69C769,433.55,797.84,519.65,791.94,612.76Z" transform="translate(26.73 0)"/><polygon class="cls-23" points="306.32 1193.55 309.55 1246.67 778.59 1245.91 781.57 1198.75 306.32 1193.55"/><polygon class="cls-24" points="771.35 1194.59 321.02 1189.49 306.32 1193.55 781.57 1198.75 771.35 1194.59"/><polygon class="cls-22" points="309.55 1246.67 318.87 1238.2 769.24 1237.44 774.9 1202.38 781.57 1198.75 778.59 1245.91 309.55 1246.67"/><path class="cls-25" d="M561,359.59l-1.44,225.9L724,584.22l1-7.53c8-114.45-58.68-201.4-164-217.1Z" transform="translate(26.73 0)"/><path class="cls-26" d="M579.35,565.71l1.43-181.26c36.44,10,66.89,30.31,88.91,59.38,24.84,32.79,37.2,74.44,36.11,120.88Z" transform="translate(26.73 0)"/><polygon class="cls-27" points="585.86 646.84 584.54 853.89 726.87 853.15 743.02 645.72 585.86 646.84"/><polygon class="cls-28" points="603.96 834.95 605.29 666.09 721.96 665.27 708.88 834.38 603.96 834.95"/><polygon class="cls-29" points="584.13 917.66 582.54 1165.76 711.12 1165.46 729.28 916.98 584.13 917.66"/><polygon class="cls-30" points="601.5 1147.77 603.16 936.17 708.29 935.7 693.88 1147.53 601.5 1147.77"/><path class="cls-31" d="M468.16,360.5l.1,225.69-163.72,1.26-.91-7.48C296.37,466.1,363.11,378.21,468.16,360.5Z" transform="translate(26.73 0)"/><path class="cls-32" d="M322.74,567.74c-.8-46.26,11.72-88,36.6-121.11,22.08-29.4,52.52-50.2,88.91-60.91l.34,181Z" transform="translate(26.73 0)"/><polygon class="cls-33" points="495.02 647.49 495.11 854.36 353.39 855.1 338.58 648.61 495.02 647.49"/><polygon class="cls-34" points="371.37 836.21 359.38 667.8 483.58 666.94 475.84 835.64 371.37 836.21"/><polygon class="cls-35" points="495.14 918.07 495.25 1165.97 360.97 1166.29 350.61 918.74 495.14 918.07"/><polygon class="cls-36" points="373.46 1148.34 371.36 937.21 476.03 936.74 476.44 1148.08 373.46 1148.34"/><polygon class="cls-37" points="603.16 936.17 708.29 935.7 695.62 947.05 615.68 950.25 611.55 1135.96 601.5 1147.77 603.16 936.17"/><polygon class="cls-21" points="693.88 1147.53 708.29 935.7 695.62 947.05 682.41 1136.17 611.55 1135.96 601.5 1147.77 693.88 1147.53"/><polygon class="cls-38" points="695.62 947.05 682.41 1136.17 611.55 1135.96 615.68 950.25 695.62 947.05"/><polygon class="cls-39" points="367.66 937.23 476.03 936.74 463.62 948.06 378.45 948.43 383.26 1136.56 373.46 1148.34 367.66 937.23"/><polygon class="cls-21" points="476.44 1148.08 476.03 936.74 463.62 948.06 466.15 1136.74 383.26 1136.56 373.46 1148.34 476.44 1148.08"/><polygon class="cls-40" points="463.62 948.06 466.15 1136.74 383.26 1136.56 378.45 948.43 463.62 948.06"/><polygon class="cls-41" points="604.09 666.1 721.96 665.27 707.72 679.66 618.1 683.88 614.1 819.87 602.77 834.96 604.09 666.1"/><polygon class="cls-21" points="708.88 834.38 721.96 665.27 707.72 679.66 693.85 819.93 614.1 819.87 602.77 834.96 708.88 834.38"/><polygon class="cls-42" points="707.72 679.66 693.85 819.93 614.07 819.87 618.08 683.88 707.72 679.66"/><polygon class="cls-43" points="359.11 667.8 483.31 666.94 467.4 681.31 372.61 680.68 381.07 823.59 371.37 836.21 359.11 667.8"/><polygon class="cls-21" points="477.27 835.63 483.58 666.94 467.4 681.31 464.2 821.21 381.07 823.59 371.37 836.21 477.27 835.63"/><polygon class="cls-44" points="467.4 681.31 464.2 821.21 381.07 823.59 372.61 680.68 467.4 681.31"/><path class="cls-21" d="M594.67,549.07l-15.32,16.64,126.45-1s13.77-137.68-125-180.26l16.55,17.42s84.33,29.69,93.16,146.42Z" transform="translate(26.73 0)"/><polygon class="cls-45" points="607.51 384.45 606.09 565.71 621.4 549.07 624.06 401.87 607.51 384.45"/><polygon class="cls-21" points="349.47 567.74 368.51 547.43 453.28 546.75 464.83 409.01 474.98 385.72 475.32 566.74 349.47 567.74"/><path class="cls-46" d="M438.1,409s-89.38,27.34-96.32,138.42l-19,20.31s-.47-148.17,125.51-182Z" transform="translate(26.73 0)"/><polygon class="cls-47" points="750.76 584.22 737.13 576.22 602.12 578.25 586.26 585.49 750.76 584.22"/><polygon class="cls-48" points="726.87 853.15 718.9 848.36 597.52 849 584.54 853.89 726.87 853.15"/><polygon class="cls-49" points="711.12 1165.46 700.48 1158.15 593.33 1158.41 582.54 1165.76 711.12 1165.46"/><polygon class="cls-50" points="495.25 1165.97 480.69 1159.76 369.36 1160.03 360.97 1166.29 495.25 1165.97"/><polygon class="cls-51" points="353.39 855.1 361.3 847.15 483.82 846.5 495.11 854.36 353.39 855.1"/><polygon class="cls-52" points="495 586.19 483.47 578.2 344.09 579.28 331.27 587.45 495 586.19"/><polygon class="cls-53" points="749.91 639.76 733.5 653.32 593.81 654.31 592.5 840.96 584.54 853.89 581.97 640.97 749.91 639.76"/><polygon class="cls-53" points="353.39 855.1 361.3 847.15 347.63 660.51 483.57 659.55 501.09 641.55 331.97 642.77 353.39 855.1"/><polygon class="cls-53" points="360.97 1166.29 369.36 1160.03 357.04 925.95 490.28 925.34 507.46 908.09 341.71 908.88 360.97 1166.29"/><polygon class="cls-53" points="582.56 1162.64 593.33 1158.41 588.7 924.88 722.51 924.27 740.07 906.99 573.61 907.78 582.56 1162.64"/><path class="cls-54" d="M597.33,401.87l-2.66,147.2,95.82-.78S692,451.26,597.33,401.87Z" transform="translate(26.73 0)"/><path class="cls-55" d="M438.1,409,426.55,546.75l-84.77.68S341.29,435.2,438.1,409Z" transform="translate(26.73 0)"/><path class="cls-56" d="M531,620.4a16.35,16.35,0,0,1-16.4,16,15.94,15.94,0,0,1-16.3-15.8,16.35,16.35,0,0,1,16.39-16.09A16,16,0,0,1,531,620.4Z" transform="translate(26.73 0)"/><path class="cls-57" d="M527.73,618.82A14.72,14.72,0,0,1,513,633.27,14.35,14.35,0,0,1,498.3,619a14.71,14.71,0,0,1,14.76-14.47A14.34,14.34,0,0,1,527.73,618.82Z" transform="translate(26.73 0)"/><path class="cls-56" d="M527.73,618.82A14.71,14.71,0,0,1,513,633.27a14.42,14.42,0,0,1-14.46-11.82,13.29,13.29,0,0,0,12.83,9.07,13.51,13.51,0,0,0,13.56-13.26,13,13,0,0,0-9.37-12.51A14.27,14.27,0,0,1,527.73,618.82Z" transform="translate(26.73 0)"/><path class="cls-58" d="M522.1,618.22a9.75,9.75,0,0,1-9.77,9.57,9.51,9.51,0,0,1-9.72-9.43,9.74,9.74,0,0,1,9.77-9.58A9.51,9.51,0,0,1,522.1,618.22Z" transform="translate(26.73 0)"/><path class="cls-59" d="M323.69,877.69c.16,13.75-11.34,24.93-25.68,25s-26.12-11-26.33-24.74,11.27-25,25.66-25.1S323.53,863.91,323.69,877.69Z" transform="translate(26.73 0)"/><path class="cls-60" d="M318.46,875.22c.15,12.38-10.2,22.45-23.11,22.51s-23.52-9.9-23.71-22.27,10.15-22.53,23.1-22.6S318.31,862.81,318.46,875.22Z" transform="translate(26.73 0)"/><path class="cls-59" d="M318.46,875.21c.15,12.39-10.19,22.46-23.11,22.52-11.57.06-21.3-8-23.32-18.51a21.68,21.68,0,0,0,20.66,14.22c11.86-.06,21.37-9.32,21.23-20.68a21,21,0,0,0-15.24-19.6C309.77,854.89,318.33,864.1,318.46,875.21Z" transform="translate(26.73 0)"/><g class="cls-61"><path class="cls-62" d="M302.92,870.56a13.4,13.4,0,0,1-13.64,13.31c-7.63,0-13.9-5.85-14-13.17a13.39,13.39,0,0,1,13.63-13.33C296.55,857.33,302.82,863.24,302.92,870.56Z" transform="translate(26.73 0)"/></g><g class="cls-63"><polygon class="cls-64" points="618.08 683.88 614.07 819.87 693.85 819.93 707.72 679.66 618.08 683.88"/></g><g class="cls-65"><polygon class="cls-66" points="615.68 950.25 611.55 1135.96 682.41 1136.17 695.62 947.05 615.68 950.25"/></g><g class="cls-67"><polygon class="cls-68" points="463.62 948.06 445.2 949.25 400.6 1136.74 466.15 1136.74 463.62 948.06"/></g><g class="cls-69"><path class="cls-70" d="M597.33,439.67l-2.66,109.4,95.82-.78s1-88.57-71.73-134.91Z" transform="translate(26.73 0)"/></g><path class="cls-71" d="M930,1291.92l18.06-219.23h-.34L829.38,1069l-20.09-.62.3-4.48,1.15-17.81,0-.67,19.54.6H831l.36,0,90.61,2.8,28,.86,19.29-234.38L821,816.19l.63-23.87,149.58-.87,15.71-190.9-146.79,1.11.68-24.65L854,579.66l134.7-1c.07-.9.14-1.83.2-2.75a504.63,504.63,0,0,0-7.66-134.81c-.75-3.9-1.56-7.77-2.41-11.64v0A501,501,0,0,0,963,372.94a492.64,492.64,0,0,0-39.83-87l-101.9,71-.19-.35h0l-5.14-9.09c0-.11-.12-.22-.18-.34l-2.13-3.76-4.75-8.4h0l-.23-.4L910.45,266a500.5,500.5,0,0,0-52.2-67A463.83,463.83,0,0,0,707.32,91.48a453.87,453.87,0,0,0-80.21-27l-.63,2.58L600.69,172.81v0l-.05.15L595,196.05,592.36,207l-1.71-.4-13.19-3-1.65-.37-8.61-2L570.39,188l5-20.71,26.12-108c-1.93-.34-3.86-.67-5.79-1a463.28,463.28,0,0,0-156.32,1.62q-5.6,1-11.14,2.17l25.43,107.24,3.69,15.59,1,4.36,3.11,13.15-5.12,1.27-1.3.34-13.55,3.39-5.16,1.28-7.88-33L402.83,68.13a464.6,464.6,0,0,0-76.68,28A479.23,479.23,0,0,0,176,206.65a498.62,498.62,0,0,0-52.26,67.71L224,340.56l.07,0,.16.1,21.49,14.2-1.46,2.22-10.31,15.61L231.73,376,212,363h0l-101.45-66.9a504.92,504.92,0,0,0-38.79,85.42,512.58,512.58,0,0,0-16.2,57.27q-1.76,8-3.28,16.09A507.56,507.56,0,0,0,45,583.19l142.65-1.1.53,24.49L46.83,607.64l14.3,189.08,144.22-.83.48,23.72-142.91.8L80.48,1052.6l117.31-4.46,16.8-.64,0,.67,1.09,18.58.21,3.58-16.67.63-117,4.41L98.65,1292.9h0l15.29,128.16,804.92-3.84L930,1291.92Zm-698.9-243.81L215.92,811l-1.06-16.58L202.35,598.79h0l-1.26-19.63,16.28-3.52L226.84,497l-20-9.1a350.54,350.54,0,0,1,41-109.42l7.35-12.06.11-.19c44.69-70,113.43-121.91,194.2-141.2l13.05-2.83.05,0a1.75,1.75,0,0,0,.33-.06l4.35,10,99.61-1.1,3.78-9.85,2.7.48,4.16.8c64.84,12.89,122.23,46.92,166,95,40.61,44.58,69.34,101,81.48,163.67l-23.34,11,9.06,79,19.76,4-33.17,471.2H797l-.17,6.63-13.59,193.07-539.48.87L232,1062.6h0l-.27-14.49Z" transform="translate(26.73 0)"/><path class="cls-72" d="M860.72,483.22c-.75-5.11-1.6-10.21-2.54-15.27a411.5,411.5,0,0,0-37.27-110.77l-.17-.3c-1.57-3.13-3.2-6.21-4.86-9.29,0-.11-.12-.22-.18-.34-.69-1.27-1.38-2.53-2.09-3.79-1.55-2.8-3.16-5.59-4.79-8.37-.08-.13-.15-.27-.24-.4l-.09-.14q-4.61-7.76-9.52-15.28a372.74,372.74,0,0,0-34.2-44.45c-44.76-49.84-100-84.38-160.54-101l-.66-.19-2.88-.77c-.29-.09-.59-.16-.89-.24l-.59-.16-5.65-1.39-.56-.13c-1.73-.42-3.47-.81-5.22-1.19l-.35-.08-.15,0-.19,0q-5.82-1.26-11.68-2.29c-2.43-.43-4.85-.85-7.27-1.22a319.67,319.67,0,0,0-107.93,2c-2.17.41-4.35.84-6.5,1.3-2.92.62-5.83,1.27-8.73,2q-8.28,2-16.44,4.42c-2.41.7-4.79,1.45-7.18,2.23C363.7,196.54,311,231.4,268,280.07a388.28,388.28,0,0,0-43.85,60.63,0,0,0,0,0,0,0q-2.41,4.13-4.73,8.3a4.91,4.91,0,0,0-.28.5q-3.33,6-6.4,12.07c-.27.47-.5.95-.72,1.42a419,419,0,0,0-37.77,111.92h0q-.61,3.26-1.16,6.51a429.21,429.21,0,0,0-5.3,100l.05.82.18,2.73.44,7V592l.07,1,.87,13.73L181.6,796l1.53,23.72,14.66,228.4,0,.09,1.45,22.71v0l14.25,221.8h0l600.11-.72,15.76-223,0-.11v-.1l1.61-22.75v0l.92-13,15.35-217V816L849,792.16v0l7.9-111.73v-.09l5.58-78.81v-.08l1-13.75.41-5.66.17-2.42.25-3.57v0q.62-8.85.89-17.67A426.62,426.62,0,0,0,860.72,483.22ZM243.8,1246.73,232,1062.6h0l-.27-14.49h-.67L215.92,811l-1.06-16.58L202.35,598.79h0l-1.26-19.63,16.28-3.52L226.84,497l-20-9.1a350.54,350.54,0,0,1,41-109.42l7.35-12.06.11-.19c44.69-70,113.43-121.91,194.2-141.2l13.05-2.83.05,0a1.75,1.75,0,0,0,.33-.06l4.35,10,99.61-1.1,3.78-9.85,2.7.48,4.16.8c64.84,12.89,122.23,46.92,166,95,40.61,44.58,69.34,101,81.48,163.67l-23.34,11,9.06,79,19.76,4-33.17,471.2H797l-.17,6.63-13.59,193.07Z" transform="translate(26.73 0)"/><path class="cls-73" d="M817.92,566.63l-8.91-78L801.69,492l9.06,79,19.76,4-33.17,471.2H797l-.17,6.63-13.59,193.07-539.48.87L232,1062.6h0l-.27-14.49h-.67L215.92,811l-1.06-16.58L202.35,598.79h0l-1.26-19.63,16.28-3.52L226.84,497l-7.3-3.33-9.31,77.77L193.58,575l1.29,20.1h0l12.93,200.26,1.09,17L224.52,1055h.68l.29,14.81h0L237.62,1258l551.83-.83,14-197.4.17-6.78h.32l34.21-482.34Z" transform="translate(26.73 0)"/><path class="cls-73" d="M869.15,476.69c-.75-5.24,8.16-9.37,7.21-14.54-7.32-39.78-30-79.21-47.92-114.67l-.16-.3c-1.61-3.22-3.29-6.38-5-9.53,0-.11-.12-.23-.18-.34-.7-1.3-1.41-2.61-2.14-3.89-1.58-2.87-3.24-5.73-4.91-8.59l-.23-.4-.1-.14c-3.15-5.31-6.38-10.54-9.76-15.68A379.52,379.52,0,0,0,771,263c-45.86-51.13-102.5-86.55-164.5-103.62-.22-.07-.44-.12-.67-.18-1-.27-2-.54-2.95-.79l-.92-.26-.6-.15-5.79-1.43-2.72-.66c-1-.26-2.08-.47-3.13-.68l-.43-.1a.37.37,0,0,1-.15,0l-.2,0c-4-.85-8-1.65-12-2.35-2.49-.45-5-.86-7.44-1.25a327.25,327.25,0,0,0-110.61,2c-2.24.43-4.45.88-6.67,1.33q-4.49,1-8.95,2-8.47,2.06-16.85,4.55-3.69,1.08-7.35,2.29C360,182.79,297.72,216.63,253.71,266.58c-16.92,19.19-23.66,41.92-36.63,64.06a0,0,0,0,0,0,0c-1.65,2.82-3.28,5.65-4.84,8.51-.1.16-.2.34-.3.52q-3.37,6.12-6.55,12.37c-.26.48-.51,1-.73,1.45-18.14,35.92-40.62,76-48.07,116l8.27,5.35c-.41,2.22.38-2.21,0,0a439.89,439.89,0,0,0-5.36,102.42l0,.84.19,2.79.45,7.13,0,.07.07,1,.9,14.06,12.56,193.83,1.58,24.27L190.46,1055v.1l1.51,23.23h0l34.14,223h0l587.5-9.33,15.6-218.64c.06-1.61-1.17-1.15,0,0l.16-4.39h0l9-16.09v0l-7.71-6.85,24.5-228.49v-.09l1.73-24.35v0l8.16-114.4v-.1l5.77-80.71v-.09l1-14.08.41-5.8.18-2.49.26-3.66v0q.64-9.08.91-18.1A436,436,0,0,0,869.15,476.69ZM864.25,576v0l-.25,3.57-.17,2.42-.41,5.66-1,13.75v.08l-5.58,78.81v.09L849,792.12v0L847.28,816V816l-15.35,217-.92,13v0l-1.61,22.75v.1l0,.11-15.76,223-600.11.72h0L199.26,1071v0l-1.45-22.71,0-.09-14.66-228.4L181.6,796l-12.16-189.3L168.57,593l-.07-1v-.06l-.44-7-.18-2.73-.05-.82a429.21,429.21,0,0,1,5.3-100q.54-3.25,1.16-6.51h0A419,419,0,0,1,212,363c.22-.47.45-.95.72-1.42q3.08-6.09,6.4-12.07a4.91,4.91,0,0,1,.28-.5q2.31-4.18,4.73-8.3a0,0,0,0,1,0,0A388.28,388.28,0,0,1,268,280.07C311,231.4,363.7,196.54,421.36,178c2.39-.78,4.77-1.53,7.18-2.23q8.16-2.43,16.44-4.42c2.9-.7,5.81-1.35,8.73-2,2.15-.46,4.33-.89,6.5-1.3a319.67,319.67,0,0,1,107.93-2c2.42.37,4.84.79,7.27,1.22q5.87,1,11.68,2.29l.19,0,.15,0,.35.08c1.75.38,3.49.77,5.22,1.19l.56.13,5.65,1.39.59.16c.3.08.6.15.89.24l2.88.77.66.19C664.72,190.44,720,225,764.77,274.82A372.74,372.74,0,0,1,799,319.27q4.92,7.51,9.52,15.28l.09.14c.09.13.16.27.24.4,1.63,2.78,3.24,5.57,4.79,8.37.71,1.26,1.4,2.52,2.09,3.79.06.12.13.23.18.34,1.66,3.08,3.29,6.16,4.86,9.29l.17.3A411.5,411.5,0,0,1,858.18,468c.94,5.06,1.79,10.16,2.54,15.27a426.62,426.62,0,0,1,4.42,75.09Q864.87,567.13,864.25,576Zm-55.57-90.25.33,2.88,16-7.52c-.18-.92-.37-1.85-.56-2.77Zm-601.81,2.13,12.67,5.77.35-2.83-12.47-5.68C207.23,486,207.05,487,206.87,487.86Z" transform="translate(26.73 0)"/><polygon class="cls-74" points="840.35 1292.06 240.23 1292.77 240.24 1292.76 270.53 1246.73 810.01 1245.86 840.35 1292.06"/><polygon class="cls-75" points="826.84 1361.8 840.35 1292.06 238.33 1301.33 256.9 1367.2 826.84 1361.8"/><polygon class="cls-76" points="489.67 222.08 489.35 222.14 489.31 222.16 476.25 224.99 475.58 225.12 468.31 207.43 455.27 175.72 471.71 171.29 471.71 171.31 477.7 188.25 478.1 189.36 483.17 203.7 489.63 221.93 489.67 222.08"/><polygon class="cls-76" points="282.05 366.19 281.94 366.38 274.59 378.44 274.35 378.83 260.64 372.73 238.77 363.02 238.74 363 239.49 361.6 245.91 349.53 246.17 349.03 250.69 340.56 250.69 340.54 250.76 340.6 250.91 340.73 270.95 357.12 282.05 366.19"/><polygon class="cls-76" points="229.09 598.79 229.08 598.79 214.82 602.23 196.18 606.72 195.3 593 195.23 591.99 194.78 584.97 194.6 582.24 194.56 581.42 201.78 580.9 227.82 578.98 227.83 579.16 229.09 598.79"/><polygon class="cls-76" points="242.66 810.95 232.44 813.68 209.86 819.74 208.33 796.02 241.59 794.37 242.66 810.95"/><polygon class="cls-76" points="258.49 1048.11 258.76 1062.6 258.75 1062.6 242.46 1066.75 225.99 1070.94 224.53 1048.22 258.49 1048.11"/><polygon class="cls-76" points="631 173.69 630.96 173.8 621.75 196.05 617.38 206.57 610.32 223.63 604.28 222.46 600.12 221.66 597.45 221.13 596.23 220.9 602.54 203.2 608.03 187.88 613.58 172.34 614.48 169.82 614.51 169.73 614.54 169.65 619.73 170.93 620.29 171.05 625.95 172.44 626.53 172.6 627.42 172.81 630.34 173.53 631 173.69"/><polygon class="cls-76" points="847.96 357.04 811.88 373.64 804.19 361.09 836.03 334.69 847.96 357.04"/><polygon class="cls-76" points="889.54 601.49 856.27 594.02 857.67 574.08 891.34 576 889.54 601.49"/><polygon class="cls-76" points="874.37 816.05 841.23 807.56 842.4 790.88 876.05 792.16 874.37 816.05"/><polygon class="cls-76" points="858.1 1046.04 858.1 1046.08 856.48 1068.9 856.13 1068.81 855.82 1068.73 836.32 1063.92 823.4 1060.73 823.77 1046.15 858.1 1046.04"/><polygon class="cls-77" points="610.24 187.85 475.52 189.38 436.26 2.81 650.77 0 610.24 187.85"/><polygon class="cls-78" points="610.23 187.85 604.19 203.57 597.45 221.13 597.42 221.18 593.64 231.03 494.03 232.13 489.68 222.08 489.63 221.93 481.86 204.04 475.52 189.39 610.23 187.85"/><polygon class="cls-79" points="213.71 478.82 201.3 584.92 26.73 586.28 43.74 427.06 213.71 478.82"/><polygon class="cls-80" points="253.57 496.96 244.11 575.63 227.83 579.16 214.39 582.09 214.38 582.09 201.31 584.92 201.62 582.18 201.78 580.9 213.72 478.81 233.6 487.86 253.57 496.96"/><polygon class="cls-81" points="1058.1 578.29 880.75 579.66 880.45 576.91 868.83 473.09 1005.59 429.4 1041.72 417.86 1057.82 575.53 1058.1 578.29"/><polygon class="cls-82" points="880.76 579.66 867.54 577.01 857.61 575.03 857.24 574.95 837.49 571 828.42 492.04 851.76 481.09 868.83 473.09 880.28 575.37 880.76 579.66"/><polygon class="cls-83" points="656.75 65.29 633.8 77 613.81 169.66 630.28 173.7 656.75 65.29"/><polygon class="cls-83" points="937.18 265.99 907.68 298.01 949.86 285.98 847.24 357.05 835.31 334.69 937.18 265.99"/><polygon class="cls-83" points="1013.31 600.56 946.76 587.24 889.74 587.67 888.83 601.5 1013.31 600.56"/><polygon class="cls-84" points="907.68 298.01 840.08 343.63 847.24 357.05 949.86 285.98 907.68 298.01"/><polygon class="cls-83" points="1058.1 578.29 946.76 587.24 889.74 587.67 890.9 579.58 1058.1 578.29"/><polygon class="cls-83" points="995.63 815.37 944.59 791.77 875.36 792.17 873.67 816.05 995.63 815.37"/><polygon class="cls-83" points="974.46 1072.59 948.6 1048.78 857.41 1046.04 855.8 1068.9 974.46 1072.59"/><polygon class="cls-76" points="139.13 593.43 26.73 586.28 195.18 584.97 195.37 593 139.13 593.43"/><polygon class="cls-76" points="1058.1 578.29 946.76 587.24 889.74 587.67 888.31 579.6 1058.1 578.29"/><polygon class="cls-83" points="429.55 68.13 452.35 79.25 471.71 171.3 455.26 175.72 429.55 68.13"/><polygon class="cls-83" points="150.5 274.35 179.41 305.54 137.3 296.11 238.75 363.01 250.68 340.55 150.5 274.35"/><polygon class="cls-83" points="73.56 607.65 139.13 593.43 195.37 593 196.17 606.72 73.56 607.65"/><polygon class="cls-84" points="179.41 305.54 245.91 349.53 238.75 363.01 137.3 296.11 179.41 305.54"/><polygon class="cls-83" points="26.73 586.28 139.13 593.43 195.37 593 194.27 584.98 26.73 586.28"/><polygon class="cls-83" points="89.64 820.42 140.03 796.42 208.33 796.03 209.85 819.75 89.64 820.42"/><polygon class="cls-83" points="108.93 1075.36 134.54 1051.57 224.53 1048.23 225.99 1070.95 108.93 1075.36"/><polygon class="cls-85" points="271.72 1367.28 279.53 1397.83 867.29 1397.7 887.2 1335.26 838.15 1303.41 826.84 1361.8 271.72 1367.28"/><polygon class="cls-86" points="1013.31 600.56 888.83 601.5 875.36 792.17 997.94 791.46 1013.31 600.56"/><polygon class="cls-87" points="224.53 1048.23 107.21 1052.6 89.64 820.42 209.85 819.75 224.53 1048.23"/><polygon class="cls-88" points="868.83 473.09 880.75 579.66 883.1 484.74 1034.63 431.72 1041.72 417.86 868.83 473.09"/><polygon class="cls-89" points="213.71 478.82 195.31 482.32 55.16 449.27 36.94 565.51 26.73 586.28 43.74 427.06 213.71 478.82"/><polygon class="cls-73" points="650.77 0 632.47 19.25 592.1 176.84 489.64 182.05 475.52 189.38 610.24 187.85 650.77 0"/><polygon class="cls-73" points="1013.31 600.56 997.94 791.46 875.36 792.17 987.21 776.91 1003.11 617.51 1013.31 600.56"/><polygon class="cls-73" points="225.99 1070.95 240.23 1292.77 156.15 1292.87 224.4 1281.61 221.19 1092.66 225.99 1070.95"/><polygon class="cls-73" points="209.85 819.75 224.53 1048.23 107.21 1052.6 120.37 1039.37 208.74 1034.64 200.32 848.23 209.85 819.75"/><polygon class="cls-73" points="888.53 1292 956.73 1291.92 974.46 1072.59 946.12 1280.3 888.53 1292"/><polygon class="cls-90" points="841.23 807.56 867.74 823.61 857.41 1046.04 878.51 827.22 983.57 825.42 995.63 815.37 873.67 816.05 841.23 807.56"/><polygon class="cls-91" points="436.26 2.81 475.52 189.38 489.64 182.05 457.58 15.33 632.47 19.25 650.77 0 436.26 2.81"/><polygon class="cls-92" points="883.6 680.4 894.26 611.58 1005.68 600.62 888.83 601.5 869.74 597.04 887.44 609.52 883.6 680.4"/><polygon class="cls-93" points="238.33 1301.33 240.23 1292.77 840.35 1292.06 828.36 1303.42 238.33 1301.33"/><polygon class="cls-73" points="828.36 1303.42 810.29 1350.75 271.53 1356.79 256.9 1367.2 826.84 1361.8 840.35 1292.06 828.36 1303.42"/><g class="cls-94"><g class="cls-95"><polygon class="cls-96" points="1077.18 723.62 881.07 738.53 861.88 987.51 1018.92 986.88 1077.18 723.62"/><polygon class="cls-96" points="198.15 637.51 0 671.26 5.1 990.93 220.51 990.07 198.15 637.51"/><polygon class="cls-96" points="1044.32 1115.29 854.27 1123.83 850.29 1160.91 1019.84 1160.5 1044.32 1115.29"/><path class="cls-96" d="M770.26,85.69,684.5,208.26s52.27,31.25,80.27,66.56l147.47-109Z" transform="translate(26.73 0)"/></g></g><polygon class="cls-97" points="209.86 819.74 89.65 820.41 104.89 1019.99 100.42 830.87 191.77 827.94 209.86 819.74"/><polygon class="cls-73" points="956.73 1291.92 945.81 1320.16 929.38 1403.22 145.73 1411.4 140.67 1421.06 945.59 1417.22 956.73 1291.92"/><polygon class="cls-98" points="825.55 1269.52 822.26 1264.52 682.6 1264.72 675.57 1246.08 669.4 1246.09 674.9 1264.73 536.86 1264.93 538.24 1246.3 532.91 1246.31 530.87 1264.94 406.12 1265.12 415.37 1246.5 407.4 1248.07 399.38 1265.13 258.29 1265.33 252.28 1274.47 395.57 1273.23 380.08 1298.26 391.66 1365.32 393.45 1361.76 389.65 1298.25 402.11 1273.18 530.09 1272.07 527.06 1299.75 529.11 1363.09 532.61 1363.08 534.41 1298.08 536.34 1272.02 676.69 1270.81 684.68 1297.91 681.45 1358.86 683.51 1363.22 697.58 1297.9 684.87 1270.73 825.55 1269.52"/><polygon class="cls-99" points="682.6 1264.72 675.57 1246.08 685.85 1259.73 818.18 1262.58 822.26 1264.52 682.6 1264.72"/><polygon class="cls-100" points="532.91 1246.31 530.87 1264.94 406.12 1265.12 415.37 1246.5 532.91 1246.31"/><polygon class="cls-101" points="534.39 1304.26 535.89 1354.29 681.8 1352.19 684.38 1303.58 534.39 1304.26"/><polygon class="cls-100" points="395.57 1273.23 386.46 1292.6 240.24 1292.77 252.28 1274.47 395.57 1273.23"/><path class="cls-73" d="M226.3,1337.44s225,22.73,377.87-33.29l197.45-.73,12-11.36-13.51,69.74-569.95,5.4Z" transform="translate(26.73 0)"/><path class="cls-102" d="M213.51,1292.77s302.31-27.85,415.67-37.33C743,1245.92,786,1250.06,786,1250.06l-3.46-7.79-538.78,4.46Z" transform="translate(26.73 0)"/><polygon class="cls-103" points="270.34 1366.3 286.3 1377.82 835.84 1376.19 847.08 1309.21 838.15 1303.41 826.84 1361.8 270.34 1366.3"/><polygon class="cls-104" points="534.41 1298.08 682.87 1295.8 684.38 1303.58 534.4 1302.38 534.41 1298.08"/><polygon class="cls-105" points="269.56 1249.15 811.18 1247.86 810.02 1244.99 270.53 1246.73 269.56 1249.15"/><path class="cls-106" d="M808.58,334.69l-31.12,26.4c-310.16-129-338,302.88-338,302.88l-59.9,581.29-166.07,47.51L167.54,585l7-.05L187,478.81,174.28,475C187.85,402.4,220,334.45,268,280.07c43-48.68,95.66-83.53,153.32-102.13L445,171.3l3.81,18.09,134.71-1.53,3.58-18.2.21,0c67.09,14.55,128.55,50.72,177.48,105.2A372.42,372.42,0,0,1,799,319.27l9.53,15.27Z" transform="translate(26.73 0)"/><polygon class="cls-73" points="1041.72 554.28 895.08 570.16 880.75 579.66 1058.1 578.29 1041.72 417.86 1033.16 457.22 1041.72 554.28"/><g class="cls-107"><path class="cls-108" d="M876.74,860.85s9.69-3.9,10.67-1.27.39,7.71-5.61,9.36-11.13,9.77-11.13,9.77-2.18-12.14.38-12.56S876.74,860.85,876.74,860.85Z" transform="translate(26.73 0)"/><path class="cls-108" d="M894.73,873.73c5,.59,10.33,5.22,4.77,6.46a14.26,14.26,0,0,1-10-1.57Z" transform="translate(26.73 0)"/><path class="cls-108" d="M877.31,913.79c-7.45,5.47-10.56,3.22-11.09,13.9s1.21,18.47,4.62,23.06,20.71,2.51,16.59-6.08-11.64-11-10-15.2,8.47-7.67,6.48-11.68S877.31,913.79,877.31,913.79Z" transform="translate(26.73 0)"/><path class="cls-108" d="M219.88,266.72c7.94-2.4,16,2.8,9.09,6.51s-5.11,8.9-15.68,7.07-22.39-14.4-10.83-14S219.88,266.72,219.88,266.72Z" transform="translate(26.73 0)"/><path class="cls-108" d="M215.27,303.07c1.43,1,3.68,8.51.16,8.55s-15,1.47-12.15-4.15S215.27,303.07,215.27,303.07Z" transform="translate(26.73 0)"/></g><polygon class="cls-73" points="213.72 478.81 201.31 493.63 186.22 577.33 44.94 577.33 26.73 586.28 201.3 584.93 213.72 478.81"/></g></g></g></svg>